<?xml version="1.0" encoding="utf-8"?>
<svg version="1.1" xmlns:xlink="http://www.w3.org/1999/xlink" width="150px" height="156px" xmlns="http://www.w3.org/2000/svg">
  <g transform="matrix(1 0 0 1 -94 -77 )">
    <path d="M 38.26622596153846 117.67708333333333  C 40.51983173076923 119.93402777777777  41.64663461538462 122.65740740740739  41.64663461538462 125.84722222222223  C 41.64663461538462 129.037037037037  40.51983173076923 131.76041666666666  38.26622596153846 134.01736111111111  C 36.01262019230769 136.27430555555554  33.29326923076923 137.40277777777777  30.108173076923077 137.40277777777777  C 26.98317307692308 137.40277777777777  24.27884615384616 136.25925925925927  21.99519230769231 133.97222222222223  C 19.711538461538463 131.6851851851852  18.56971153846154 128.97685185185185  18.56971153846154 125.84722222222223  C 18.56971153846154 122.65740740740739  19.696514423076923 119.93402777777777  21.95012019230769 117.67708333333333  C 24.20372596153846 115.42013888888889  26.923076923076923 114.29166666666666  30.108173076923077 114.29166666666666  C 33.29326923076923 114.29166666666666  36.01262019230769 115.42013888888889  38.26622596153846 117.67708333333333  Z M 83.15805288461539 136.27430555555554  C 85.41165865384616 138.53125  86.53846153846153 141.25462962962965  86.53846153846153 144.44444444444446  C 86.53846153846153 147.63425925925924  85.41165865384616 150.35763888888889  83.15805288461539 152.61458333333334  C 80.90444711538461 154.87152777777777  78.18509615384615 156  75 156  C 71.81490384615385 156  69.09555288461539 154.87152777777777  66.84194711538461 152.61458333333334  C 64.58834134615384 150.35763888888889  63.46153846153846 147.63425925925924  63.46153846153846 144.44444444444446  C 63.46153846153846 141.25462962962965  64.58834134615384 138.53125  66.84194711538461 136.27430555555554  C 69.09555288461539 134.01736111111111  71.81490384615385 132.88888888888889  75 132.88888888888889  C 78.18509615384615 132.88888888888889  80.90444711538461 134.01736111111111  83.15805288461539 136.27430555555554  Z M 19.696514423076923 72.71875  C 21.95012019230769 74.97569444444444  23.076923076923077 77.69907407407408  23.076923076923077 80.8888888888889  C 23.076923076923077 84.0787037037037  21.95012019230769 86.80208333333334  19.696514423076923 89.05902777777779  C 17.442908653846153 91.31597222222221  14.723557692307693 92.44444444444444  11.538461538461538 92.44444444444444  C 8.353365384615387 92.44444444444444  5.6340144230769225 91.31597222222221  3.3804086538461537 89.05902777777779  C 1.1268028846153846 86.80208333333334  0 84.0787037037037  0 80.8888888888889  C 0 77.69907407407408  1.1268028846153846 74.97569444444444  3.3804086538461537 72.71875  C 5.6340144230769225 70.46180555555554  8.353365384615387 69.33333333333333  11.538461538461538 69.33333333333333  C 14.723557692307693 69.33333333333333  17.442908653846153 70.46180555555554  19.696514423076923 72.71875  Z M 128.04987980769232 117.67708333333333  C 130.30348557692307 119.93402777777777  131.43028846153848 122.65740740740739  131.43028846153848 125.84722222222223  C 131.43028846153848 128.97685185185185  130.28846153846155 131.6851851851852  128.00480769230768 133.97222222222223  C 125.72115384615385 136.25925925925927  123.01682692307693 137.40277777777777  119.89182692307692 137.40277777777777  C 116.70673076923077 137.40277777777777  113.9873798076923 136.27430555555554  111.73377403846153 134.01736111111111  C 109.48016826923076 131.76041666666666  108.35336538461539 129.037037037037  108.35336538461539 125.84722222222223  C 108.35336538461539 122.65740740740739  109.48016826923076 119.93402777777777  111.73377403846153 117.67708333333333  C 113.9873798076923 115.42013888888889  116.70673076923077 114.29166666666666  119.89182692307692 114.29166666666666  C 123.0769230769231 114.29166666666666  125.79627403846153 115.42013888888889  128.04987980769232 117.67708333333333  Z M 40.29447115384615 25.72916666666667  C 43.11899038461539 28.557870370370356  44.53125 31.958333333333343  44.53125 35.93055555555556  C 44.53125 39.902777777777786  43.11899038461539 43.30324074074072  40.29447115384615 46.13194444444444  C 37.46995192307692 48.960648148148145  34.07451923076923 50.37499999999999  30.108173076923077 50.37499999999999  C 26.141826923076923 50.37499999999999  22.746394230769234 48.960648148148145  19.921875 46.13194444444444  C 17.09735576923077 43.30324074074072  15.685096153846155 39.902777777777786  15.685096153846155 35.93055555555556  C 15.685096153846155 31.958333333333343  17.09735576923077 28.557870370370356  19.921875 25.72916666666667  C 22.746394230769234 22.90046296296295  26.141826923076923 21.486111111111114  30.108173076923077 21.486111111111114  C 34.07451923076923 21.486111111111114  37.46995192307692 22.90046296296295  40.29447115384615 25.72916666666667  Z M 146.61959134615384 72.71875  C 148.87319711538464 74.97569444444444  150.00000000000003 77.69907407407408  150 80.8888888888889  C 150.00000000000003 84.0787037037037  148.87319711538464 86.80208333333334  146.61959134615384 89.05902777777779  C 144.3659855769231 91.31597222222221  141.64663461538464 92.44444444444444  138.46153846153848 92.44444444444444  C 135.27644230769232 92.44444444444444  132.55709134615384 91.31597222222221  130.30348557692307 89.05902777777779  C 128.04987980769232 86.80208333333334  126.92307692307692 84.0787037037037  126.92307692307692 80.8888888888889  C 126.92307692307692 77.69907407407408  128.04987980769232 74.97569444444444  130.30348557692307 72.71875  C 132.55709134615384 70.46180555555554  135.27644230769232 69.33333333333333  138.46153846153848 69.33333333333333  C 141.64663461538464 69.33333333333333  144.3659855769231 70.46180555555554  146.61959134615384 72.71875  Z M 87.25961538461539 5.055555555555561  C 90.62500000000001 8.425925925925911  92.3076923076923 12.518518518518505  92.3076923076923 17.333333333333343  C 92.3076923076923 22.14814814814814  90.62500000000001 26.24074074074072  87.25961538461539 29.611111111111104  C 83.89423076923077 32.981481481481474  79.8076923076923 34.666666666666664  75 34.666666666666664  C 70.19230769230771 34.666666666666664  66.10576923076924 32.981481481481474  62.74038461538462 29.611111111111104  C 59.37500000000001 26.24074074074072  57.69230769230769 22.14814814814814  57.69230769230769 17.333333333333343  C 57.69230769230769 12.518518518518505  59.37500000000001 8.425925925925911  62.74038461538462 5.055555555555561  C 66.10576923076924 1.6851851851851927  70.19230769230771 0  75 0  C 79.8076923076923 0  83.89423076923077 1.6851851851851927  87.25961538461539 5.055555555555561  Z M 134.1346153846154 21.666666666666657  C 138.10096153846152 25.63888888888889  140.0841346153846 30.393518518518512  140.0841346153846 35.93055555555556  C 140.0841346153846 41.52777777777778  138.10096153846152 46.297453703703695  134.1346153846154 50.23958333333334  C 130.16826923076923 54.181712962962955  125.4206730769231 56.15277777777778  119.89182692307692 56.15277777777778  C 114.30288461538461 56.15277777777778  109.54026442307693 54.181712962962955  105.60396634615384 50.23958333333334  C 101.66766826923077 46.297453703703695  99.69951923076924 41.52777777777778  99.69951923076924 35.93055555555556  C 99.69951923076924 30.393518518518512  101.66766826923077 25.63888888888889  105.60396634615384 21.666666666666657  C 109.54026442307693 17.694444444444446  114.30288461538461 15.708333333333329  119.89182692307692 15.708333333333329  C 125.4206730769231 15.708333333333329  130.16826923076923 17.694444444444446  134.1346153846154 21.666666666666657  Z " fill-rule="nonzero" fill="#5a58c3" stroke="none" transform="matrix(1 0 0 1 94 77 )" />
  </g>
</svg>