<?xml version="1.0" encoding="utf-8"?>
<svg version="1.1" xmlns:xlink="http://www.w3.org/1999/xlink" width="74px" height="71px" xmlns="http://www.w3.org/2000/svg">
  <g transform="matrix(1 0 0 1 -133 -97 )">
    <path d="M 72.25589225589225 53.070707070707066  C 73.41863075196409 54.18630751964084  74 55.540965207631864  74 57.13468013468013  C 74 58.728395061728406  73.41863075196409 60.083052749719414  72.25589225589225 61.1986531986532  L 63.78451178451178 69.32659932659932  C 62.62177328843997 70.44219977553311  61.20987654320988 71  59.54882154882155 71  C 57.88776655443323 71  56.47586980920315 70.44219977553311  55.313131313131315 69.32659932659932  L 37 51.75589225589226  L 18.68686868686869 69.32659932659932  C 17.52413019079686 70.44219977553311  16.11223344556678 71  14.451178451178452 71  C 12.790123456790125 71  11.378226711560046 70.44219977553311  10.215488215488216 69.32659932659932  L 1.7441077441077442 61.1986531986532  C 0.5813692480359153 60.083052749719414  0 58.728395061728406  0 57.13468013468013  C 0 55.540965207631864  0.5813692480359153 54.18630751964084  1.7441077441077442 53.070707070707066  L 20.057239057239055 35.5  L 1.7441077441077442 17.929292929292927  C 0.5813692480359153 16.81369248035914  0 15.459034792368126  0 13.865319865319865  C 0 12.271604938271604  0.5813692480359153 10.916947250280574  1.7441077441077442 9.801346801346805  L 10.215488215488216 1.6734006734006737  C 11.378226711560046 0.5578002244668886  12.790123456790125 0  14.451178451178452 0  C 16.11223344556678 0  17.52413019079686 0.5578002244668886  18.68686868686869 1.6734006734006737  L 37 19.244107744107747  L 55.313131313131315 1.6734006734006737  C 56.47586980920315 0.5578002244668886  57.88776655443323 0  59.54882154882155 0  C 61.20987654320988 0  62.62177328843997 0.5578002244668886  63.78451178451178 1.6734006734006737  L 72.25589225589225 9.801346801346805  C 73.41863075196409 10.916947250280574  74 12.271604938271604  74 13.865319865319865  C 74 15.459034792368126  73.41863075196409 16.81369248035914  72.25589225589225 17.929292929292927  L 53.94276094276094 35.5  L 72.25589225589225 53.070707070707066  Z " fill-rule="nonzero" fill="#ffffff" stroke="none" transform="matrix(1 0 0 1 133 97 )" />
  </g>
</svg>