<?xml version="1.0" encoding="utf-8"?>
<svg version="1.1" xmlns:xlink="http://www.w3.org/1999/xlink" width="171px" height="166px" xmlns="http://www.w3.org/2000/svg">
  <g transform="matrix(1 0 0 1 -77 -45 )">
    <path d="M 125.80078125 112.39583333333331  C 127.21093750000001 111.02690972222223  127.916015625 109.36979166666669  127.916015625 107.42447916666669  C 127.916015625 105.55121527777777  127.21093750000001 103.93012152777777  125.80078125 102.56119791666669  L 105.650390625 83  L 125.80078125 63.43880208333334  C 127.21093750000001 62.06987847222221  127.916015625 60.44878472222221  127.916015625 58.57552083333334  C 127.916015625 56.63020833333334  127.21093750000001 54.97309027777776  125.80078125 53.60416666666666  L 115.78125 43.87760416666666  C 114.37109375000003 42.50868055555555  112.6640625 41.82421875  110.66015625 41.82421875  C 108.73046875000001 41.82421875  107.06054687500001 42.50868055555555  105.650390625 43.87760416666666  L 85.5 63.43880208333334  L 65.349609375 43.87760416666666  C 63.93945312500001 42.50868055555555  62.26953125000001 41.82421875  60.33984375 41.82421875  C 58.3359375 41.82421875  56.62890625000001 42.50868055555555  55.21875 43.87760416666666  L 45.19921875 53.60416666666666  C 43.7890625 54.97309027777776  43.08398437500001 56.63020833333334  43.083984375 58.57552083333334  C 43.08398437500001 60.44878472222221  43.7890625 62.06987847222221  45.19921875 63.43880208333334  L 65.349609375 83  L 45.19921875 102.56119791666669  C 43.7890625 103.93012152777777  43.08398437500001 105.55121527777777  43.083984375 107.42447916666669  C 43.08398437500001 109.36979166666669  43.7890625 111.02690972222223  45.19921875 112.39583333333331  L 55.21875 122.12239583333331  C 56.62890625000001 123.49131944444441  58.3359375 124.17578125  60.33984375 124.17578125  C 62.26953125000001 124.17578125  63.93945312500001 123.49131944444441  65.349609375 122.12239583333331  L 85.5 102.56119791666669  L 105.650390625 122.12239583333331  C 107.06054687500001 123.49131944444441  108.73046875000001 124.17578125  110.66015625 124.17578125  C 112.6640625 124.17578125  114.37109375000003 123.49131944444441  115.78125 122.12239583333331  L 125.80078125 112.39583333333331  Z M 159.533203125 41.337890625  C 167.17773437499997 54.05447048611109  171 67.94184027777776  171 83  C 171 98.05815972222223  167.17773437499997 111.94552951388887  159.533203125 124.662109375  C 151.88867187500003 137.37868923611111  141.5166015625 147.44748263888889  128.4169921875 154.86848958333334  C 115.31738281250001 162.2894965277778  101.01171875 166  85.5 166  C 69.98828125 166  55.6826171875 162.2894965277778  42.5830078125 154.86848958333334  C 29.483398437500004 147.44748263888889  19.111328125000004 137.37868923611111  11.466796875 124.662109375  C 3.8222656249999996 111.94552951388887  0 98.05815972222223  0 83  C 0 67.94184027777776  3.8222656249999996 54.05447048611109  11.466796875 41.337890625  C 19.111328125000004 28.621310763888886  29.483398437500004 18.552517361111093  42.5830078125 11.13151041666666  C 55.6826171875 3.710503472222208  69.98828125 0  85.5 0  C 101.01171875 0  115.31738281250001 3.710503472222208  128.4169921875 11.13151041666666  C 141.5166015625 18.552517361111093  151.88867187500003 28.621310763888886  159.533203125 41.337890625  Z " fill-rule="nonzero" fill="#0502a4" stroke="none" fill-opacity="0.6588235294117647" transform="matrix(1 0 0 1 77 45 )" />
  </g>
</svg>