<?xml version="1.0" encoding="utf-8"?>
<svg version="1.1" xmlns:xlink="http://www.w3.org/1999/xlink" width="38px" height="30px" xmlns="http://www.w3.org/2000/svg">
  <g transform="matrix(1 0 0 1 -33 -15 )">
    <path d="M 3.1666666666666665 0  L 34.83333333333333 0  C 35.704166666666666 0  36.44965277777778 0.3059895833333304  37.06979166666667 0.9179687500000011  C 37.689930555555556 1.5299479166666652  38.00000000000001 2.265625000000001  38 3.124999999999999  L 38 26.875  C 38.00000000000001 27.734375  37.689930555555556 28.470052083333336  37.06979166666667 29.08203125  C 36.44965277777778 29.694010416666668  35.704166666666666 30  34.83333333333333 30  L 3.1666666666666665 30  C 2.2958333333333334 30  1.5503472222222225 29.694010416666668  0.9302083333333333 29.08203125  C 0.31006944444444445 28.470052083333336  0 27.734375  0 26.875  L 0 3.124999999999999  C 0 2.265625000000001  0.31006944444444445 1.5299479166666652  0.9302083333333333 0.9179687500000011  C 1.5503472222222225 0.3059895833333304  2.2958333333333334 0  3.1666666666666665 0  Z M 34.83333333333333 3  L 3.1666666666666665 3  C 2.9951388888888895 2.500000000000001  2.8467013888888895 2.5618489583333304  2.7213541666666665 2.685546874999999  C 2.596006944444445 2.8092447916666643  2.533333333333333 2.9557291666666643  2.533333333333333 3.124999999999999  L 2.533333333333333 8  L 35.46666666666667 8  L 35.46666666666667 3.124999999999999  C 35.46666666666667 2.9557291666666643  35.40399305555556 2.8092447916666643  35.27864583333333 2.685546874999999  C 35.15329861111112 2.5618489583333304  35.00486111111112 2.500000000000001  34.83333333333333 3  Z M 3.1666666666666665 27  L 34.83333333333333 27  C 35.00486111111112 27.5  35.15329861111112 27.438151041666668  35.27864583333333 27.314453125  C 35.40399305555556 27.190755208333336  35.46666666666667 27.044270833333336  35 26.875  L 35 15  L 3 15  L 3 26.875  C 2.533333333333333 27.044270833333336  2.596006944444445 27.190755208333336  2.7213541666666665 27.314453125  C 2.8467013888888895 27.438151041666668  2.9951388888888895 27.5  3.1666666666666665 27  Z M 10.133333333333333 25  L 5.066666666666666 25  L 5.066666666666666 22.5  L 10.133333333333333 22.5  L 10.133333333333333 25  Z M 20.266666666666666 25  L 12.666666666666666 25  L 12.666666666666666 22.5  L 20.266666666666666 22.5  L 20.266666666666666 25  Z " fill-rule="nonzero" fill="#ffffff" stroke="none" transform="matrix(1 0 0 1 33 15 )" />
  </g>
</svg>