<?xml version="1.0" encoding="utf-8"?>
<svg version="1.1" xmlns:xlink="http://www.w3.org/1999/xlink" width="43px" height="43px" xmlns="http://www.w3.org/2000/svg">
  <g>
    <path d="M 26.58705357142857 32.273995535714285  C 27.610863095238095 32.84988839285714  28.25874255952381 32.54594494047619  28.530691964285715 31.36216517857143  L 32.058035714285715 14.73325892857143  C 32.20200892857143 14.029389880952376  32.11802455357143 13.525483630952376  31.806082589285715 13.22154017857143  C 31.494140625 12.917596726190474  31.082217261904766 12.861607142857144  30.5703125 13.05357142857143  L 9.838169642857142 21.04408482142857  C 9.374255952380953 21.22005208333333  9.058314732142858 21.42001488095238  8.890345982142858 21.643973214285715  C 8.722377232142858 21.867931547619044  8.702380952380953 22.07989211309524  8.830357142857142 22.279854910714285  C 8.958333333333334 22.47981770833333  9.214285714285714 22.63578869047619  9.598214285714286 22.74776785714286  L 14.901227678571427 24.40345982142857  L 27.2109375 16.652901785714285  C 27.546875 16.42894345238095  27.802827380952383 16.380952380952376  27.978794642857146 16.50892857142857  C 28.09077380952381 16.58891369047619  28.058779761904766 16.708891369047617  27.8828125 16.868861607142854  L 17.924665178571427 25.8671875  L 17.540736607142858 31.33816964285714  C 17.908668154761905 31.33816964285714  18.268601190476193 31.16220238095238  18.620535714285715 30.81026785714286  L 21.212053571428573 28.31473214285714  L 26.58705357142857 32.273995535714285  Z M 41.296316964285715 13.14955357142857  C 42.43210565476191 15.80505952380952  43 18.588541666666664  43 21.5  C 43 24.41145833333333  42.43210565476191 27.194940476190474  41.296316964285715 29.85044642857143  C 40.16052827380953 32.50595238095238  38.63281250000001 34.793526785714285  36.713169642857146 36.71316964285714  C 34.793526785714285 38.6328125  32.50595238095239 40.160528273809526  29.85044642857143 41.296316964285715  C 27.19494047619048 42.432105654761905  24.411458333333336 43  21.5 43  C 18.588541666666668 43  15.805059523809526 42.432105654761905  13.149553571428573 41.296316964285715  C 10.49404761904762 40.160528273809526  8.206473214285714 38.6328125  6.286830357142858 36.71316964285714  C 4.3671875 34.793526785714285  2.8394717261904763 32.50595238095238  1.7036830357142856 29.85044642857143  C 0.5678943452380951 27.194940476190474  0 24.41145833333333  0 21.5  C 0 18.588541666666664  0.5678943452380951 15.80505952380952  1.7036830357142856 13.14955357142857  C 2.8394717261904763 10.494047619047615  4.3671875 8.206473214285715  6.286830357142858 6.286830357142855  C 8.206473214285714 4.3671875  10.49404761904762 2.839471726190475  13.149553571428573 1.7036830357142851  C 15.805059523809526 0.567894345238095  18.588541666666668 0  21.5 0  C 24.411458333333336 0  27.19494047619048 0.567894345238095  29.85044642857143 1.7036830357142851  C 32.50595238095239 2.839471726190475  34.793526785714285 4.3671875  36.713169642857146 6.286830357142855  C 38.63281250000001 8.206473214285715  40.16052827380953 10.494047619047615  41.296316964285715 13.14955357142857  Z " fill-rule="nonzero" fill="#8f00ff" stroke="none" />
  </g>
</svg>