<?xml version="1.0" encoding="utf-8"?>
<svg version="1.1" xmlns:xlink="http://www.w3.org/1999/xlink" width="321px" height="72px" xmlns="http://www.w3.org/2000/svg">
  <defs>
    <mask fill="white" id="clip61">
      <path d="M 89.3235294117647 0.5168539325842687  C 89.3235294117647 0.5168539325842687  -118.51685393258427 0.5168539325842687  100.58426966292134 0.5168539325842687  C 319.685393258427 0.5168539325842687  320.8089887640449 0.5168539325842687  320.8089887640449 0.5168539325842687  L 321 71.30337078651684  L 121 71.30337078651684  L 121 39.36764705882351  L 100.58426966292134 7.382352941176464  L 89.3235294117647 0.5168539325842687  Z " fill-rule="evenodd" />
    </mask>
  </defs>
  <g>
    <path d="M 89.3235294117647 0.5168539325842687  C 89.3235294117647 0.5168539325842687  -118.51685393258427 0.5168539325842687  100.58426966292134 0.5168539325842687  C 319.685393258427 0.5168539325842687  320.8089887640449 0.5168539325842687  320.8089887640449 0.5168539325842687  L 321 71.30337078651684  L 121 71.30337078651684  L 121 39.36764705882351  L 100.58426966292134 7.382352941176464  L 89.3235294117647 0.5168539325842687  Z " fill-rule="nonzero" fill="#c280ff" stroke="none" />
    <path d="M 89.3235294117647 0.5168539325842687  C 89.3235294117647 0.5168539325842687  -118.51685393258427 0.5168539325842687  100.58426966292134 0.5168539325842687  C 319.685393258427 0.5168539325842687  320.8089887640449 0.5168539325842687  320.8089887640449 0.5168539325842687  L 321 71.30337078651684  L 121 71.30337078651684  L 121 39.36764705882351  L 100.58426966292134 7.382352941176464  L 89.3235294117647 0.5168539325842687  Z " stroke-width="2" stroke="#797979" fill="none" mask="url(#clip61)" />
  </g>
</svg>