<?xml version="1.0" encoding="utf-8"?>
<svg version="1.1" xmlns:xlink="http://www.w3.org/1999/xlink" width="357px" height="73px" xmlns="http://www.w3.org/2000/svg">
  <defs>
    <mask fill="white" id="clip62">
      <path d="M 261.7830323193917 1.558854166666701  C 261.7830323193917 1.558854166666701  485.8978136882128 3.117708333333402  243.4013783269962 1.558854166666701  C 0.9049429657794933 0  0.9049429657794933 1.558854166666701  0.9049429657794933 1.558854166666701  L 0.9049429657794933 72.8479166666667  L 223.60575095057035 73  L 235.62452471482896 10.113541666666702  L 261.7830323193917 1.558854166666701  Z " fill-rule="evenodd" />
    </mask>
  </defs>
  <g transform="matrix(1 0 0 1 -205 -119 )">
    <path d="M 261.7830323193917 1.558854166666701  C 261.7830323193917 1.558854166666701  485.8978136882128 3.117708333333402  243.4013783269962 1.558854166666701  C 0.9049429657794933 0  0.9049429657794933 1.558854166666701  0.9049429657794933 1.558854166666701  L 0.9049429657794933 72.8479166666667  L 223.60575095057035 73  L 235.62452471482896 10.113541666666702  L 261.7830323193917 1.558854166666701  Z " fill-rule="nonzero" fill="#8f00ff" stroke="none" transform="matrix(1 0 0 1 205 119 )" />
    <path d="M 261.7830323193917 1.558854166666701  C 261.7830323193917 1.558854166666701  485.8978136882128 3.117708333333402  243.4013783269962 1.558854166666701  C 0.9049429657794933 0  0.9049429657794933 1.558854166666701  0.9049429657794933 1.558854166666701  L 0.9049429657794933 72.8479166666667  L 223.60575095057035 73  L 235.62452471482896 10.113541666666702  L 261.7830323193917 1.558854166666701  Z " stroke-width="2" stroke="#797979" fill="none" transform="matrix(1 0 0 1 205 119 )" mask="url(#clip62)" />
  </g>
</svg>