<?xml version="1.0" encoding="utf-8"?>
<svg version="1.1" xmlns:xlink="http://www.w3.org/1999/xlink" width="355px" height="73px" xmlns="http://www.w3.org/2000/svg">
  <defs>
    <mask fill="white" id="clip63">
      <path d="M 260.3164607097592 1.558854166666701  C 260.3164607097592 1.558854166666701  483.1756970849175 3.117708333333402  242.03778517110266 1.558854166666701  C 0.8998732572877315 0  0.8998732572877315 1.558854166666701  0.8998732572877315 1.558854166666701  L 0.8998732572877315 72.8479166666667  L 222.3530576679341 73  L 234.3044993662865 10.113541666666702  L 260.3164607097592 1.558854166666701  Z " fill-rule="evenodd" />
    </mask>
  </defs>
  <g transform="matrix(1 0 0 1 -205 -388 )">
    <path d="M 260.3164607097592 1.558854166666701  C 260.3164607097592 1.558854166666701  483.1756970849175 3.117708333333402  242.03778517110266 1.558854166666701  C 0.8998732572877315 0  0.8998732572877315 1.558854166666701  0.8998732572877315 1.558854166666701  L 0.8998732572877315 72.8479166666667  L 222.3530576679341 73  L 234.3044993662865 10.113541666666702  L 260.3164607097592 1.558854166666701  Z " fill-rule="nonzero" fill="#8f00ff" stroke="none" transform="matrix(1 0 0 1 205 388 )" />
    <path d="M 260.3164607097592 1.558854166666701  C 260.3164607097592 1.558854166666701  483.1756970849175 3.117708333333402  242.03778517110266 1.558854166666701  C 0.8998732572877315 0  0.8998732572877315 1.558854166666701  0.8998732572877315 1.558854166666701  L 0.8998732572877315 72.8479166666667  L 222.3530576679341 73  L 234.3044993662865 10.113541666666702  L 260.3164607097592 1.558854166666701  Z " stroke-width="2" stroke="#797979" fill="none" transform="matrix(1 0 0 1 205 388 )" mask="url(#clip63)" />
  </g>
</svg>