<?xml version="1.0" encoding="utf-8"?>
<svg version="1.1" xmlns:xlink="http://www.w3.org/1999/xlink" width="300px" height="52px" xmlns="http://www.w3.org/2000/svg">
  <g>
    <path d="M 1 10.000000000000002  A 9 9 0 0 1 9.999999999999998 1 L 290 1  A 9 9 0 0 1 299 10 L 299 42  A 9 9 0 0 1 290 51 L 10 51  A 9 9 0 0 1 1 42 L 1 10  Z " fill-rule="nonzero" fill="#ffffff" stroke="none" />
    <path d="M 0.5 10.000000000000002  A 9.5 9.5 0 0 1 9.999999999999998 0.5 L 290 0.5  A 9.5 9.5 0 0 1 299.5 10 L 299.5 42  A 9.5 9.5 0 0 1 290 51.5 L 10 51.5  A 9.5 9.5 0 0 1 0.5 42 L 0.5 10  Z " stroke-width="1" stroke="#5800aa" fill="none" stroke-opacity="0.6588235294117647" />
  </g>
</svg>