<?xml version="1.0" encoding="utf-8"?>
<svg version="1.1" xmlns:xlink="http://www.w3.org/1999/xlink" width="49px" height="49px" xmlns="http://www.w3.org/2000/svg">
  <g transform="matrix(1 0 0 1 -1 -1 )">
    <path d="M 25.5 1  C 39.22 1  50 11.78  50 25.5  C 50 39.22  39.22 50  25.5 50  C 11.78 50  1 39.22  1 25.5  C 1 11.78  11.78 1  25.5 1  Z " fill-rule="nonzero" fill="#ffff00" stroke="none" />
    <path d="M 25.5 1.5  C 38.94 1.5  49.5 12.059999999999999  49.5 25.5  C 49.5 38.94  38.94 49.5  25.5 49.5  C 12.059999999999999 49.5  1.5 38.94  1.5 25.5  C 1.5 12.059999999999999  12.059999999999999 1.5  25.5 1.5  Z " stroke-width="1" stroke="#000000" fill="none" />
  </g>
</svg>