<?xml version="1.0" encoding="utf-8"?>
<svg version="1.1" xmlns:xlink="http://www.w3.org/1999/xlink" width="70px" height="70px" xmlns="http://www.w3.org/2000/svg">
  <g transform="matrix(1 0 0 1 -41 -44 )">
    <path d="M 25.007102272727273 57.923177083333336  C 25.305397727272727 57.649739583333336  25.454545454545457 57.30034722222222  26 56.875  L 26 24.791666666666664  C 25.454545454545457 24.366319444444446  25.305397727272727 24.016927083333336  25.007102272727273 23.743489583333336  C 24.708806818181817 23.470052083333336  24.32765151515152 23.333333333333336  23.863636363636363 23.333333333333336  L 20.681818181818183 23.333333333333336  C 20.217803030303035 23.333333333333336  19.83664772727273 23.470052083333336  19.538352272727273 23.743489583333336  C 19.240056818181817 24.016927083333336  19.09090909090909 24.366319444444446  19 24.791666666666664  L 19 56.875  C 19.09090909090909 57.30034722222222  19.240056818181817 57.649739583333336  19.538352272727273 57.923177083333336  C 19.83664772727273 58.196614583333336  20.217803030303035 58.333333333333336  20.681818181818183 58.333333333333336  L 23.863636363636363 58.333333333333336  C 24.32765151515152 58.333333333333336  24.708806818181817 58.196614583333336  25.007102272727273 57.923177083333336  Z M 37.734375 57.923177083333336  C 38.03267045454545 57.649739583333336  38.18181818181818 57.30034722222222  38 56.875  L 38 24.791666666666664  C 38.18181818181818 24.366319444444446  38.03267045454545 24.016927083333336  37.734375 23.743489583333336  C 37.43607954545455 23.470052083333336  37.05492424242425 23.333333333333336  36.590909090909086 23.333333333333336  L 33.409090909090914 23.333333333333336  C 32.945075757575765 23.333333333333336  32.56392045454545 23.470052083333336  32.265625 23.743489583333336  C 31.967329545454543 24.016927083333336  31.818181818181817 24.366319444444446  32 24.791666666666664  L 32 56.875  C 31.818181818181817 57.30034722222222  31.967329545454543 57.649739583333336  32.265625 57.923177083333336  C 32.56392045454545 58.196614583333336  32.945075757575765 58.333333333333336  33.409090909090914 58.333333333333336  L 36.590909090909086 58.333333333333336  C 37.05492424242425 58.333333333333336  37.43607954545455 58.196614583333336  37.734375 57.923177083333336  Z M 50.46164772727273 57.923177083333336  C 50.75994318181818 57.649739583333336  50.909090909090914 57.30034722222222  51 56.875  L 51 24.791666666666664  C 50.909090909090914 24.366319444444446  50.75994318181818 24.016927083333336  50.46164772727273 23.743489583333336  C 50.16335227272727 23.470052083333336  49.78219696969697 23.333333333333336  49.31818181818182 23.333333333333336  L 46.13636363636363 23.333333333333336  C 45.672348484848484 23.333333333333336  45.29119318181818 23.470052083333336  44.99289772727273 23.743489583333336  C 44.69460227272727 24.016927083333336  44.54545454545455 24.366319444444446  44 24.791666666666664  L 44 56.875  C 44.54545454545455 57.30034722222222  44.69460227272727 57.649739583333336  44.99289772727273 57.923177083333336  C 45.29119318181818 58.196614583333336  45.672348484848484 58.333333333333336  46.13636363636363 58.333333333333336  L 49.31818181818182 58.333333333333336  C 49.78219696969697 58.333333333333336  50.16335227272727 58.196614583333336  50.46164772727273 57.923177083333336  Z M 26.29971590909091 6.334635416666664  L 23.863636363636363 12  L 46.13636363636363 12  L 43.75 6.334635416666664  C 43.517992424242436 6.061197916666664  43.23626893939394 5.894097222222219  42.90482954545455 6  L 27.144886363636363 6  C 26.81344696969697 5.894097222222219  26.531723484848488 6.061197916666664  26.29971590909091 6.334635416666664  Z M 69.55255681818183 12.076822916666664  C 69.85085227272728 12.350260416666664  70 12.699652777777773  70 13.125  L 70 16.041666666666664  C 70 16.467013888888882  69.85085227272728 16.81640625  69.55255681818183 17.08984375  C 69.25426136363636 17.36328125  68.87310606060606 17.5  68.4090909090909 17.5  L 63 17.5  L 63 60.703125  C 63.63636363636363 63.224826388888886  62.85748106060607 65.40473090277779  61.299715909090914 67.24283854166666  C 59.741950757575765 69.08094618055556  57.86931818181818 70  55.68181818181818 70  L 14.318181818181818 70  C 12.130681818181818 70  10.258049242424244 69.111328125  8.70028409090909 67.333984375  C 7.14251893939394 65.556640625  6.363636363636364 63.40711805555556  7 60.885416666666664  L 7 17.5  L 1.590909090909091 17.5  C 1.1268939393939394 17.5  0.7457386363636365 17.36328125  0.4474431818181818 17.08984375  C 0.14914772727272727 16.81640625  0 16.467013888888882  0 16.041666666666664  L 0 13.125  C 0 12.699652777777773  0.14914772727272727 12.350260416666664  0.4474431818181818 12.076822916666664  C 0.7457386363636365 11.803385416666664  1.1268939393939394 11.666666666666664  1.590909090909091 12  L 16.953125 12  L 20.433238636363637 4.055989583333336  C 20.93039772727273 2.931857638888883  21.825284090909093 1.9748263888888828  23.117897727272727 1.184895833333336  C 24.410511363636367 0.39496527777777346  25.71969696969697 0  27.045454545454543 0  L 42.95454545454545 0  C 44.28030303030304 0  45.58948863636363 0.39496527777777346  46.88210227272727 1.184895833333336  C 48.174715909090914 1.9748263888888828  49.06960227272727 2.931857638888883  49.56676136363637 4.055989583333336  L 53.046875 12  L 68.4090909090909 12  C 68.87310606060606 11.666666666666664  69.25426136363636 11.803385416666664  69.55255681818183 12.076822916666664  Z " fill-rule="nonzero" fill="#000000" stroke="none" transform="matrix(1 0 0 1 41 44 )" />
  </g>
</svg>