<?xml version="1.0" encoding="utf-8"?>
<svg version="1.1" xmlns:xlink="http://www.w3.org/1999/xlink" width="26px" height="21px" xmlns="http://www.w3.org/2000/svg">
  <g transform="matrix(1 0 0 1 -236 -8 )">
    <path d="M 14.715478841870825 17.649338942307693  C 14.807164068299926 17.569411057692307  14.853006681514476 17.470552884615383  14.853006681514476 17.352764423076923  L 14.853006681514476 14.954927884615385  C 14.853006681514476 14.837139423076922  14.807164068299926 14.73828125  14.715478841870825 14.658353365384615  C 14.623793615441723 14.578425480769232  14.515219005196734 14.538461538461538  14.38975501113586 14.538461538461538  L 11.610244988864142 14.538461538461538  C 11.484780994803266 14.538461538461538  11.376206384558278 14.578425480769232  11.284521158129175 14.658353365384615  C 11.192835931700074 14.73828125  11.146993318485523 14.837139423076922  11.146993318485523 14.954927884615385  L 11.146993318485523 17.352764423076923  C 11.146993318485523 17.470552884615383  11.192835931700074 17.569411057692307  11.284521158129175 17.649338942307693  C 11.376206384558278 17.729266826923077  11.484780994803266 17.76923076923077  11.610244988864142 17.76923076923077  L 14.38975501113586 17.76923076923077  C 14.515219005196734 17.76923076923077  14.623793615441723 17.729266826923077  14.715478841870825 17.649338942307693  Z M 14.672048997772828 12.841045673076923  C 14.763734224201931 12.786358173076922  14.814402375649593 12.716947115384615  14.824053452115812 12.6328125  L 15.084632516703786 6.840144230769231  C 15.084632516703786 6.7391826923076925  15.03637713437268 6.659254807692306  14.939866369710469 6.600360576923077  C 14.814402375649594 6.507812499999998  14.69858945805494 6.461538461538462  14.592427616926503 6.461538461538462  L 11.407572383073497 6.461538461538462  C 11.301410541945065 6.461538461538462  11.18559762435041 6.507812499999998  11.060133630289531 6.600360576923077  C 10.963622865627322 6.659254807692306  10.915367483296214 6.747596153846151  10.915367483296214 6.865384615384614  L 11.161469933184854 12.6328125  C 11.161469933184854 12.716947115384615  11.209725315515962 12.786358173076922  11.306236080178174 12.841045673076923  C 11.402746844840387 12.89573317307692  11.518559762435041 12.923076923076923  11.653674832962137 12.923076923076923  L 14.33184855233853 12.923076923076923  C 14.466963622865627 12.923076923076923  14.580363771343727 12.89573317307692  14.672048997772828 12.841045673076923  Z M 13.940979955456571 0.2271634615384619  C 14.230512249443208 0.37860576923076905  14.457312546399407 0.5847355769230754  14.621380846325167 0.8455528846153857  L 25.739420935412024 18.614783653846153  C 26.077208611729773 19.14483173076923  26.06755753526355 19.674879807692307  25.71046770601336 20.204927884615387  C 25.546399406087602 20.448918269230766  25.32201187824796 20.642427884615387  25.03730512249443 20.78545673076923  C 24.75259836674091 20.928485576923077  24.446176688938387 21  24.118040089086858 21  L 1.8819599109131404 21  C 1.5538233110616184 21  1.2474016332590945 20.928485576923077  0.9626948775055679 20.78545673076923  C 0.6779881217520416 20.642427884615387  0.45360059391239793 20.448918269230766  0.289532293986637 20.204927884615387  C -0.06755753526354864 19.674879807692307  -0.07720861172976988 19.14483173076923  0.2605790645879733 18.614783653846153  L 11.378619153674833 0.8455528846153857  C 11.542687453600596 0.5847355769230754  11.769487750556795 0.37860576923076905  12.059020044543429 0.2271634615384619  C 12.348552338530068 0.07572115384615474  12.662212323682258 0  13 0  C 13.337787676317744 0  13.651447661469934 0.07572115384615474  13.940979955456571 0.2271634615384619  Z " fill-rule="nonzero" fill="#de7800" stroke="none" transform="matrix(1 0 0 1 236 8 )" />
  </g>
</svg>