<?xml version="1.0" encoding="utf-8"?>
<svg version="1.1" xmlns:xlink="http://www.w3.org/1999/xlink" width="62px" height="55px" xmlns="http://www.w3.org/2000/svg">
  <g transform="matrix(1 0 0 1 -28 -32 )">
    <path d="M 16.53333333333333 19.64285714285714  C 16.53333333333333 22.486979166666664  17.40520833333333 25.10602678571429  19.148958333333333 27.5  C 15.661458333333334 27.602306547619047  12.809027777777779 28.911830357142854  10.591666666666667 31.428571428571427  L 6.264583333333333 31.428571428571427  C 4.499305555555555 31.428571428571427  3.0138888888888893 31.01422991071429  1.8083333333333333 30.185546875  C 0.6027777777777776 29.35686383928571  0 28.14453125  0 26.54854910714286  C 0 19.32570684523809  1.334722222222222 15.714285714285714  4.004166666666667 15.714285714285714  C 4.133333333333333 15.714285714285714  4.6015625 15.929129464285714  5.408854166666666 16.35881696428571  C 6.216145833333334 16.78850446428571  7.265625 17.223307291666664  8.557291666666668 17.663225446428573  C 9.848958333333332 18.103143601190474  11.129861111111111 18.323102678571427  12.4 18.323102678571427  C 13.842361111111112 18.323102678571427  15.273958333333335 18.087797619047617  16.694791666666667 17.6171875  C 16.587152777777778 18.374255952380945  16.53333333333333 19.049479166666664  16.53333333333333 19.64285714285714  Z M 53.620312500000004 43.87416294642858  C 53.69565972222223 44.90745907738095  53.733333333333334 45.966331845238095  53.733333333333334 47.05078125  C 53.733333333333334 49.50613839285714  52.94756944444445 51.444847470238095  51.376041666666666 52.86690848214286  C 49.8045138888889 54.28896949404761  47.71631944444445 55  45.11145833333334 55  L 16.88854166666667 55  C 14.283680555555556 55  12.195486111111114 54.28896949404761  10.623958333333334 52.86690848214286  C 9.052430555555556 51.444847470238095  8.266666666666666 49.50613839285714  8.266666666666666 47.05078125  C 8.266666666666666 45.966331845238095  8.30434027777778 44.90745907738095  8.379687500000001 43.87416294642858  C 8.455034722222225 42.84086681547619  8.605729166666666 41.72572544642858  8.831770833333334 40.528738839285715  C 9.057812499999999 39.331752232142854  9.343055555555557 38.22172619047619  9.6875 37.198660714285715  C 10.031944444444445 36.175595238095234  10.494791666666668 35.17810639880952  11.076041666666667 34.20619419642858  C 11.657291666666666 33.23428199404761  12.324652777777779 32.40559895833333  13.078125 31.72014508928571  C 13.831597222222223 31.0346912202381  14.751909722222225 30.48735119047619  15.8390625 30.078125  C 16.926215277777782 29.668898809523803  18.12638888888889 29.46428571428571  19.43958333333333 29.46428571428571  C 19.654861111111114 29.46428571428571  20.117708333333333 29.684244791666664  20.828125 30.124162946428573  C 21.538541666666667 30.564081101190474  22.324305555555554 31.0551525297619  23.18541666666667 31.597377232142854  C 24.046527777777783 32.1396019345238  25.198263888888892 32.630673363095234  26.640625 33.070591517857146  C 28.08298611111111 33.51050967261905  29.53611111111111 33.73046875  31 33.73046875  C 32.46388888888889 33.73046875  33.91701388888889 33.51050967261905  35.359375 33.070591517857146  C 36.80173611111112 32.630673363095234  37.95347222222223 32.1396019345238  38.81458333333334 31.597377232142854  C 39.675694444444446 31.0551525297619  40.46145833333333 30.564081101190474  41.171875 30.124162946428573  C 41.88229166666667 29.684244791666664  42.34513888888889 29.46428571428571  42.56041666666666 29.46428571428571  C 43.87361111111112 29.46428571428571  45.07378472222223 29.668898809523803  46.160937499999996 30.078125  C 47.248090277777784 30.48735119047619  48.16840277777778 31.0346912202381  48.921875 31.72014508928571  C 49.67534722222223 32.40559895833333  50.342708333333334 33.23428199404761  50.92395833333334 34.20619419642858  C 51.50520833333333 35.17810639880952  51.968055555555566 36.175595238095234  52.3125 37.198660714285715  C 52.65694444444445 38.22172619047619  52.942187499999996 39.331752232142854  53.16822916666666 40.528738839285715  C 53.39427083333334 41.72572544642858  53.544965277777784 42.84086681547619  53.620312500000004 43.87416294642858  Z M 18.244791666666664 2.301897321428573  C 19.859375 3.8364955357142865  20.666666666666664 5.688244047619043  20.666666666666664 7.857142857142859  C 20.666666666666664 10.026041666666664  19.859375 11.877790178571427  18.244791666666664 13.41238839285714  C 16.630208333333336 14.94698660714286  14.681944444444445 15.714285714285714  12.4 15.714285714285714  C 10.118055555555557 15.714285714285714  8.169791666666667 14.94698660714286  6.555208333333333 13.41238839285714  C 4.940625 11.877790178571427  4.133333333333333 10.026041666666664  4.133333333333333 7.857142857142859  C 4.133333333333333 5.688244047619043  4.940625 3.8364955357142865  6.555208333333333 2.301897321428573  C 8.169791666666667 0.7672991071428598  10.118055555555557 0  12.4 0  C 14.681944444444445 0  16.630208333333336 0.7672991071428598  18.244791666666664 2.301897321428573  Z M 39.7671875 11.309988839285714  C 42.1890625 13.611886160714286  43.4 16.389508928571427  43.4 19.64285714285714  C 43.4 22.89620535714286  42.1890625 25.673828125  39.7671875 27.975725446428573  C 37.3453125 30.277622767857146  34.422916666666666 31.428571428571427  31 31.428571428571427  C 27.577083333333338 31.428571428571427  24.6546875 30.277622767857146  22.232812499999998 27.975725446428573  C 19.810937499999998 25.673828125  18.599999999999998 22.89620535714286  18.599999999999998 19.64285714285714  C 18.599999999999998 16.389508928571427  19.810937499999998 13.611886160714286  22.232812499999998 11.309988839285714  C 24.6546875 9.00809151785714  27.577083333333338 7.857142857142859  31 7.857142857142859  C 34.422916666666666 7.857142857142859  37.3453125 9.00809151785714  39.7671875 11.309988839285714  Z M 57.99583333333334 15.714285714285714  C 60.66527777777779 15.714285714285714  62.000000000000014 19.32570684523809  62 26.54854910714286  C 62.000000000000014 28.14453125  61.397222222222226 29.35686383928571  60.19166666666666 30.185546875  C 58.986111111111114 31.01422991071429  57.50069444444445 31.428571428571427  55.735416666666666 31.428571428571427  L 51.40833333333334 31.428571428571427  C 49.19097222222223 28.911830357142854  46.33854166666667 27.602306547619047  42.85104166666667 27.5  C 44.594791666666666 25.10602678571429  45.46666666666666 22.486979166666664  45.46666666666666 19.64285714285714  C 45.46666666666666 19.049479166666664  45.412847222222226 18.374255952380945  45.30520833333333 17.6171875  C 46.72604166666667 18.087797619047617  48.15763888888889 18.323102678571427  49.6 18.323102678571427  C 50.87013888888889 18.323102678571427  52.15104166666667 18.103143601190474  53.44270833333333 17.663225446428573  C 54.734375 17.223307291666664  55.78385416666667 16.78850446428571  56.59114583333333 16.35881696428571  C 57.3984375 15.929129464285714  57.86666666666667 15.714285714285714  57.99583333333334 15.714285714285714  Z M 55.44479166666667 2.301897321428573  C 57.059374999999996 3.8364955357142865  57.86666666666667 5.688244047619043  57.86666666666667 7.857142857142859  C 57.86666666666667 10.026041666666664  57.059374999999996 11.877790178571427  55.44479166666667 13.41238839285714  C 53.83020833333334 14.94698660714286  51.88194444444444 15.714285714285714  49.6 15.714285714285714  C 47.31805555555556 15.714285714285714  45.36979166666667 14.94698660714286  43.75520833333333 13.41238839285714  C 42.140625 11.877790178571427  41.33333333333333 10.026041666666664  41.33333333333333 7.857142857142859  C 41.33333333333333 5.688244047619043  42.140625 3.8364955357142865  43.75520833333333 2.301897321428573  C 45.36979166666667 0.7672991071428598  47.31805555555556 0  49.6 0  C 51.88194444444444 0  53.83020833333334 0.7672991071428598  55.44479166666667 2.301897321428573  Z " fill-rule="nonzero" fill="#000000" stroke="none" transform="matrix(1 0 0 1 28 32 )" />
  </g>
</svg>