<?xml version="1.0" encoding="utf-8"?>
<svg version="1.1" xmlns:xlink="http://www.w3.org/1999/xlink" width="54px" height="52px" xmlns="http://www.w3.org/2000/svg">
  <g transform="matrix(1 0 0 1 -33 -27 )">
    <path d="M 53.64140625 37.59505208333333  C 53.88046875 39.299045138888886  54 41.11024305555556  54 43.028645833333336  C 54 45.48871527777778  53.12109375 47.598958333333336  51.36328125 49.359375  C 49.60546875000001 51.119791666666664  47.4890625 52  45.0140625 52  L 8.9859375 52  C 6.5109375 52  4.394531250000001 51.119791666666664  2.6367187500000004 49.359375  C 0.8789062500000002 47.598958333333336  0 45.48871527777778  0 43.028645833333336  C 0 41.11024305555556  0.11953125000000028 39.299045138888886  0.3585937500000003 37.59505208333333  C 0.5976562500000003 35.89105902777777  1.0406250000000001 34.17578125  1.6875000000000004 32.44921875  C 2.3343750000000005 30.72265625  3.15703125 29.24435763888889  4.15546875 28.01432291666667  C 5.15390625 26.78428819444444  6.47578125 25.779947916666664  8.12109375 25.001302083333336  C 9.76640625 24.22265625  11.657812500000002 23.833333333333336  13.795312500000001 23.833333333333336  C 17.4796875 26.72222222222222  21.88125 28.16666666666667  27 28.16666666666667  C 32.118750000000006 28.16666666666667  36.5203125 26.72222222222222  40.2046875 23.833333333333336  C 42.3421875 23.833333333333336  44.23359375 24.22265625  45.87890625 25.001302083333336  C 47.52421875 25.779947916666664  48.84609375000001 26.78428819444444  49.84453125 28.01432291666667  C 50.842968750000004 29.24435763888889  51.665625 30.72265625  52.3125 32.44921875  C 52.95937500000001 34.17578125  53.40234375000001 35.89105902777777  53.64140625 37.59505208333333  Z M 38.45390625 3.80859375  C 41.61796875 6.34765625  43.2 9.411458333333336  43.2 13  C 43.2 16.588541666666664  41.61796875 19.65234375  38.45390625 22.19140625  C 35.28984375 24.73046875  31.471874999999997 26  27 26  C 22.528125 26  18.71015625 24.73046875  15.54609375 22.19140625  C 12.38203125 19.65234375  10.8 16.588541666666664  10.8 13  C 10.8 9.411458333333336  12.38203125 6.34765625  15.54609375 3.80859375  C 18.71015625 1.26953125  22.528125 0  27 0  C 31.471874999999997 0  35.28984375 1.26953125  38.45390625 3.80859375  Z " fill-rule="nonzero" fill="#000000" stroke="none" transform="matrix(1 0 0 1 33 27 )" />
  </g>
</svg>