<?xml version="1.0" encoding="utf-8"?>
<svg version="1.1" xmlns:xlink="http://www.w3.org/1999/xlink" width="25px" height="26px" xmlns="http://www.w3.org/2000/svg">
  <g transform="matrix(1 0 0 1 -99 -9 )">
    <path d="M 16.243489583333336 16.622395833333336  C 17.241753472222225 15.65190972222222  18.424479166666664 15.166666666666664  19.791666666666664 15.166666666666664  C 21.23480902777778 15.166666666666664  22.463650173611114 15.694227430555555  23.478190104166664 16.749348958333336  C 24.49273003472222 17.80447048611111  25 19.082465277777775  25 20.583333333333332  C 25 22.08420138888889  24.49273003472222 23.362196180555557  23.478190104166664 24.417317708333332  C 22.463650173611114 25.47243923611111  21.23480902777778 26  19.791666666666664 26  C 18.348524305555557 26  17.119683159722225 25.47243923611111  16.105143229166664 24.417317708333332  C 15.090603298611112 23.362196180555557  14.583333333333334 22.08420138888889  14.583333333333334 20.583333333333332  C 14.583333333333334 20.447916666666668  14.594184027777779 20.256076388888886  14.615885416666666 20.0078125  L 8.756510416666668 16.9609375  C 7.758246527777778 17.93142361111111  6.575520833333333 18.416666666666664  5.208333333333334 18.416666666666664  C 3.7651909722222223 18.416666666666664  2.5363498263888893 17.889105902777775  1.5218098958333335 16.833984375  C 0.5072699652777777 15.77886284722222  0 14.500868055555555  0 13  C 0 11.499131944444443  0.5072699652777777 10.221137152777777  1.5218098958333335 9.166015625  C 2.5363498263888893 8.11089409722222  3.7651909722222223 7.583333333333332  5.208333333333334 7.583333333333332  C 6.575520833333333 7.583333333333332  7.758246527777778 8.068576388888888  8.756510416666668 9.0390625  L 14.615885416666666 5.9921875  C 14.594184027777779 5.74392361111111  14.583333333333334 5.552083333333332  14.583333333333334 5.416666666666668  C 14.583333333333334 3.91579861111111  15.090603298611112 2.637803819444442  16.105143229166664 1.5826822916666676  C 17.119683159722225 0.5275607638888873  18.348524305555557 0  19.791666666666664 0  C 21.23480902777778 0  22.463650173611114 0.5275607638888873  23.478190104166664 1.5826822916666676  C 24.49273003472222 2.637803819444442  25 3.91579861111111  25 5.416666666666668  C 25 6.91753472222222  24.49273003472222 8.195529513888888  23.478190104166664 9.250651041666668  C 22.463650173611114 10.305772569444445  21.23480902777778 10.833333333333332  19.791666666666664 10.833333333333332  C 18.424479166666664 10.833333333333332  17.241753472222225 10.348090277777777  16.243489583333336 9.377604166666668  L 10.384114583333332 12.424479166666668  C 10.405815972222223 12.672743055555555  10.416666666666668 12.864583333333332  10.416666666666668 13  C 10.416666666666668 13.135416666666664  10.405815972222223 13.327256944444445  10.384114583333332 13.575520833333336  L 16.243489583333336 16.622395833333336  Z " fill-rule="nonzero" fill="#ffffff" stroke="none" transform="matrix(1 0 0 1 99 9 )" />
  </g>
</svg>