<?xml version="1.0" encoding="utf-8"?>
<svg version="1.1" xmlns:xlink="http://www.w3.org/1999/xlink" width="41px" height="38px" xmlns="http://www.w3.org/2000/svg">
  <defs>
    <mask fill="white" id="clip69">
      <path d="M 21.506696428571427 37.5546875  C 21.232142857142858 37.8515625  20.896577380952383 38  20.5 38  C 20.10342261904762 38  19.767857142857146 37.8515625  19.49330357142857 37.5546875  L 5.216517857142857 22.661458333333336  C 5.063988095238096 22.52951388888889  4.854259672619048 22.315104166666664  4.587332589285714 22.018229166666664  C 4.320405505952381 21.721354166666664  3.897135416666667 21.181206597222225  3.3175223214285716 20.397786458333336  C 2.7379092261904763 19.61436631944444  2.2193080357142856 18.810329861111107  1.76171875 17.985677083333332  C 1.3041294642857142 17.161024305555557  0.8961123511904763 16.163194444444443  0.5376674107142857 14.9921875  C 0.17922247023809523 13.821180555555552  0 12.68315972222222  0 11.578125  C 0 7.949652777777776  0.9685639880952379 5.11284722222222  2.9056919642857144 3.067708333333332  C 4.842819940476191 1.022569444444444  7.519717261904761 0  10.936383928571429 0  C 11.882068452380953 0  12.846819196428571 0.17730034722221988  13.830636160714286 0.5319010416666681  C 14.814453125 0.8865017361111078  15.729631696428571 1.3648003472222199  16.576171875 1.966796875  C 17.42271205357143 2.568793402777776  18.15104166666667 3.133680555555552  18.761160714285715 3.661458333333332  C 19.371279761904763 4.189236111111108  19.950892857142858 4.75  20.5 5.34375  C 21.049107142857142 4.75  21.62872023809524 4.189236111111108  22.238839285714285 3.661458333333332  C 22.848958333333336 3.133680555555552  23.577287946428573 2.568793402777776  24.423828125 1.966796875  C 25.270368303571427 1.3648003472222199  26.185546875 0.8865017361111078  27.169363839285715 0.5319010416666681  C 28.153180803571427 0.17730034722221988  29.11793154761905 0  30.063616071428573 0  C 33.48028273809524 0  36.15718005952381 1.022569444444444  38.094308035714285 3.067708333333332  C 40.031436011904766 5.11284722222222  41 7.949652777777776  41 11.578125  C 41 15.223090277777775  39.253534226190474 18.934027777777775  35.76060267857143 22.7109375  L 21.506696428571427 37.5546875  Z " fill-rule="evenodd" />
    </mask>
  </defs>
  <g transform="matrix(1 0 0 1 -10 -14 )">
    <path d="M 21.506696428571427 37.5546875  C 21.232142857142858 37.8515625  20.896577380952383 38  20.5 38  C 20.10342261904762 38  19.767857142857146 37.8515625  19.49330357142857 37.5546875  L 5.216517857142857 22.661458333333336  C 5.063988095238096 22.52951388888889  4.854259672619048 22.315104166666664  4.587332589285714 22.018229166666664  C 4.320405505952381 21.721354166666664  3.897135416666667 21.181206597222225  3.3175223214285716 20.397786458333336  C 2.7379092261904763 19.61436631944444  2.2193080357142856 18.810329861111107  1.76171875 17.985677083333332  C 1.3041294642857142 17.161024305555557  0.8961123511904763 16.163194444444443  0.5376674107142857 14.9921875  C 0.17922247023809523 13.821180555555552  0 12.68315972222222  0 11.578125  C 0 7.949652777777776  0.9685639880952379 5.11284722222222  2.9056919642857144 3.067708333333332  C 4.842819940476191 1.022569444444444  7.519717261904761 0  10.936383928571429 0  C 11.882068452380953 0  12.846819196428571 0.17730034722221988  13.830636160714286 0.5319010416666681  C 14.814453125 0.8865017361111078  15.729631696428571 1.3648003472222199  16.576171875 1.966796875  C 17.42271205357143 2.568793402777776  18.15104166666667 3.133680555555552  18.761160714285715 3.661458333333332  C 19.371279761904763 4.189236111111108  19.950892857142858 4.75  20.5 5.34375  C 21.049107142857142 4.75  21.62872023809524 4.189236111111108  22.238839285714285 3.661458333333332  C 22.848958333333336 3.133680555555552  23.577287946428573 2.568793402777776  24.423828125 1.966796875  C 25.270368303571427 1.3648003472222199  26.185546875 0.8865017361111078  27.169363839285715 0.5319010416666681  C 28.153180803571427 0.17730034722221988  29.11793154761905 0  30.063616071428573 0  C 33.48028273809524 0  36.15718005952381 1.022569444444444  38.094308035714285 3.067708333333332  C 40.031436011904766 5.11284722222222  41 7.949652777777776  41 11.578125  C 41 15.223090277777775  39.253534226190474 18.934027777777775  35.76060267857143 22.7109375  L 21.506696428571427 37.5546875  Z " fill-rule="nonzero" fill="#d9001b" stroke="none" transform="matrix(1 0 0 1 10 14 )" />
    <path d="M 21.506696428571427 37.5546875  C 21.232142857142858 37.8515625  20.896577380952383 38  20.5 38  C 20.10342261904762 38  19.767857142857146 37.8515625  19.49330357142857 37.5546875  L 5.216517857142857 22.661458333333336  C 5.063988095238096 22.52951388888889  4.854259672619048 22.315104166666664  4.587332589285714 22.018229166666664  C 4.320405505952381 21.721354166666664  3.897135416666667 21.181206597222225  3.3175223214285716 20.397786458333336  C 2.7379092261904763 19.61436631944444  2.2193080357142856 18.810329861111107  1.76171875 17.985677083333332  C 1.3041294642857142 17.161024305555557  0.8961123511904763 16.163194444444443  0.5376674107142857 14.9921875  C 0.17922247023809523 13.821180555555552  0 12.68315972222222  0 11.578125  C 0 7.949652777777776  0.9685639880952379 5.11284722222222  2.9056919642857144 3.067708333333332  C 4.842819940476191 1.022569444444444  7.519717261904761 0  10.936383928571429 0  C 11.882068452380953 0  12.846819196428571 0.17730034722221988  13.830636160714286 0.5319010416666681  C 14.814453125 0.8865017361111078  15.729631696428571 1.3648003472222199  16.576171875 1.966796875  C 17.42271205357143 2.568793402777776  18.15104166666667 3.133680555555552  18.761160714285715 3.661458333333332  C 19.371279761904763 4.189236111111108  19.950892857142858 4.75  20.5 5.34375  C 21.049107142857142 4.75  21.62872023809524 4.189236111111108  22.238839285714285 3.661458333333332  C 22.848958333333336 3.133680555555552  23.577287946428573 2.568793402777776  24.423828125 1.966796875  C 25.270368303571427 1.3648003472222199  26.185546875 0.8865017361111078  27.169363839285715 0.5319010416666681  C 28.153180803571427 0.17730034722221988  29.11793154761905 0  30.063616071428573 0  C 33.48028273809524 0  36.15718005952381 1.022569444444444  38.094308035714285 3.067708333333332  C 40.031436011904766 5.11284722222222  41 7.949652777777776  41 11.578125  C 41 15.223090277777775  39.253534226190474 18.934027777777775  35.76060267857143 22.7109375  L 21.506696428571427 37.5546875  Z " stroke-width="6" stroke="#000000" fill="none" transform="matrix(1 0 0 1 10 14 )" mask="url(#clip69)" />
  </g>
</svg>