<?xml version="1.0" encoding="utf-8"?>
<svg version="1.1" xmlns:xlink="http://www.w3.org/1999/xlink" width="28px" height="27px" xmlns="http://www.w3.org/2000/svg">
  <g transform="matrix(1 0 0 1 -14 -6 )">
    <path d="M 27.335044929396663 12.619565217391303  C 27.778348309798893 13.096467391304348  28.000000000000007 13.652853260869563  28 14.288722826086957  C 28.000000000000007 14.912364130434783  27.778348309798893 15.462635869565217  27.335044929396663 15.93953804347826  L 25.987163029525032 17.315217391304348  C 25.531878476679505 17.77989130434782  24.986735130509203 18.012228260869566  24.35173299101412 18.012228260869566  C 23.704749679075736 18.012228260869566  23.165596919127086 17.77989130434782  22.734274711168162 17.315217391304348  L 17 11.940896739130434  L 17 24.853940217391305  C 17.45057766367137 25.4898097826087  17.225930680359436 26.006453804347824  16.77663671373556 26.403872282608695  C 16.32734274711168 26.801290760869566  15.785194694052205 27  15.150192554557126 27  L 12.849807445442874 27  C 12.214805305947799 27  11.672657252888317 26.801290760869566  11.223363286264442 26.403872282608695  C 10.774069319640564 26.006453804347824  10.549422336328625 25.4898097826087  11 24.853940217391305  L 11 11.940896739130434  L 5.2657252888318355 17.315217391304348  C 4.834403080872914 17.77989130434782  4.295250320924262 18.012228260869566  3.6482670089858793 18.012228260869566  C 3.001283697047497 18.012228260869566  2.4621309370988445 17.77989130434782  2.030808729139923 17.315217391304348  L 0.6829268292682927 15.93953804347826  C 0.2276422764227643 15.474864130434781  0 14.924592391304348  0 14.288722826086957  C 0 13.640624999999998  0.2276422764227643 13.084239130434781  0.6829268292682927 12.619565217391303  L 12.382541720154045 0.67866847826087  C 12.801882755669665 0.22622282608695565  13.341035515618316 0  14 0  C 14.646983311938381 0  15.192126658108688 0.22622282608695565  15.635430038510911 0.67866847826087  L 27.335044929396663 12.619565217391303  Z " fill-rule="nonzero" fill="#000000" stroke="none" transform="matrix(1 0 0 1 14 6 )" />
  </g>
</svg>