<?xml version="1.0" encoding="utf-8"?>
<svg version="1.1" xmlns:xlink="http://www.w3.org/1999/xlink" width="23px" height="28px" xmlns="http://www.w3.org/2000/svg">
  <g transform="matrix(1 0 0 1 -4 -5 )">
    <path d="M 16.920572916666668 16.37890625  C 17.040364583333332 16.664496527777775  17.060329861111114 16.959201388888886  16.98046875 17.263020833333332  C 16.611111111111114 18.733506944444443  15.92230902777778 19.918402777777775  14.9140625 20.817708333333332  C 13.905815972222225 21.717013888888886  12.76779513888889 22.166666666666664  11.5 22.166666666666664  C 10.232204861111112 22.166666666666664  9.094184027777779 21.717013888888886  8.0859375 20.817708333333332  C 7.077690972222223 19.918402777777775  6.388888888888889 18.733506944444443  6.01953125 17.263020833333332  C 5.939670138888889 16.959201388888886  5.959635416666666 16.664496527777775  6.079427083333334 16.37890625  C 6.19921875 16.093315972222218  6.388888888888889 15.901909722222218  6.6484375 15.8046875  C 6.898003472222223 15.707465277777775  7.140082465277779 15.731770833333332  7.374674479166666 15.877604166666668  C 7.609266493055557 16.0234375  7.766493055555557 16.254340277777775  7.846354166666666 16.5703125  C 8.095920138888891 17.542534722222218  8.5576171875 18.329427083333332  9.2314453125 18.930989583333332  C 9.9052734375 19.532552083333332  10.661458333333334 19.833333333333332  11.5 19.833333333333332  C 12.338541666666668 19.833333333333332  13.094726562500002 19.532552083333332  13.7685546875 18.930989583333332  C 14.442382812500002 18.329427083333332  14.904079861111114 17.542534722222218  15.153645833333332 16.5703125  C 15.233506944444446 16.254340277777775  15.393229166666668 16.0234375  15.6328125 15.877604166666668  C 15.872395833333332 15.731770833333332  16.116970486111114 15.707465277777775  16.366536458333332 15.8046875  C 16.616102430555557 15.901909722222218  16.80078125 16.093315972222218  16.920572916666668 16.37890625  Z M 9.021809895833334 7.68359375  C 9.396158854166666 8.139322916666666  9.583333333333334 8.689236111111109  9.583333333333334 9.333333333333334  C 9.583333333333334 9.977430555555554  9.396158854166666 10.527343749999996  9.021809895833334 10.983072916666666  C 8.6474609375 11.438802083333334  8.195746527777779 11.666666666666666  7.666666666666666 11.666666666666666  C 7.137586805555557 11.666666666666666  6.685872395833334 11.438802083333334  6.3115234375 10.983072916666666  C 5.937174479166666 10.527343749999996  5.75 9.977430555555554  5.75 9.333333333333334  C 5.75 8.689236111111109  5.937174479166666 8.139322916666666  6.3115234375 7.68359375  C 6.685872395833334 7.227864583333334  7.137586805555557 7  7.666666666666666 7  C 8.195746527777779 7  8.6474609375 7.227864583333334  9.021809895833334 7.68359375  Z M 16.6884765625 7.68359375  C 17.062825520833332 8.139322916666666  17.25 8.689236111111109  17.25 9.333333333333334  C 17.25 9.977430555555554  17.062825520833332 10.527343749999996  16.6884765625 10.983072916666666  C 16.314127604166668 11.438802083333334  15.862413194444446 11.666666666666666  15.333333333333332 11.666666666666666  C 14.804253472222225 11.666666666666666  14.3525390625 11.438802083333334  13.978190104166668 10.983072916666666  C 13.603841145833332 10.527343749999996  13.416666666666668 9.977430555555554  13.416666666666668 9.333333333333334  C 13.416666666666668 8.689236111111109  13.603841145833332 8.139322916666666  13.978190104166668 7.68359375  C 14.3525390625 7.227864583333334  14.804253472222225 7  15.333333333333332 7  C 15.862413194444446 7  16.314127604166668 7.227864583333334  16.6884765625 7.68359375  Z M 20.319661458333332 18.529947916666668  C 20.828776041666668 17.08984375  21.083333333333332 15.579861111111112  21.083333333333332 14  C 21.083333333333332 12.420138888888888  20.828776041666668 10.91015625  20.319661458333332 9.470052083333334  C 19.810546875 8.029947916666666  19.129231770833332 6.790364583333334  18.275716145833332 5.751302083333334  C 17.422200520833332 4.712239583333334  16.403971354166668 3.8828125  15.221028645833332 3.2630208333333344  C 14.0380859375 2.6432291666666656  12.797743055555557 2.3333333333333344  11.5 2.3333333333333344  C 10.202256944444445 2.3333333333333344  8.9619140625 2.6432291666666656  7.778971354166666 3.2630208333333344  C 6.596028645833334 3.8828125  5.577799479166667 4.712239583333334  4.724283854166667 5.751302083333334  C 3.870768229166667 6.790364583333334  3.189453125 8.029947916666666  2.6803385416666665 9.470052083333334  C 2.1712239583333335 10.91015625  1.9166666666666665 12.420138888888888  1.9166666666666665 14  C 1.9166666666666665 15.579861111111112  2.1712239583333335 17.08984375  2.6803385416666665 18.529947916666668  C 3.189453125 19.970052083333332  3.870768229166667 21.209635416666664  4.724283854166667 22.248697916666664  C 5.577799479166667 23.287760416666664  6.596028645833334 24.1171875  7.778971354166666 24.736979166666664  C 8.9619140625 25.356770833333336  10.202256944444445 25.666666666666664  11.5 25.666666666666664  C 12.797743055555557 25.666666666666664  14.0380859375 25.356770833333336  15.221028645833332 24.736979166666664  C 16.403971354166668 24.1171875  17.422200520833332 23.287760416666664  18.275716145833332 22.248697916666664  C 19.129231770833332 21.209635416666664  19.810546875 19.970052083333332  20.319661458333332 18.529947916666668  Z M 21.457682291666668 6.97265625  C 22.485894097222218 9.117621527777775  23 11.460069444444441  23 14  C 23 16.539930555555557  22.485894097222218 18.882378472222218  21.457682291666668 21.02734375  C 20.429470486111114 23.17230902777778  19.03439670138889 24.87065972222222  17.2724609375 26.122395833333336  C 15.510525173611114 27.374131944444446  13.586371527777779 28  11.5 28  C 9.413628472222223 28  7.489474826388889 27.374131944444446  5.7275390625 26.122395833333336  C 3.9656032986111116 24.87065972222222  2.5705295138888893 23.17230902777778  1.5423177083333335 21.02734375  C 0.5141059027777777 18.882378472222218  0 16.539930555555557  0 14  C 0 11.460069444444441  0.5141059027777777 9.117621527777775  1.5423177083333335 6.97265625  C 2.5705295138888893 4.827690972222221  3.9656032986111116 3.129340277777775  5.7275390625 1.8776041666666656  C 7.489474826388889 0.6258680555555531  9.413628472222223 0  11.5 0  C 13.586371527777779 0  15.510525173611114 0.6258680555555531  17.2724609375 1.8776041666666656  C 19.03439670138889 3.129340277777775  20.429470486111114 4.827690972222221  21.457682291666668 6.97265625  Z " fill-rule="nonzero" fill="#000000" stroke="none" transform="matrix(1 0 0 1 4 5 )" />
  </g>
</svg>