<?xml version="1.0" encoding="utf-8"?>
<svg version="1.1" xmlns:xlink="http://www.w3.org/1999/xlink" width="50px" height="50px" xmlns="http://www.w3.org/2000/svg">
  <g transform="matrix(1 0 0 1 -91 -751 )">
    <path d="M 116 752  C 129.44 752  140 762.56  140 776  C 140 789.44  129.44 800  116 800  C 102.56 800  92 789.44  92 776  C 92 762.56  102.56 752  116 752  Z " fill-rule="nonzero" fill="#ffffff" stroke="none" fill-opacity="0" />
    <path d="M 116 752  C 129.44 752  140 762.56  140 776  C 140 789.44  129.44 800  116 800  C 102.56 800  92 789.44  92 776  C 92 762.56  102.56 752  116 752  Z " stroke-width="2" stroke="#000000" fill="none" />
  </g>
</svg>