<?xml version="1.0" encoding="utf-8"?>
<svg version="1.1" xmlns:xlink="http://www.w3.org/1999/xlink" width="46px" height="31px" xmlns="http://www.w3.org/2000/svg">
  <g transform="matrix(1 0 0 1 -5 -4 )">
    <path d="M 45.512276785714285 10.288125  C 45.837425595238095 10.533541666666665  46 10.824166666666665  46 11.16  C 46 11.49583333333333  45.837425595238095 11.78645833333333  45.512276785714285 12.031875000000001  L 32.36941964285714 21.951875  C 32.044270833333336 22.197291666666665  31.659226190476193 22.32  31.214285714285715 22.32  C 30.769345238095237 22.32  30.384300595238095 22.197291666666665  30.059151785714285 21.951875  C 29.73400297619048 21.706458333333334  29.571428571428573 21.41583333333333  29.571428571428573 21.08  L 29.571428571428573 16.12  L 23.821428571428573 16.12  C 22.14434523809524 16.12  20.642671130952383 16.15875  19.31640625 16.23625  C 17.99014136904762 16.31375  16.67243303571429 16.452604166666667  15.36328125 16.652812499999996  C 14.054129464285714 16.853020833333332  12.916108630952383 17.1275  11.94921875 17.47625  C 10.98232886904762 17.825  10.079613095238095 18.273854166666666  9.241071428571429 18.8228125  C 8.402529761904763 19.37177083333333  7.718005952380953 20.024062500000003  7.1875 20.779687499999998  C 6.656994047619048 21.5353125  6.242001488095239 22.429791666666663  5.942522321428571 23.463124999999998  C 5.643043154761905 24.496458333333333  5.493303571428572 25.66541666666667  5.493303571428572 26.97  C 5.493303571428572 27.680416666666666  5.53608630952381 28.47479166666667  5.621651785714286 29.353125000000002  C 5.6216517857142865 29.430625  5.643043154761905 29.582395833333333  5.685825892857142 29.8084375  C 5.728608630952381 30.034479166666667  5.75 30.205625  5.75 30.321875000000002  C 5.75 30.515625  5.677269345238096 30.677083333333332  5.531808035714286 30.806250000000002  C 5.386346726190477 30.93541666666667  5.185267857142858 31  4.928571428571428 31  C 4.654761904761905 31  4.415178571428572 30.890208333333334  4.209821428571428 30.670625  C 4.090029761904762 30.554375  3.978794642857143 30.41229166666667  3.8761160714285716 30.244374999999998  C 3.7734375 30.076458333333335  3.657924107142857 29.88270833333333  3.529575892857143 29.663125  C 3.4012276785714284 29.44354166666667  3.3113839285714284 29.288541666666667  3.260044642857143 29.198125  C 1.0866815476190474 25.516875  0 22.60416666666666  0 20.459999999999997  C 0 17.88958333333333  0.4534970238095237 15.73895833333333  1.3604910714285714 14.008125000000001  C 4.1328125 8.802708333333333  11.619791666666664 6.199999999999998  23.821428571428573 6.199999999999998  L 29.571428571428573 6.199999999999998  L 29.571428571428573 1.240000000000001  C 29.571428571428573 0.9041666666666635  29.73400297619048 0.6135416666666628  30.059151785714285 0.36812499999999904  C 30.384300595238095 0.12270833333333186  30.769345238095237 0  31.214285714285715 0  C 31.659226190476193 0  32.044270833333336 0.12270833333333186  32.36941964285714 0.36812499999999904  L 45.512276785714285 10.288125  Z " fill-rule="nonzero" fill="#ffffff" stroke="none" fill-opacity="0.9921568627450981" transform="matrix(1 0 0 1 5 4 )" />
  </g>
</svg>