<?xml version="1.0" encoding="utf-8"?>
<svg version="1.1" xmlns:xlink="http://www.w3.org/1999/xlink" width="30px" height="19px" xmlns="http://www.w3.org/2000/svg">
  <g>
    <path d="M 22.27399553571429 14.884982638888888  C 24.511718750000004 13.549045138888888  26.372767857142858 11.754050925925922  27.857142857142858 9.5  C 26.160714285714285 6.905092592592593  24.034598214285715 4.964409722222222  21.478794642857142 3.677951388888888  C 22.159598214285715 4.821469907407405  22.5 6.0584490740740735  22.5 7.3888888888888875  C 22.5 9.423032407407405  21.766183035714285 11.163049768518517  20.298549107142858 12.608940972222221  C 18.83091517857143 14.054832175925922  17.064732142857142 14.777777777777779  15 14.777777777777779  C 12.93526785714286 14.777777777777779  11.169084821428573 14.054832175925922  9.701450892857144 12.608940972222221  C 8.233816964285715 11.163049768518517  7.5 9.423032407407405  7.5 7.3888888888888875  C 7.5 6.0584490740740735  7.8404017857142865 4.821469907407405  8.521205357142856 3.677951388888888  C 5.9654017857142865 4.964409722222222  3.839285714285715 6.905092592592593  2.142857142857143 9.5  C 3.6272321428571432 11.754050925925922  5.48828125 13.549045138888888  7.726004464285714 14.884982638888888  C 9.963727678571429 16.22092013888889  12.388392857142856 16.88888888888889  15 16.88888888888889  C 17.611607142857142 16.88888888888889  20.036272321428577 16.22092013888889  22.27399553571429 14.884982638888888  Z M 15.569196428571429 3.7274305555555562  C 15.72544642857143 3.5734953703703707  15.803571428571429 3.3865740740740735  15.803571428571429 3.166666666666666  C 15.803571428571429 2.9467592592592586  15.72544642857143 2.759837962962961  15.569196428571429 2.605902777777778  C 15.41294642857143 2.451967592592591  15.223214285714285 2.374999999999998  15 2.375  C 13.604910714285715 2.374999999999998  12.40792410714286 2.8670428240740735  11.409040178571429 3.851128472222222  C 10.410156250000002 4.83521412037037  9.910714285714285 6.014467592592593  9.910714285714285 7.3888888888888875  C 9.910714285714285 7.608796296296295  9.988839285714288 7.795717592592593  10.145089285714285 7.949652777777778  C 10.301339285714286 8.103587962962962  10.491071428571429 8.180555555555555  10.714285714285715 8.180555555555555  C 10.937500000000002 8.180555555555555  11.127232142857144 8.103587962962962  11.283482142857144 7.949652777777778  C 11.439732142857142 7.795717592592593  11.517857142857144 7.608796296296295  11.517857142857144 7.3888888888888875  C 11.517857142857144 6.443287037037036  11.858258928571429 5.635127314814815  12.5390625 4.964409722222222  C 13.219866071428573 4.29369212962963  14.040178571428573 3.958333333333332  15 3.958333333333334  C 15.223214285714285 3.958333333333332  15.41294642857143 3.881365740740739  15.569196428571429 3.7274305555555562  Z M 29.66517857142857 8.361979166666666  C 29.888392857142858 8.74681712962963  30 9.126157407407405  30 9.5  C 30 9.87384259259259  29.888392857142858 10.25318287037037  29.66517857142857 10.638020833333332  C 28.102678571428577 13.166956018518517  26.001674107142865 15.192853009259261  23.36216517857143 16.715711805555557  C 20.72265625 18.23857060185185  17.935267857142858 19  15 19  C 12.064732142857144 19  9.27734375 18.23582175925926  6.637834821428572 16.70746527777778  C 3.9983258928571432 15.179108796296296  1.8973214285714288 13.155960648148147  0.3348214285714286 10.638020833333332  C 0.11160714285714285 10.25318287037037  0 9.87384259259259  0 9.5  C 0 9.126157407407405  0.11160714285714285 8.74681712962963  0.3348214285714286 8.361979166666666  C 1.8973214285714288 5.844039351851851  3.9983258928571432 3.8208912037037024  6.637834821428572 2.292534722222222  C 9.27734375 0.7641782407407393  12.064732142857144 0  15 0  C 17.935267857142858 0  20.72265625 0.7641782407407393  23.36216517857143 2.292534722222222  C 26.001674107142865 3.8208912037037024  28.102678571428577 5.844039351851851  29.66517857142857 8.361979166666666  Z " fill-rule="nonzero" fill="#000000" stroke="none" />
  </g>
</svg>