<?xml version="1.0" encoding="utf-8"?>
<svg version="1.1" xmlns:xlink="http://www.w3.org/1999/xlink" width="30px" height="19px" xmlns="http://www.w3.org/2000/svg">
  <g>
    <path d="M 2.142857142857143 9.5  C 4.006696428571429 11.931547619047619  6.389508928571429 13.698660714285714  9.291294642857144 14.801339285714286  L 10.597098214285715 12.808035714285714  C 9.626116071428571 12.214285714285714  8.8671875 11.465029761904763  8.3203125 10.560267857142856  C 7.773437500000001 9.655505952380953  7.5 8.69890873015873  7.5 7.690476190476191  C 7.5 6.5500992063492065  7.8404017857142865 5.489831349206348  8.521205357142856 4.509672619047619  C 5.9654017857142865 5.612351190476191  3.839285714285715 7.27579365079365  2.142857142857143 9.5  Z M 15.569196428571429 4.552083333333334  C 15.72544642857143 4.420138888888886  15.803571428571429 4.259920634920634  15.803571428571429 4.071428571428572  C 15.803571428571429 3.882936507936507  15.72544642857143 3.7227182539682535  15.569196428571429 3.5907738095238093  C 15.41294642857143 3.4588293650793633  15.223214285714285 3.3928571428571432  15 3.3928571428571432  C 13.604910714285715 3.3928571428571432  12.40792410714286 3.8146081349206344  11.409040178571429 4.658110119047619  C 10.410156250000002 5.501612103174603  9.910714285714285 6.5124007936507935  9.910714285714285 7.690476190476191  C 9.910714285714285 7.878968253968253  9.988839285714288 8.039186507936506  10.145089285714285 8.171130952380953  C 10.301339285714286 8.303075396825395  10.491071428571429 8.369047619047619  10.714285714285715 8.369047619047619  C 10.937500000000002 8.369047619047619  11.127232142857144 8.303075396825395  11.283482142857144 8.171130952380953  C 11.439732142857142 8.039186507936506  11.517857142857144 7.878968253968253  11.517857142857144 7.690476190476191  C 11.517857142857144 6.879960317460316  11.858258928571429 6.187251984126984  12.5390625 5.612351190476191  C 13.219866071428573 5.0374503968253945  14.040178571428573 4.749999999999998  15 4.75  C 15.223214285714285 4.749999999999998  15.41294642857143 4.684027777777776  15.569196428571429 4.552083333333334  Z M 21.61272321428571 0.989583333333334  C 21.791294642857146 1.0838293650793633  21.880580357142858 1.2110615079365068  21.880580357142858 1.3712797619047623  C 21.880580357142858 1.4372519841269822  21.875000000000004 1.4796626984126953  21.86383928571429 1.4985119047619058  C 20.680803571428577 3.279761904761906  18.91741071428571 5.951636904761906  16.57366071428571 9.514136904761905  C 14.229910714285715 13.076636904761905  12.472098214285715 15.743799603174605  11.300223214285715 17.515625  L 10.479910714285715 18.773809523809526  C 10.368303571428573 18.924603174603174  10.212053571428571 19  10.011160714285715 19  C 9.877232142857144 19  9.129464285714286 18.67013888888889  7.767857142857143 18.010416666666664  C 7.589285714285715 17.916170634920636  7.5 17.78422619047619  7.5 17.614583333333336  C 7.5 17.501488095238095  7.745535714285715 17.091517857142858  8.236607142857144 16.38467261904762  C 6.640625000000001 15.772073412698413  5.170200892857144 14.956845238095237  3.8253348214285716 13.938988095238095  C 2.48046875 12.921130952380953  1.316964285714286 11.766617063492063  0.3348214285714286 10.475446428571429  C 0.11160714285714285 10.18328373015873  0 9.85813492063492  0 9.5  C 0 9.141865079365079  0.11160714285714285 8.816716269841269  0.3348214285714286 8.524553571428571  C 2.0424107142857144 6.309771825396825  4.162946428571429 4.561507936507935  6.696428571428572 3.279761904761906  C 9.229910714285715 1.9980158730158721  11.99776785714286 1.3571428571428565  15 1.3571428571428565  C 15.993303571428573 1.3571428571428565  16.997767857142858 1.4372519841269822  18.013392857142858 1.5974702380952377  L 18.91741071428571 0.2261904761904754  C 19.029017857142858 0.07539682539682513  19.185267857142858 0  19.38616071428571 0  C 19.44196428571429 0  19.54241071428572 0.028273809523809423  19.6875 0.08482142857142827  C 19.832589285714285 0.14136904761904712  20.005580357142858 0.21440972222221988  20.20647321428571 0.3039434523809529  C 20.40736607142857 0.39347718253968167  20.591517857142858 0.4806547619047623  20.75892857142857 0.5654761904761906  C 20.92633928571429 0.6502976190476188  21.10212053571429 0.7374751984126953  21.28627232142857 0.8270089285714283  C 21.470424107142858 0.9165426587301571  21.57924107142857 0.9707341269841256  21.61272321428571 0.989583333333334  Z M 22.36607142857143 6.502976190476191  C 22.455357142857146 6.927083333333334  22.5 7.322916666666666  22.5 7.690476190476191  C 22.5 9.000496031746032  22.059151785714285 10.195064484126982  21.177455357142858 11.274181547619047  C 20.29575892857143 12.35329861111111  19.129464285714285 13.12847222222222  17.67857142857143 13.599702380952381  L 22.36607142857143 6.502976190476191  Z M 29.66517857142857 8.524553571428571  C 29.888392857142858 8.844990079365079  30 9.170138888888888  30 9.5  C 30 9.82986111111111  29.888392857142858 10.15500992063492  29.66517857142857 10.475446428571429  C 29.22991071428571 11.07862103174603  28.621651785714285 11.761904761904763  27.84040178571429 12.525297619047619  C 26.166294642857142 14.146329365079367  24.227120535714285 15.40451388888889  22.02287946428571 16.29985119047619  C 19.818638392857146 17.19518849206349  17.47767857142857 17.642857142857142  15 17.642857142857142  L 16.23883928571429 15.776785714285714  C 18.60491071428572 15.607142857142856  20.795200892857146 14.961557539682538  22.80970982142857 13.840029761904763  C 24.82421875 12.718501984126982  26.50669642857143 11.271825396825395  27.857142857142858 9.5  C 26.57366071428572 7.812996031746032  25 6.427579365079366  23.13616071428571 5.34375  L 24.19084821428571 3.760416666666666  C 25.251116071428577 4.363591269841267  26.269531250000004 5.08457341269841  27.24609375 5.923363095238094  C 28.22265625 6.762152777777776  29.029017857142858 7.629216269841269  29.66517857142857 8.524553571428571  Z " fill-rule="nonzero" fill="#000000" stroke="none" />
  </g>
</svg>