<?xml version="1.0" encoding="utf-8"?>
<svg version="1.1" xmlns:xlink="http://www.w3.org/1999/xlink" width="34px" height="33px" xmlns="http://www.w3.org/2000/svg">
  <g transform="matrix(1 0 0 1 -338 -12 )">
    <path d="M 33.1986531986532 24.666666666666664  C 33.73288439955107 25.18518518518518  34 25.81481481481481  34 26.555555555555557  C 34 27.2962962962963  33.73288439955107 27.925925925925924  33.1986531986532 28.444444444444443  L 29.306397306397304 32.22222222222222  C 28.772166105499444 32.74074074074074  28.123456790123456 33  27.36026936026936 33  C 26.597081930415268 33  25.948372615039283 32.74074074074074  25.414141414141415 32.22222222222222  L 17 24.055555555555557  L 8.585858585858587 32.22222222222222  C 8.05162738496072 32.74074074074074  7.402918069584737 33  6.63973063973064 33  C 5.8765432098765435 33  5.227833894500562 32.74074074074074  4.693602693602694 32.22222222222222  L 0.8013468013468014 28.444444444444443  C 0.26711560044893407 27.925925925925924  0 27.2962962962963  0 26.555555555555557  C 0 25.81481481481481  0.26711560044893407 25.18518518518518  0.8013468013468014 24.666666666666664  L 9.215488215488215 16.5  L 0.8013468013468014 8.333333333333332  C 0.26711560044893407 7.814814814814812  0 7.185185185185185  0 6.444444444444445  C 0 5.703703703703703  0.26711560044893407 5.074074074074069  0.8013468013468014 4.555555555555557  L 4.693602693602694 0.7777777777777779  C 5.227833894500562 0.2592592592592581  5.8765432098765435 0  6.63973063973064 0  C 7.402918069584737 0  8.05162738496072 0.2592592592592581  8.585858585858587 0.7777777777777779  L 17 8.944444444444446  L 25.414141414141415 0.7777777777777779  C 25.948372615039283 0.2592592592592581  26.597081930415268 0  27.36026936026936 0  C 28.123456790123456 0  28.772166105499444 0.2592592592592581  29.306397306397304 0.7777777777777779  L 33.1986531986532 4.555555555555557  C 33.73288439955107 5.074074074074069  34 5.703703703703703  34 6.444444444444445  C 34 7.185185185185185  33.73288439955107 7.814814814814812  33.1986531986532 8.333333333333332  L 24.784511784511782 16.5  L 33.1986531986532 24.666666666666664  Z " fill-rule="nonzero" fill="#000000" stroke="none" transform="matrix(1 0 0 1 338 12 )" />
  </g>
</svg>