<?xml version="1.0" encoding="utf-8"?>
<svg version="1.1" xmlns:xlink="http://www.w3.org/1999/xlink" width="66px" height="64px" xmlns="http://www.w3.org/2000/svg">
  <g transform="matrix(1 0 0 1 -43 -50 )">
    <path d="M 65.56171875 46.27083333333333  C 65.85390625 48.36805555555555  66 50.59722222222222  66 52.958333333333336  C 66 55.986111111111114  64.92578125 58.583333333333336  62.77734375 60.75  C 60.62890625000001 62.916666666666664  58.042187500000004 64  55.0171875 64  L 10.9828125 64  C 7.9578125 64  5.371093750000001 62.916666666666664  3.2226562500000004 60.75  C 1.0742187500000002 58.583333333333336  0 55.986111111111114  0 52.958333333333336  C 0 50.59722222222222  0.14609375000000033 48.36805555555555  0.4382812500000004 46.27083333333333  C 0.7304687500000003 44.1736111111111  1.2718750000000003 42.0625  2.0625000000000004 39.9375  C 2.853125000000001 37.8125  3.8585937500000007 35.99305555555556  5.07890625 34.47916666666667  C 6.299218750000001 32.96527777777777  7.91484375 31.729166666666664  9.92578125 30.770833333333336  C 11.936718749999999 29.8125  14.248437500000001 29.333333333333336  16.860937500000002 29.333333333333336  C 21.364062500000003 32.888888888888886  26.743750000000006 34.66666666666667  33 34.66666666666667  C 39.25625000000001 34.66666666666667  44.635937500000004 32.888888888888886  49.1390625 29.333333333333336  C 51.751562500000006 29.333333333333336  54.063281249999996 29.8125  56.07421875 30.770833333333336  C 58.085156250000004 31.729166666666664  59.700781250000006 32.96527777777777  60.921093750000004 34.47916666666667  C 62.14140625000001 35.99305555555556  63.146875 37.8125  63.9375 39.9375  C 64.728125 42.0625  65.26953125 44.1736111111111  65.56171875 46.27083333333333  Z M 46.999218750000004 4.6875  C 50.866406250000004 7.8125  52.800000000000004 11.583333333333336  52.800000000000004 16  C 52.800000000000004 20.416666666666664  50.866406250000004 24.1875  46.999218750000004 27.3125  C 43.132031250000004 30.4375  38.465624999999996 32  33 32  C 27.534375 32  22.86796875 30.4375  19.00078125 27.3125  C 15.133593750000001 24.1875  13.200000000000001 20.416666666666664  13.200000000000001 16  C 13.200000000000001 11.583333333333336  15.133593750000001 7.8125  19.00078125 4.6875  C 22.86796875 1.5625  27.534375 0  33 0  C 38.465624999999996 0  43.132031250000004 1.5625  46.999218750000004 4.6875  Z " fill-rule="nonzero" fill="#000000" stroke="none" transform="matrix(1 0 0 1 43 50 )" />
  </g>
</svg>