<?xml version="1.0" encoding="utf-8"?>
<svg version="1.1" xmlns:xlink="http://www.w3.org/1999/xlink" width="59px" height="59px" xmlns="http://www.w3.org/2000/svg">
  <g transform="matrix(1 0 0 1 -33 -39 )">
    <path d="M 15.733333333333333 21.07142857142857  C 15.733333333333333 24.122395833333332  16.563020833333333 26.931919642857142  18.222395833333334 29.5  C 14.903645833333334 29.609747023809526  12.189236111111112 31.014508928571423  10.079166666666667 33.714285714285715  L 5.961458333333334 33.714285714285715  C 4.281597222222222 33.714285714285715  2.868055555555556 33.269810267857146  1.7208333333333334 32.380859375  C 0.5736111111111111 31.491908482142858  0 30.19140625  0 28.47935267857143  C 0 20.731212797619044  1.2701388888888887 16.857142857142858  3.8104166666666672 16.857142857142858  C 3.933333333333333 16.857142857142858  4.37890625 17.087611607142858  5.147135416666666 17.548549107142858  C 5.915364583333334 18.009486607142858  6.9140625 18.475911458333332  8.143229166666668 18.94782366071429  C 9.372395833333332 19.419735863095237  10.591319444444444 19.65569196428571  11.8 19.65569196428571  C 13.172569444444445 19.65569196428571  14.534895833333334 19.403273809523807  15.886979166666668 18.8984375  C 15.784548611111113 19.710565476190467  15.733333333333333 20.434895833333332  15.733333333333333 21.07142857142857  Z M 51.02578125 47.065011160714285  C 51.09748263888889 48.173456101190474  51.13333333333333 49.30933779761905  51.13333333333333 50.47265625  C 51.13333333333333 53.10658482142857  50.38559027777778 55.18629092261905  48.89010416666667 56.71177455357143  C 47.39461805555556 58.2372581845238  45.40746527777778 59  42.928645833333334 59  L 16.071354166666666 59  C 13.592534722222224 59  11.605381944444447 58.2372581845238  10.109895833333333 56.71177455357143  C 8.614409722222224 55.18629092261905  7.866666666666666 53.10658482142857  7.866666666666666 50.47265625  C 7.866666666666666 49.30933779761905  7.902517361111112 48.173456101190474  7.97421875 47.065011160714285  C 8.04592013888889 45.956566220238095  8.189322916666667 44.760323660714285  8.404427083333333 43.476283482142854  C 8.61953125 42.19224330357142  8.890972222222224 41.001488095238095  9.21875 39.904017857142854  C 9.546527777777778 38.80654761904761  9.986979166666668 37.73651413690476  10.540104166666667 36.693917410714285  C 11.093229166666667 35.6513206845238  11.728298611111112 34.762369791666664  12.4453125 34.027064732142854  C 13.16232638888889 33.29175967261905  14.03810763888889 32.704613095238095  15.072656250000001 32.265625  C 16.107204861111114 31.826636904761898  17.249305555555555 31.607142857142858  18.498958333333334 31.607142857142858  C 18.70381944444445 31.607142857142858  19.144270833333334 31.843098958333332  19.8203125 32.315011160714285  C 20.496354166666666 32.78692336309524  21.244097222222223 33.31370907738095  22.063541666666666 33.89536830357142  C 22.882986111111116 34.4770275297619  23.978993055555556 35.00381324404761  25.3515625 35.47572544642858  C 26.724131944444448 35.947637648809526  28.106944444444448 36.18359375  29.5 36.18359375  C 30.893055555555556 36.18359375  32.275868055555556 35.947637648809526  33.6484375 35.47572544642858  C 35.02100694444445 35.00381324404761  36.11701388888889 34.4770275297619  36.936458333333334 33.89536830357142  C 37.75590277777778 33.31370907738095  38.50364583333333 32.78692336309524  39.1796875 32.315011160714285  C 39.85572916666667 31.843098958333332  40.29618055555556 31.607142857142858  40.501041666666666 31.607142857142858  C 41.75069444444445 31.607142857142858  42.89279513888889 31.826636904761898  43.92734375 32.265625  C 44.96189236111111 32.704613095238095  45.83767361111111 33.29175967261905  46.5546875 34.027064732142854  C 47.27170138888889 34.762369791666664  47.90677083333333 35.6513206845238  48.459895833333334 36.693917410714285  C 49.01302083333333 37.73651413690476  49.45347222222223 38.80654761904761  49.78125 39.904017857142854  C 50.10902777777778 41.001488095238095  50.38046875 42.19224330357142  50.59557291666667 43.476283482142854  C 50.81067708333333 44.760323660714285  50.95407986111111 45.956566220238095  51.02578125 47.065011160714285  Z M 17.361979166666664 2.4693080357142874  C 18.8984375 4.115513392857144  19.666666666666664 6.101934523809518  19.666666666666664 8.42857142857143  C 19.666666666666664 10.75520833333333  18.8984375 12.741629464285712  17.361979166666664 14.38783482142857  C 15.825520833333334 16.03404017857143  13.971527777777778 16.857142857142858  11.8 16.857142857142858  C 9.628472222222223 16.857142857142858  7.774479166666667 16.03404017857143  6.238020833333334 14.38783482142857  C 4.7015625 12.741629464285712  3.933333333333333 10.75520833333333  3.933333333333333 8.42857142857143  C 3.933333333333333 6.101934523809518  4.7015625 4.115513392857144  6.238020833333334 2.4693080357142874  C 7.774479166666667 0.8231026785714314  9.628472222222223 0  11.8 0  C 13.971527777777778 0  15.825520833333334 0.8231026785714314  17.361979166666664 2.4693080357142874  Z M 37.84296875 12.132533482142856  C 40.14765625 14.601841517857144  41.3 17.58147321428571  41.3 21.07142857142857  C 41.3 24.56138392857143  40.14765625 27.541015625  37.84296875 30.01032366071429  C 35.53828125 32.47963169642858  32.75729166666667 33.714285714285715  29.5 33.714285714285715  C 26.24270833333334 33.714285714285715  23.461718750000003 32.47963169642858  21.15703125 30.01032366071429  C 18.85234375 27.541015625  17.7 24.56138392857143  17.7 21.07142857142857  C 17.7 17.58147321428571  18.85234375 14.601841517857144  21.15703125 12.132533482142856  C 23.461718750000003 9.66322544642857  26.24270833333334 8.42857142857143  29.5 8.42857142857143  C 32.75729166666667 8.42857142857143  35.53828125 9.66322544642857  37.84296875 12.132533482142856  Z M 55.18958333333333 16.857142857142858  C 57.72986111111112 16.857142857142858  59.000000000000014 20.731212797619044  59 28.47935267857143  C 59.000000000000014 30.19140625  58.426388888888894 31.491908482142858  57.27916666666667 32.380859375  C 56.13194444444445 33.269810267857146  54.71840277777778 33.714285714285715  53.03854166666667 33.714285714285715  L 48.920833333333334 33.714285714285715  C 46.81076388888889 31.014508928571423  44.09635416666667 29.609747023809526  40.77760416666667 29.5  C 42.43697916666667 26.931919642857142  43.266666666666666 24.122395833333332  43.266666666666666 21.07142857142857  C 43.266666666666666 20.434895833333332  43.215451388888894 19.710565476190467  43.11302083333333 18.8984375  C 44.46510416666667 19.403273809523807  45.82743055555556 19.65569196428571  47.2 19.65569196428571  C 48.408680555555556 19.65569196428571  49.62760416666667 19.419735863095237  50.85677083333333 18.94782366071429  C 52.0859375 18.475911458333332  53.08463541666667 18.009486607142858  53.85286458333333 17.548549107142858  C 54.62109375 17.087611607142858  55.06666666666667 16.857142857142858  55.18958333333333 16.857142857142858  Z M 52.76197916666667 2.4693080357142874  C 54.2984375 4.115513392857144  55.06666666666667 6.101934523809518  55.06666666666667 8.42857142857143  C 55.06666666666667 10.75520833333333  54.2984375 12.741629464285712  52.76197916666667 14.38783482142857  C 51.225520833333334 16.03404017857143  49.37152777777778 16.857142857142858  47.2 16.857142857142858  C 45.02847222222223 16.857142857142858  43.17447916666667 16.03404017857143  41.63802083333333 14.38783482142857  C 40.1015625 12.741629464285712  39.33333333333333 10.75520833333333  39.33333333333333 8.42857142857143  C 39.33333333333333 6.101934523809518  40.1015625 4.115513392857144  41.63802083333333 2.4693080357142874  C 43.17447916666667 0.8231026785714314  45.02847222222223 0  47.2 0  C 49.37152777777778 0  51.225520833333334 0.8231026785714314  52.76197916666667 2.4693080357142874  Z " fill-rule="nonzero" fill="#ffffff" stroke="none" transform="matrix(1 0 0 1 33 39 )" />
  </g>
</svg>