<?xml version="1.0" encoding="utf-8"?>
<svg version="1.1" xmlns:xlink="http://www.w3.org/1999/xlink" width="83px" height="65px" xmlns="http://www.w3.org/2000/svg">
  <g transform="matrix(1 0 0 1 -41 -49 )">
    <path d="M 22.133333333333333 23.21428571428571  C 22.133333333333333 26.575520833333332  23.30052083333333 29.67075892857143  25.63489583333333 32.5  C 20.966145833333336 32.62090773809524  17.147569444444446 34.168526785714285  14.179166666666667 37.14285714285714  L 8.386458333333334 37.14285714285714  C 6.023263888888888 37.14285714285714  4.034722222222223 36.65318080357143  2.4208333333333334 35.673828125  C 0.8069444444444444 34.69447544642857  0 33.26171875  0 31.37555803571429  C 0 22.83947172619047  1.7868055555555553 18.57142857142857  5.3604166666666675 18.57142857142857  C 5.533333333333333 18.57142857142857  6.16015625 18.82533482142857  7.240885416666666 19.33314732142857  C 8.321614583333334 19.84095982142857  9.7265625 20.354817708333332  11.455729166666668 20.874720982142858  C 13.184895833333332 21.39462425595238  14.899652777777778 21.654575892857142  16.6 21.654575892857142  C 18.53090277777778 21.654575892857142  20.447395833333335 21.37648809523809  22.34947916666667 20.8203125  C 22.205381944444447 21.715029761904752  22.133333333333333 22.513020833333332  22.133333333333333 23.21428571428571  Z M 71.78203125 51.85128348214286  C 71.88289930555557 53.07245163690476  71.93333333333334 54.32384672619048  71.93333333333334 55.60546875  C 71.93333333333334 58.50725446428571  70.88142361111112 60.79845610119048  68.77760416666666 62.47907366071429  C 66.67378472222224 64.15969122023809  63.87829861111112 65  60.39114583333334 65  L 22.608854166666667 65  C 19.12170138888889 65  16.32621527777778 64.15969122023809  14.222395833333334 62.47907366071429  C 12.11857638888889 60.79845610119048  11.066666666666666 58.50725446428571  11.066666666666666 55.60546875  C 11.066666666666666 54.32384672619048  11.117100694444446 53.07245163690476  11.21796875 51.85128348214286  C 11.318836805555557 50.63011532738095  11.520572916666666 49.31222098214286  11.823177083333334 47.89760044642857  C 12.12578125 46.482979910714285  12.507638888888891 45.17113095238095  12.96875 43.96205357142857  C 13.429861111111112 42.75297619047618  14.049479166666668 41.57412574404761  14.827604166666667 40.42550223214286  C 15.605729166666666 39.276878720238095  16.499131944444446 38.297526041666664  17.5078125 37.48744419642857  C 18.516493055555557 36.67736235119048  19.74852430555556 36.03050595238095  21.203906250000003 35.546875  C 22.659288194444446 35.063244047619044  24.265972222222224 34.82142857142857  26.023958333333333 34.82142857142857  C 26.312152777777783 34.82142857142857  26.93177083333333 35.08138020833333  27.8828125 35.60128348214286  C 28.83385416666667 36.12118675595238  29.88576388888889 36.70154389880952  31.038541666666667 37.342354910714285  C 32.19131944444445 37.983165922619044  33.733159722222226 38.56352306547618  35.6640625 39.083426339285715  C 37.59496527777778 39.60332961309524  39.54027777777778 39.86328125  41.5 39.86328125  C 43.459722222222226 39.86328125  45.405034722222226 39.60332961309524  47.3359375 39.083426339285715  C 49.26684027777778 38.56352306547618  50.80868055555556 37.983165922619044  51.96145833333334 37.342354910714285  C 53.11423611111111 36.70154389880952  54.16614583333333 36.12118675595238  55.1171875 35.60128348214286  C 56.06822916666667 35.08138020833333  56.68784722222223 34.82142857142857  56.97604166666666 34.82142857142857  C 58.73402777777778 34.82142857142857  60.340711805555564 35.063244047619044  61.79609375 35.546875  C 63.25147569444445 36.03050595238095  64.48350694444444 36.67736235119048  65.4921875 37.48744419642857  C 66.50086805555557 38.297526041666664  67.39427083333334 39.276878720238095  68.17239583333334 40.42550223214286  C 68.95052083333333 41.57412574404761  69.5701388888889 42.75297619047618  70.03125 43.96205357142857  C 70.49236111111112 45.17113095238095  70.87421875 46.482979910714285  71.17682291666667 47.89760044642857  C 71.47942708333333 49.31222098214286  71.68116319444445 50.63011532738095  71.78203125 51.85128348214286  Z M 24.424479166666664 2.7204241071428594  C 26.5859375 4.53404017857143  27.666666666666664 6.722470238095232  27.666666666666664 9.285714285714288  C 27.666666666666664 11.84895833333333  26.5859375 14.03738839285714  24.424479166666664 15.851004464285712  C 22.263020833333336 17.66462053571429  19.654861111111114 18.57142857142857  16.6 18.57142857142857  C 13.545138888888891 18.57142857142857  10.936979166666667 17.66462053571429  8.775520833333333 15.851004464285712  C 6.614062499999999 14.03738839285714  5.533333333333333 11.84895833333333  5.533333333333333 9.285714285714288  C 5.533333333333333 6.722470238095232  6.614062499999999 4.53404017857143  8.775520833333333 2.7204241071428594  C 10.936979166666667 0.9068080357142888  13.545138888888891 0  16.6 0  C 19.654861111111114 0  22.263020833333336 0.9068080357142888  24.424479166666664 2.7204241071428594  Z M 53.236718749999994 13.366350446428571  C 56.478906249999994 16.08677455357143  58.099999999999994 19.369419642857142  58.099999999999994 23.21428571428571  C 58.099999999999994 27.05915178571429  56.478906249999994 30.341796875  53.236718749999994 33.06222098214286  C 49.994531249999994 35.782645089285715  46.08229166666666 37.14285714285714  41.5 37.14285714285714  C 36.91770833333334 37.14285714285714  33.005468750000006 35.782645089285715  29.76328125 33.06222098214286  C 26.52109375 30.341796875  24.9 27.05915178571429  24.9 23.21428571428571  C 24.9 19.369419642857142  26.52109375 16.08677455357143  29.76328125 13.366350446428571  C 33.005468750000006 10.645926339285712  36.91770833333334 9.285714285714288  41.5 9.285714285714288  C 46.08229166666666 9.285714285714288  49.994531249999994 10.645926339285712  53.236718749999994 13.366350446428571  Z M 77.63958333333333 18.57142857142857  C 81.21319444444445 18.57142857142857  83.00000000000001 22.83947172619047  83 31.37555803571429  C 83.00000000000001 33.26171875  82.19305555555556 34.69447544642857  80.57916666666667 35.673828125  C 78.96527777777779 36.65318080357143  76.97673611111112 37.14285714285714  74.61354166666666 37.14285714285714  L 68.82083333333334 37.14285714285714  C 65.85243055555557 34.168526785714285  62.03385416666667 32.62090773809524  57.36510416666667 32.5  C 59.69947916666666 29.67075892857143  60.86666666666666 26.575520833333332  60.86666666666666 23.21428571428571  C 60.86666666666666 22.513020833333332  60.79461805555556 21.715029761904752  60.65052083333333 20.8203125  C 62.55260416666667 21.37648809523809  64.46909722222223 21.654575892857142  66.4 21.654575892857142  C 68.10034722222223 21.654575892857142  69.81510416666667 21.39462425595238  71.54427083333333 20.874720982142858  C 73.2734375 20.354817708333332  74.67838541666667 19.84095982142857  75.75911458333333 19.33314732142857  C 76.83984375 18.82533482142857  77.46666666666667 18.57142857142857  77.63958333333333 18.57142857142857  Z M 74.22447916666667 2.7204241071428594  C 76.3859375 4.53404017857143  77.46666666666667 6.722470238095232  77.46666666666667 9.285714285714288  C 77.46666666666667 11.84895833333333  76.3859375 14.03738839285714  74.22447916666667 15.851004464285712  C 72.06302083333334 17.66462053571429  69.45486111111111 18.57142857142857  66.4 18.57142857142857  C 63.3451388888889 18.57142857142857  60.73697916666667 17.66462053571429  58.57552083333333 15.851004464285712  C 56.4140625 14.03738839285714  55.33333333333333 11.84895833333333  55.33333333333333 9.285714285714288  C 55.33333333333333 6.722470238095232  56.4140625 4.53404017857143  58.57552083333333 2.7204241071428594  C 60.73697916666667 0.9068080357142888  63.3451388888889 0  66.4 0  C 69.45486111111111 0  72.06302083333334 0.9068080357142888  74.22447916666667 2.7204241071428594  Z " fill-rule="nonzero" fill="#000000" stroke="none" transform="matrix(1 0 0 1 41 49 )" />
  </g>
</svg>