<?xml version="1.0" encoding="utf-8"?>
<svg version="1.1" xmlns:xlink="http://www.w3.org/1999/xlink" width="50px" height="50px" xmlns="http://www.w3.org/2000/svg">
  <g transform="matrix(1 0 0 1 -37 -41 )">
    <path d="M 49.66796875 36.149088541666664  C 49.889322916666664 37.78754340277777  50 39.52907986111111  50 41.37369791666667  C 50 43.73914930555556  49.18619791666667 45.76822916666667  47.55859375 47.4609375  C 45.930989583333336 49.15364583333333  43.97135416666667 50  41.6796875 50  L 8.3203125 50  C 6.028645833333333 50  4.069010416666667 49.15364583333333  2.4414062500000004 47.4609375  C 0.8138020833333336 45.76822916666667  0 43.73914930555556  0 41.37369791666667  C 0 39.52907986111111  0.11067708333333359 37.78754340277777  0.3320312500000003 36.149088541666664  C 0.553385416666667 34.51063368055555  0.9635416666666669 32.861328125  1.5625000000000004 31.201171875  C 2.161458333333334 29.541015625  2.923177083333334 28.11957465277778  3.84765625 26.936848958333336  C 4.772135416666668 25.754123263888886  5.99609375 24.788411458333332  7.51953125 24.039713541666668  C 9.04296875 23.291015625  10.794270833333334 22.916666666666668  12.773437500000002 22.916666666666668  C 16.184895833333336 25.694444444444443  20.26041666666667 27.083333333333336  25 27.083333333333336  C 29.739583333333343 27.083333333333336  33.81510416666667 25.694444444444443  37.2265625 22.916666666666668  C 39.20572916666667 22.916666666666668  40.95703125 23.291015625  42.48046875 24.039713541666668  C 44.00390625 24.788411458333332  45.227864583333336 25.754123263888886  46.15234375 26.936848958333336  C 47.07682291666667 28.11957465277778  47.838541666666664 29.541015625  48.4375 31.201171875  C 49.036458333333336 32.861328125  49.446614583333336 34.51063368055555  49.66796875 36.149088541666664  Z M 35.60546875 3.662109375  C 38.53515625 6.103515625  40 9.049479166666668  40 12.5  C 40 15.950520833333332  38.53515625 18.896484375  35.60546875 21.337890625  C 32.67578125 23.779296875  29.140624999999996 25  25 25  C 20.859375 25  17.32421875 23.779296875  14.39453125 21.337890625  C 11.46484375 18.896484375  10 15.950520833333332  10 12.5  C 10 9.049479166666668  11.46484375 6.103515625  14.39453125 3.662109375  C 17.32421875 1.220703125  20.859375 0  25 0  C 29.140624999999996 0  32.67578125 1.220703125  35.60546875 3.662109375  Z " fill-rule="nonzero" fill="#ffffff" stroke="none" transform="matrix(1 0 0 1 37 41 )" />
  </g>
</svg>