<?xml version="1.0" encoding="utf-8"?>
<svg version="1.1" xmlns:xlink="http://www.w3.org/1999/xlink" width="47px" height="42px" xmlns="http://www.w3.org/2000/svg">
  <g transform="matrix(1 0 0 1 -216 -55 )">
    <path d="M 45.977120535714285 1.214062500000001  C 46.65904017857143 1.5859374999999984  47 2.2312499999999993  47 3.149999999999998  L 47 38.85  C 47 39.768750000000004  46.65904017857143 40.4140625  45.977120535714285 40.785937499999996  C 45.74981398809524 40.895312499999996  45.53125000000001 40.949999999999996  45.32142857142857 40.949999999999996  C 44.84933035714286 40.949999999999996  44.45591517857143 40.7421875  44.141183035714285 40.3265625  L 33.57142857142857 27.103125  L 33.57142857142857 32.550000000000004  C 33.57142857142857 35.153124999999996  32.83268229166667 37.37890625  31.355189732142854 39.227343749999996  C 29.877697172619047 41.07578125  28.098586309523814 42  26.017857142857146 42  L 7.553571428571429 42  C 5.472842261904763 42  3.693731398809524 41.07578125  2.2162388392857144 39.227343749999996  C 0.7387462797619048 37.37890625  0 35.153124999999996  0 32.550000000000004  L 0 9.45  C 0 6.846874999999994  0.7387462797619048 4.621093749999998  2.2162388392857144 2.7726562500000007  C 3.693731398809524 0.9242187499999941  5.472842261904763 0  7.553571428571429 0  L 26.017857142857146 0  C 28.098586309523814 0  29.877697172619047 0.9242187499999941  31.355189732142854 2.7726562500000007  C 32.83268229166667 4.621093749999998  33.57142857142857 6.846874999999994  33.57142857142857 9.45  L 33.57142857142857 14.8640625  L 44.141183035714285 1.6734374999999981  C 44.45591517857143 1.2578124999999984  44.84933035714286 1.050000000000001  45.32142857142857 1.050000000000001  C 45.53125000000001 1.050000000000001  45.74981398809524 1.1046874999999932  45.977120535714285 1.214062500000001  Z " fill-rule="nonzero" fill="#000000" stroke="none" transform="matrix(1 0 0 1 216 55 )" />
  </g>
</svg>