<?xml version="1.0" encoding="utf-8"?>
<svg version="1.1" xmlns:xlink="http://www.w3.org/1999/xlink" width="57px" height="33px" xmlns="http://www.w3.org/2000/svg">
  <g transform="matrix(1 0 0 1 -119 -21 )">
    <path d="M 24.4328125 19.3037109375  C 24.6109375 19.1103515625  24.7 18.863281249999996  24.7 18.5625  L 24.7 14.4375  C 24.7 14.136718749999998  24.6109375 13.8896484375  24.4328125 13.6962890625  C 24.2546875 13.5029296875  24.027083333333334 13.40625  23.75 13.40625  L 18.05 13.40625  L 18.05 7.21875  C 18.05 6.917968749999999  17.9609375 6.6708984375  17.7828125 6.4775390625  C 17.6046875 6.2841796875  17.377083333333335 6.1875  17.099999999999998 6.1875  L 13.3 6.1875  C 13.022916666666667 6.1875  12.7953125 6.2841796875  12.6171875 6.4775390625  C 12.4390625 6.6708984375  12.35 6.917968749999999  12.35 7.21875  L 12.35 13.40625  L 6.65 13.40625  C 6.372916666666667 13.40625  6.145312500000001 13.5029296875  5.9671875000000005 13.6962890625  C 5.7890625 13.8896484375  5.7 14.136718749999998  5.7 14.4375  L 5.7 18.5625  C 5.7 18.863281249999996  5.7890625 19.1103515625  5.9671875000000005 19.3037109375  C 6.145312500000001 19.4970703125  6.372916666666667 19.59375  6.65 19.59375  L 12.35 19.59375  L 12.35 25.78125  C 12.35 26.082031249999996  12.4390625 26.3291015625  12.6171875 26.5224609375  C 12.7953125 26.7158203125  13.022916666666667 26.8125  13.3 26.8125  L 17.099999999999998 26.8125  C 17.377083333333335 26.8125  17.6046875 26.7158203125  17.7828125 26.5224609375  C 17.9609375 26.3291015625  18.05 26.082031249999996  18.05 25.78125  L 18.05 19.59375  L 23.75 19.59375  C 24.027083333333334 19.59375  24.2546875 19.4970703125  24.4328125 19.3037109375  Z M 40.68671875 23.54150390625  C 41.42890625 22.73583984375  41.8 21.763671874999996  41.8 20.625  C 41.8 19.486328124999996  41.42890625 18.51416015625  40.68671875 17.70849609375  C 39.944531250000004 16.90283203125  39.04895833333334 16.5  38 16.5  C 36.95104166666667 16.5  36.05546875 16.90283203125  35.313281249999996 17.70849609375  C 34.57109375 18.51416015625  34.199999999999996 19.486328124999996  34.199999999999996 20.625  C 34.199999999999996 21.763671874999996  34.57109375 22.73583984375  35.313281249999996 23.54150390625  C 36.05546875 24.34716796875  36.95104166666667 24.75  38 24.75  C 39.04895833333334 24.75  39.944531250000004 24.34716796875  40.68671875 23.54150390625  Z M 48.28671875 15.29150390625  C 49.02890625 14.48583984375  49.4 13.513671874999998  49.4 12.375  C 49.4 11.236328124999998  49.02890625 10.26416015625  48.28671875 9.45849609375  C 47.54453125 8.65283203125  46.64895833333333 8.25  45.6 8.25  C 44.55104166666667 8.25  43.65546875 8.65283203125  42.91328125 9.45849609375  C 42.171093750000004 10.26416015625  41.8 11.236328124999998  41.8 12.375  C 41.8 13.513671874999998  42.171093750000004 14.48583984375  42.91328125 15.29150390625  C 43.65546875 16.09716796875  44.55104166666667 16.5  45.6 16.5  C 46.64895833333333 16.5  47.54453125 16.09716796875  48.28671875 15.29150390625  Z M 52.546875 4.833984375  C 55.51562500000001 8.056640625  57.000000000000014 11.945312499999998  57 16.5  C 57.000000000000014 21.054687499999996  55.51562500000001 24.943359375  52.546875 28.166015625  C 49.57812500000001 31.388671875  45.995833333333344 33  41.8 33  C 38 33  34.65520833333334 31.624999999999996  31.765624999999996 28.875  L 25.234375 28.875  C 22.34479166666667 31.624999999999996  19 33  15.2 33  C 11.004166666666666 33  7.421875000000001 31.388671875  4.453125 28.166015625  C 1.484375 24.943359375  0 21.054687499999996  0 16.5  C 0 11.945312499999998  1.484375 8.056640625  4.453125 4.833984375  C 7.421875000000001 1.611328125  11.004166666666666 0  15.2 0  L 41.8 0  C 45.995833333333344 0  49.57812500000001 1.611328125  52.546875 4.833984375  Z " fill-rule="nonzero" fill="#000000" stroke="none" transform="matrix(1 0 0 1 119 21 )" />
  </g>
</svg>