<?xml version="1.0" encoding="utf-8"?>
<svg version="1.1" xmlns:xlink="http://www.w3.org/1999/xlink" width="38px" height="40px" xmlns="http://www.w3.org/2000/svg">
  <defs>
    <mask fill="white" id="clip55">
      <path d="M 37.16100543478261 16.033376123234916  C 37.72033514492753 16.675224646983313  38 17.449721865639706  38 18.35686777920411  L 38 21.64313222079589  C 38 22.55027813436029  37.72033514492753 23.324775353016687  37.16100543478261 23.966623876765084  C 36.60167572463769 24.608472400513477  35.87454710144928 24.92939666238768  34.97961956521739 25  L 16.80570652173913 25  L 24.369565217391305 32.47753530166881  C 25.023550724637683 33.093709884467266  25.35054347826087 33.86392811296534  25.35054347826087 34.78818998716303  C 25.35054347826087 35.71245186136072  25.023550724637683 36.48267008985879  24.369565217391305 37.09884467265725  L 22.433423913043477 39.050064184852374  C 21.79664855072464 39.68335472828413  21.022192028985508 40  20.110054347826086 40  C 19.215126811594203 40  18.432065217391305 39.68335472828413  17.76086956521739 39.050064184852374  L 0.9551630434782609 22.310654685494224  C 0.3183876811594205 21.677364142062473  0 20.907145913564396  0 20  C 0 19.10997004706889  0.3183876811594205 18.331193838254173  0.9551630434782609 17.66367137355584  L 17.76086956521739 0.9756097560975618  C 18.41485507246377 0.32520325203251765  19.197916666666668 0  20.110054347826086 0  C 21.004981884057973 0  21.779438405797105 0.32520325203251765  22.433423913043477 0.9756097560975618  L 24.369565217391305 2.875481386392811  C 25.023550724637683 3.5258878904578506  25.35054347826087 4.304664099272566  25.35054347826087 5.21181001283697  C 25.35054347826087 6.118955926401366  25.023550724637683 6.897732135216086  24.369565217391305 7.54813863928113  L 16.80570652173913 15  L 34.97961956521739 15  C 35.87454710144928 15.070603337612326  36.60167572463769 15.39152759948652  37.16100543478261 16.033376123234916  Z " fill-rule="evenodd" />
    </mask>
  </defs>
  <g transform="matrix(1 0 0 1 -23 -19 )">
    <path d="M 37.16100543478261 16.033376123234916  C 37.72033514492753 16.675224646983313  38 17.449721865639706  38 18.35686777920411  L 38 21.64313222079589  C 38 22.55027813436029  37.72033514492753 23.324775353016687  37.16100543478261 23.966623876765084  C 36.60167572463769 24.608472400513477  35.87454710144928 24.92939666238768  34.97961956521739 25  L 16.80570652173913 25  L 24.369565217391305 32.47753530166881  C 25.023550724637683 33.093709884467266  25.35054347826087 33.86392811296534  25.35054347826087 34.78818998716303  C 25.35054347826087 35.71245186136072  25.023550724637683 36.48267008985879  24.369565217391305 37.09884467265725  L 22.433423913043477 39.050064184852374  C 21.79664855072464 39.68335472828413  21.022192028985508 40  20.110054347826086 40  C 19.215126811594203 40  18.432065217391305 39.68335472828413  17.76086956521739 39.050064184852374  L 0.9551630434782609 22.310654685494224  C 0.3183876811594205 21.677364142062473  0 20.907145913564396  0 20  C 0 19.10997004706889  0.3183876811594205 18.331193838254173  0.9551630434782609 17.66367137355584  L 17.76086956521739 0.9756097560975618  C 18.41485507246377 0.32520325203251765  19.197916666666668 0  20.110054347826086 0  C 21.004981884057973 0  21.779438405797105 0.32520325203251765  22.433423913043477 0.9756097560975618  L 24.369565217391305 2.875481386392811  C 25.023550724637683 3.5258878904578506  25.35054347826087 4.304664099272566  25.35054347826087 5.21181001283697  C 25.35054347826087 6.118955926401366  25.023550724637683 6.897732135216086  24.369565217391305 7.54813863928113  L 16.80570652173913 15  L 34.97961956521739 15  C 35.87454710144928 15.070603337612326  36.60167572463769 15.39152759948652  37.16100543478261 16.033376123234916  Z " fill-rule="nonzero" fill="#7f7f7f" stroke="none" transform="matrix(1 0 0 1 23 19 )" />
    <path d="M 37.16100543478261 16.033376123234916  C 37.72033514492753 16.675224646983313  38 17.449721865639706  38 18.35686777920411  L 38 21.64313222079589  C 38 22.55027813436029  37.72033514492753 23.324775353016687  37.16100543478261 23.966623876765084  C 36.60167572463769 24.608472400513477  35.87454710144928 24.92939666238768  34.97961956521739 25  L 16.80570652173913 25  L 24.369565217391305 32.47753530166881  C 25.023550724637683 33.093709884467266  25.35054347826087 33.86392811296534  25.35054347826087 34.78818998716303  C 25.35054347826087 35.71245186136072  25.023550724637683 36.48267008985879  24.369565217391305 37.09884467265725  L 22.433423913043477 39.050064184852374  C 21.79664855072464 39.68335472828413  21.022192028985508 40  20.110054347826086 40  C 19.215126811594203 40  18.432065217391305 39.68335472828413  17.76086956521739 39.050064184852374  L 0.9551630434782609 22.310654685494224  C 0.3183876811594205 21.677364142062473  0 20.907145913564396  0 20  C 0 19.10997004706889  0.3183876811594205 18.331193838254173  0.9551630434782609 17.66367137355584  L 17.76086956521739 0.9756097560975618  C 18.41485507246377 0.32520325203251765  19.197916666666668 0  20.110054347826086 0  C 21.004981884057973 0  21.779438405797105 0.32520325203251765  22.433423913043477 0.9756097560975618  L 24.369565217391305 2.875481386392811  C 25.023550724637683 3.5258878904578506  25.35054347826087 4.304664099272566  25.35054347826087 5.21181001283697  C 25.35054347826087 6.118955926401366  25.023550724637683 6.897732135216086  24.369565217391305 7.54813863928113  L 16.80570652173913 15  L 34.97961956521739 15  C 35.87454710144928 15.070603337612326  36.60167572463769 15.39152759948652  37.16100543478261 16.033376123234916  Z " stroke-width="4" stroke="#000000" fill="none" transform="matrix(1 0 0 1 23 19 )" mask="url(#clip55)" />
  </g>
</svg>