<?xml version="1.0" encoding="utf-8"?>
<svg version="1.1" xmlns:xlink="http://www.w3.org/1999/xlink" width="28px" height="25px" xmlns="http://www.w3.org/2000/svg">
  <defs>
    <mask fill="white" id="clip58">
      <path d="M 2.333333333333333 0  L 25.666666666666664 0  C 26.308333333333334 0  26.85763888888889 0.254991319444442  27.31458333333333 0.7649739583333343  C 27.77152777777778 1.274956597222221  28.000000000000007 1.8880208333333344  28 2.6041666666666656  L 28 22.395833333333336  C 28.000000000000007 23.111979166666664  27.77152777777778 23.72504340277778  27.31458333333333 24.235026041666664  C 26.85763888888889 24.745008680555554  26.308333333333334 25  25.666666666666664 25  L 2.333333333333333 25  C 1.6916666666666667 25  1.1423611111111114 24.745008680555554  0.6854166666666667 24.235026041666664  C 0.22847222222222224 23.72504340277778  0 23.111979166666664  0 22.395833333333336  L 0 2.6041666666666656  C 0 1.8880208333333344  0.22847222222222224 1.274956597222221  0.6854166666666667 0.7649739583333343  C 1.1423611111111114 0.254991319444442  1.6916666666666667 0  2.333333333333333 0  Z M 25.666666666666664 2  L 2.333333333333333 2  C 2.206944444444445 2.0833333333333344  2.097569444444445 2.134874131944442  2.005208333333333 2.2379557291666656  C 1.9128472222222224 2.3410373263888866  1.8666666666666667 2.4631076388888866  1.8666666666666667 2.6041666666666656  L 1.8666666666666667 6.25  L 26.133333333333333 6.25  L 26.133333333333333 2.6041666666666656  C 26.133333333333333 2.4631076388888866  26.087152777777778 2.3410373263888866  25.994791666666664 2.2379557291666656  C 25.902430555555558 2.134874131944442  25.793055555555558 2.0833333333333344  25.666666666666664 2  Z M 2.333333333333333 23  L 25.666666666666664 23  C 25.793055555555558 22.916666666666664  25.902430555555558 22.865125868055554  25.994791666666664 22.762044270833336  C 26.087152777777778 22.658962673611114  26.133333333333333 22.536892361111114  26.133333333333333 22.395833333333336  L 26.133333333333333 12.5  L 1.8666666666666667 12.5  L 1.8666666666666667 22.395833333333336  C 1.8666666666666667 22.536892361111114  1.9128472222222224 22.658962673611114  2.005208333333333 22.762044270833336  C 2.097569444444445 22.865125868055554  2.206944444444445 22.916666666666664  2.333333333333333 23  Z M 7.466666666666667 20.833333333333336  L 3.7333333333333334 20.833333333333336  L 3.7333333333333334 18.75  L 7.466666666666667 18.75  L 7.466666666666667 20.833333333333336  Z M 14.933333333333334 20.833333333333336  L 9.333333333333332 20.833333333333336  L 9.333333333333332 18.75  L 14.933333333333334 18.75  L 14.933333333333334 20.833333333333336  Z " fill-rule="evenodd" />
    </mask>
  </defs>
  <g transform="matrix(1 0 0 1 -18 -9 )">
    <path d="M 2.333333333333333 0  L 25.666666666666664 0  C 26.308333333333334 0  26.85763888888889 0.254991319444442  27.31458333333333 0.7649739583333343  C 27.77152777777778 1.274956597222221  28.000000000000007 1.8880208333333344  28 2.6041666666666656  L 28 22.395833333333336  C 28.000000000000007 23.111979166666664  27.77152777777778 23.72504340277778  27.31458333333333 24.235026041666664  C 26.85763888888889 24.745008680555554  26.308333333333334 25  25.666666666666664 25  L 2.333333333333333 25  C 1.6916666666666667 25  1.1423611111111114 24.745008680555554  0.6854166666666667 24.235026041666664  C 0.22847222222222224 23.72504340277778  0 23.111979166666664  0 22.395833333333336  L 0 2.6041666666666656  C 0 1.8880208333333344  0.22847222222222224 1.274956597222221  0.6854166666666667 0.7649739583333343  C 1.1423611111111114 0.254991319444442  1.6916666666666667 0  2.333333333333333 0  Z M 25.666666666666664 2  L 2.333333333333333 2  C 2.206944444444445 2.0833333333333344  2.097569444444445 2.134874131944442  2.005208333333333 2.2379557291666656  C 1.9128472222222224 2.3410373263888866  1.8666666666666667 2.4631076388888866  1.8666666666666667 2.6041666666666656  L 1.8666666666666667 6.25  L 26.133333333333333 6.25  L 26.133333333333333 2.6041666666666656  C 26.133333333333333 2.4631076388888866  26.087152777777778 2.3410373263888866  25.994791666666664 2.2379557291666656  C 25.902430555555558 2.134874131944442  25.793055555555558 2.0833333333333344  25.666666666666664 2  Z M 2.333333333333333 23  L 25.666666666666664 23  C 25.793055555555558 22.916666666666664  25.902430555555558 22.865125868055554  25.994791666666664 22.762044270833336  C 26.087152777777778 22.658962673611114  26.133333333333333 22.536892361111114  26.133333333333333 22.395833333333336  L 26.133333333333333 12.5  L 1.8666666666666667 12.5  L 1.8666666666666667 22.395833333333336  C 1.8666666666666667 22.536892361111114  1.9128472222222224 22.658962673611114  2.005208333333333 22.762044270833336  C 2.097569444444445 22.865125868055554  2.206944444444445 22.916666666666664  2.333333333333333 23  Z M 7.466666666666667 20.833333333333336  L 3.7333333333333334 20.833333333333336  L 3.7333333333333334 18.75  L 7.466666666666667 18.75  L 7.466666666666667 20.833333333333336  Z M 14.933333333333334 20.833333333333336  L 9.333333333333332 20.833333333333336  L 9.333333333333332 18.75  L 14.933333333333334 18.75  L 14.933333333333334 20.833333333333336  Z " fill-rule="nonzero" fill="#ffffff" stroke="none" transform="matrix(1 0 0 1 18 9 )" />
    <path d="M 2.333333333333333 0  L 25.666666666666664 0  C 26.308333333333334 0  26.85763888888889 0.254991319444442  27.31458333333333 0.7649739583333343  C 27.77152777777778 1.274956597222221  28.000000000000007 1.8880208333333344  28 2.6041666666666656  L 28 22.395833333333336  C 28.000000000000007 23.111979166666664  27.77152777777778 23.72504340277778  27.31458333333333 24.235026041666664  C 26.85763888888889 24.745008680555554  26.308333333333334 25  25.666666666666664 25  L 2.333333333333333 25  C 1.6916666666666667 25  1.1423611111111114 24.745008680555554  0.6854166666666667 24.235026041666664  C 0.22847222222222224 23.72504340277778  0 23.111979166666664  0 22.395833333333336  L 0 2.6041666666666656  C 0 1.8880208333333344  0.22847222222222224 1.274956597222221  0.6854166666666667 0.7649739583333343  C 1.1423611111111114 0.254991319444442  1.6916666666666667 0  2.333333333333333 0  Z " stroke-width="4" stroke="#000000" fill="none" transform="matrix(1 0 0 1 18 9 )" mask="url(#clip58)" />
    <path d="M 25.666666666666664 2  L 2.333333333333333 2  C 2.206944444444445 2.0833333333333344  2.097569444444445 2.134874131944442  2.005208333333333 2.2379557291666656  C 1.9128472222222224 2.3410373263888866  1.8666666666666667 2.4631076388888866  1.8666666666666667 2.6041666666666656  L 1.8666666666666667 6.25  L 26.133333333333333 6.25  L 26.133333333333333 2.6041666666666656  C 26.133333333333333 2.4631076388888866  26.087152777777778 2.3410373263888866  25.994791666666664 2.2379557291666656  C 25.902430555555558 2.134874131944442  25.793055555555558 2.0833333333333344  25.666666666666664 2  Z " stroke-width="4" stroke="#000000" fill="none" transform="matrix(1 0 0 1 18 9 )" mask="url(#clip58)" />
    <path d="M 2.333333333333333 23  L 25.666666666666664 23  C 25.793055555555558 22.916666666666664  25.902430555555558 22.865125868055554  25.994791666666664 22.762044270833336  C 26.087152777777778 22.658962673611114  26.133333333333333 22.536892361111114  26.133333333333333 22.395833333333336  L 26.133333333333333 12.5  L 1.8666666666666667 12.5  L 1.8666666666666667 22.395833333333336  C 1.8666666666666667 22.536892361111114  1.9128472222222224 22.658962673611114  2.005208333333333 22.762044270833336  C 2.097569444444445 22.865125868055554  2.206944444444445 22.916666666666664  2.333333333333333 23  Z " stroke-width="4" stroke="#000000" fill="none" transform="matrix(1 0 0 1 18 9 )" mask="url(#clip58)" />
    <path d="M 7.466666666666667 20.833333333333336  L 3.7333333333333334 20.833333333333336  L 3.7333333333333334 18.75  L 7.466666666666667 18.75  L 7.466666666666667 20.833333333333336  Z " stroke-width="4" stroke="#000000" fill="none" transform="matrix(1 0 0 1 18 9 )" mask="url(#clip58)" />
    <path d="M 14.933333333333334 20.833333333333336  L 9.333333333333332 20.833333333333336  L 9.333333333333332 18.75  L 14.933333333333334 18.75  L 14.933333333333334 20.833333333333336  Z " stroke-width="4" stroke="#000000" fill="none" transform="matrix(1 0 0 1 18 9 )" mask="url(#clip58)" />
  </g>
</svg>