<?xml version="1.0" encoding="utf-8"?>
<svg version="1.1" xmlns:xlink="http://www.w3.org/1999/xlink" width="30px" height="32px" xmlns="http://www.w3.org/2000/svg">
  <defs>
    <mask fill="white" id="clip59">
      <path d="M 18.53515625 19.770833333333336  C 19.51171875 18.729166666666664  20 17.47222222222222  20 16  C 20 14.527777777777775  19.51171875 13.270833333333332  18.53515625 12.229166666666668  C 17.55859375 11.1875  16.380208333333336 10.666666666666668  15 10.666666666666668  C 13.619791666666668 10.666666666666668  12.44140625 11.1875  11.46484375 12.229166666666668  C 10.48828125 13.270833333333332  10 14.527777777777775  10 16  C 10 17.47222222222222  10.48828125 18.729166666666664  11.46484375 19.770833333333336  C 12.44140625 20.8125  13.619791666666668 21.333333333333336  15 21.333333333333336  C 16.380208333333336 21.333333333333336  17.55859375 20.8125  18.53515625 19.770833333333336  Z M 29.84375 13.239583333333332  C 29.947916666666664 13.385416666666668  30 13.54861111111111  30 13.729166666666668  L 30 18.354166666666664  C 30 18.520833333333336  29.947916666666664 18.680555555555557  29.84375 18.833333333333336  C 29.739583333333336 18.986111111111107  29.609375 19.076388888888886  29.453125 19.104166666666664  L 25.83984375 19.6875  C 25.59244791666667 20.4375  25.33854166666667 21.069444444444443  25.078125 21.583333333333336  C 25.53385416666667 22.27777777777778  26.23046875 23.236111111111107  27.16796875 24.458333333333332  C 27.298177083333336 24.625  27.36328125 24.79861111111111  27.36328125 24.979166666666668  C 27.36328125 25.159722222222225  27.3046875 25.319444444444443  27.1875 25.458333333333332  C 26.8359375 25.972222222222225  26.19140625 26.722222222222225  25.25390625 27.708333333333332  C 24.31640625 28.694444444444443  23.704427083333336 29.1875  23.41796875 29.1875  C 23.26171875 29.1875  23.092447916666668 29.125  22.91015625 29  L 20.21484375 26.75  C 19.641927083333332 27.069444444444443  19.049479166666668 27.333333333333332  18.4375 27.541666666666668  C 18.229166666666668 29.430555555555557  18.040364583333336 30.722222222222225  17.87109375 31.416666666666668  C 17.779947916666668 31.805555555555557  17.545572916666668 32  17.16796875 32  L 12.83203125 32  C 12.649739583333336 32  12.490234375 31.940972222222225  12.353515625 31.822916666666668  C 12.216796875 31.70486111111111  12.141927083333336 31.555555555555557  12.12890625 31.375  L 11.58203125 27.541666666666668  C 10.944010416666668 27.319444444444443  10.358072916666668 27.0625  9.82421875 26.770833333333332  L 7.0703125 29  C 6.940104166666668 29.125  6.77734375 29.1875  6.58203125 29.1875  C 6.399739583333334 29.1875  6.236979166666668 29.11111111111111  6.09375 28.958333333333332  C 4.453125 27.375  3.37890625 26.208333333333332  2.87109375 25.458333333333332  C 2.779947916666667 25.319444444444443  2.734375 25.159722222222225  2.734375 24.979166666666668  C 2.734375 24.8125  2.786458333333334 24.652777777777775  2.890625 24.5  C 3.0859375 24.208333333333332  3.41796875 23.74652777777778  3.8867187499999996 23.114583333333336  C 4.35546875 22.482638888888886  4.70703125 21.99305555555555  4.94140625 21.645833333333336  C 4.58984375 20.951388888888886  4.322916666666667 20.263888888888886  4.140625 19.583333333333336  L 0.56640625 19.020833333333336  C 0.39713541666666674 18.993055555555557  0.2604166666666667 18.90625  0.15625 18.760416666666664  C 0.05208333333333333 18.614583333333336  0 18.451388888888886  0 18.270833333333336  L 0 13.645833333333332  C 0 13.479166666666668  0.05208333333333333 13.319444444444443  0.15625 13.166666666666668  C 0.2604166666666667 13.01388888888889  0.38411458333333337 12.92361111111111  0.52734375 12.895833333333332  L 4.16015625 12.3125  C 4.342447916666667 11.67361111111111  4.596354166666667 11.034722222222221  4.921875 10.395833333333332  C 4.401041666666667 9.604166666666668  3.704427083333334 8.645833333333332  2.83203125 7.520833333333332  C 2.701822916666667 7.354166666666668  2.63671875 7.1875  2.63671875 7.020833333333332  C 2.63671875 6.881944444444443  2.6953125 6.722222222222218  2.8125 6.541666666666668  C 3.1510416666666665 6.041666666666668  3.792317708333334 5.295138888888886  4.736328125 4.302083333333332  C 5.680338541666668 3.309027777777775  6.295572916666668 2.8125  6.58203125 2.8125  C 6.751302083333334 2.8125  6.920572916666668 2.881944444444443  7.08984375 3.020833333333332  L 9.78515625 5.25  C 10.358072916666668 4.930555555555554  10.950520833333336 4.666666666666668  11.5625 4.458333333333332  C 11.770833333333336 2.569444444444443  11.959635416666666 1.277777777777775  12.12890625 0.5833333333333321  C 12.220052083333334 0.19444444444444287  12.454427083333334 0  12.83203125 0  L 17.16796875 0  C 17.350260416666668 0  17.509765625 0.059027777777775015  17.646484375 0.17708333333333215  C 17.783203125 0.29513888888888573  17.858072916666668 0.44444444444444287  17.87109375 0.625  L 18.41796875 4.458333333333332  C 19.055989583333332 4.680555555555554  19.641927083333332 4.9375  20.17578125 5.229166666666668  L 22.94921875 3  C 23.06640625 2.875  23.22265625 2.8125  23.41796875 2.8125  C 23.587239583333336 2.8125  23.75 2.881944444444443  23.90625 3.020833333333332  C 25.5859375 4.673611111111111  26.66015625 5.854166666666668  27.12890625 6.5625  C 27.220052083333336 6.673611111111111  27.265625 6.826388888888886  27.265625 7.020833333333332  C 27.265625 7.1875  27.21354166666667 7.347222222222218  27.109375 7.5  C 26.9140625 7.791666666666668  26.58203125 8.253472222222218  26.11328125 8.885416666666668  C 25.64453125 9.51736111111111  25.29296875 10.006944444444443  25.05859375 10.354166666666668  C 25.39713541666667 11.04861111111111  25.6640625 11.729166666666664  25.859375 12.395833333333332  L 29.43359375 12.979166666666668  C 29.602864583333332 13.006944444444443  29.739583333333336 13.093749999999996  29.84375 13.239583333333332  Z " fill-rule="evenodd" />
    </mask>
  </defs>
  <g transform="matrix(1 0 0 1 -17 -6 )">
    <path d="M 18.53515625 19.770833333333336  C 19.51171875 18.729166666666664  20 17.47222222222222  20 16  C 20 14.527777777777775  19.51171875 13.270833333333332  18.53515625 12.229166666666668  C 17.55859375 11.1875  16.380208333333336 10.666666666666668  15 10.666666666666668  C 13.619791666666668 10.666666666666668  12.44140625 11.1875  11.46484375 12.229166666666668  C 10.48828125 13.270833333333332  10 14.527777777777775  10 16  C 10 17.47222222222222  10.48828125 18.729166666666664  11.46484375 19.770833333333336  C 12.44140625 20.8125  13.619791666666668 21.333333333333336  15 21.333333333333336  C 16.380208333333336 21.333333333333336  17.55859375 20.8125  18.53515625 19.770833333333336  Z M 29.84375 13.239583333333332  C 29.947916666666664 13.385416666666668  30 13.54861111111111  30 13.729166666666668  L 30 18.354166666666664  C 30 18.520833333333336  29.947916666666664 18.680555555555557  29.84375 18.833333333333336  C 29.739583333333336 18.986111111111107  29.609375 19.076388888888886  29.453125 19.104166666666664  L 25.83984375 19.6875  C 25.59244791666667 20.4375  25.33854166666667 21.069444444444443  25.078125 21.583333333333336  C 25.53385416666667 22.27777777777778  26.23046875 23.236111111111107  27.16796875 24.458333333333332  C 27.298177083333336 24.625  27.36328125 24.79861111111111  27.36328125 24.979166666666668  C 27.36328125 25.159722222222225  27.3046875 25.319444444444443  27.1875 25.458333333333332  C 26.8359375 25.972222222222225  26.19140625 26.722222222222225  25.25390625 27.708333333333332  C 24.31640625 28.694444444444443  23.704427083333336 29.1875  23.41796875 29.1875  C 23.26171875 29.1875  23.092447916666668 29.125  22.91015625 29  L 20.21484375 26.75  C 19.641927083333332 27.069444444444443  19.049479166666668 27.333333333333332  18.4375 27.541666666666668  C 18.229166666666668 29.430555555555557  18.040364583333336 30.722222222222225  17.87109375 31.416666666666668  C 17.779947916666668 31.805555555555557  17.545572916666668 32  17.16796875 32  L 12.83203125 32  C 12.649739583333336 32  12.490234375 31.940972222222225  12.353515625 31.822916666666668  C 12.216796875 31.70486111111111  12.141927083333336 31.555555555555557  12.12890625 31.375  L 11.58203125 27.541666666666668  C 10.944010416666668 27.319444444444443  10.358072916666668 27.0625  9.82421875 26.770833333333332  L 7.0703125 29  C 6.940104166666668 29.125  6.77734375 29.1875  6.58203125 29.1875  C 6.399739583333334 29.1875  6.236979166666668 29.11111111111111  6.09375 28.958333333333332  C 4.453125 27.375  3.37890625 26.208333333333332  2.87109375 25.458333333333332  C 2.779947916666667 25.319444444444443  2.734375 25.159722222222225  2.734375 24.979166666666668  C 2.734375 24.8125  2.786458333333334 24.652777777777775  2.890625 24.5  C 3.0859375 24.208333333333332  3.41796875 23.74652777777778  3.8867187499999996 23.114583333333336  C 4.35546875 22.482638888888886  4.70703125 21.99305555555555  4.94140625 21.645833333333336  C 4.58984375 20.951388888888886  4.322916666666667 20.263888888888886  4.140625 19.583333333333336  L 0.56640625 19.020833333333336  C 0.39713541666666674 18.993055555555557  0.2604166666666667 18.90625  0.15625 18.760416666666664  C 0.05208333333333333 18.614583333333336  0 18.451388888888886  0 18.270833333333336  L 0 13.645833333333332  C 0 13.479166666666668  0.05208333333333333 13.319444444444443  0.15625 13.166666666666668  C 0.2604166666666667 13.01388888888889  0.38411458333333337 12.92361111111111  0.52734375 12.895833333333332  L 4.16015625 12.3125  C 4.342447916666667 11.67361111111111  4.596354166666667 11.034722222222221  4.921875 10.395833333333332  C 4.401041666666667 9.604166666666668  3.704427083333334 8.645833333333332  2.83203125 7.520833333333332  C 2.701822916666667 7.354166666666668  2.63671875 7.1875  2.63671875 7.020833333333332  C 2.63671875 6.881944444444443  2.6953125 6.722222222222218  2.8125 6.541666666666668  C 3.1510416666666665 6.041666666666668  3.792317708333334 5.295138888888886  4.736328125 4.302083333333332  C 5.680338541666668 3.309027777777775  6.295572916666668 2.8125  6.58203125 2.8125  C 6.751302083333334 2.8125  6.920572916666668 2.881944444444443  7.08984375 3.020833333333332  L 9.78515625 5.25  C 10.358072916666668 4.930555555555554  10.950520833333336 4.666666666666668  11.5625 4.458333333333332  C 11.770833333333336 2.569444444444443  11.959635416666666 1.277777777777775  12.12890625 0.5833333333333321  C 12.220052083333334 0.19444444444444287  12.454427083333334 0  12.83203125 0  L 17.16796875 0  C 17.350260416666668 0  17.509765625 0.059027777777775015  17.646484375 0.17708333333333215  C 17.783203125 0.29513888888888573  17.858072916666668 0.44444444444444287  17.87109375 0.625  L 18.41796875 4.458333333333332  C 19.055989583333332 4.680555555555554  19.641927083333332 4.9375  20.17578125 5.229166666666668  L 22.94921875 3  C 23.06640625 2.875  23.22265625 2.8125  23.41796875 2.8125  C 23.587239583333336 2.8125  23.75 2.881944444444443  23.90625 3.020833333333332  C 25.5859375 4.673611111111111  26.66015625 5.854166666666668  27.12890625 6.5625  C 27.220052083333336 6.673611111111111  27.265625 6.826388888888886  27.265625 7.020833333333332  C 27.265625 7.1875  27.21354166666667 7.347222222222218  27.109375 7.5  C 26.9140625 7.791666666666668  26.58203125 8.253472222222218  26.11328125 8.885416666666668  C 25.64453125 9.51736111111111  25.29296875 10.006944444444443  25.05859375 10.354166666666668  C 25.39713541666667 11.04861111111111  25.6640625 11.729166666666664  25.859375 12.395833333333332  L 29.43359375 12.979166666666668  C 29.602864583333332 13.006944444444443  29.739583333333336 13.093749999999996  29.84375 13.239583333333332  Z " fill-rule="nonzero" fill="#ffffff" stroke="none" transform="matrix(1 0 0 1 17 6 )" />
    <path d="M 18.53515625 19.770833333333336  C 19.51171875 18.729166666666664  20 17.47222222222222  20 16  C 20 14.527777777777775  19.51171875 13.270833333333332  18.53515625 12.229166666666668  C 17.55859375 11.1875  16.380208333333336 10.666666666666668  15 10.666666666666668  C 13.619791666666668 10.666666666666668  12.44140625 11.1875  11.46484375 12.229166666666668  C 10.48828125 13.270833333333332  10 14.527777777777775  10 16  C 10 17.47222222222222  10.48828125 18.729166666666664  11.46484375 19.770833333333336  C 12.44140625 20.8125  13.619791666666668 21.333333333333336  15 21.333333333333336  C 16.380208333333336 21.333333333333336  17.55859375 20.8125  18.53515625 19.770833333333336  Z " stroke-width="4" stroke="#000000" fill="none" transform="matrix(1 0 0 1 17 6 )" mask="url(#clip59)" />
    <path d="M 29.84375 13.239583333333332  C 29.947916666666664 13.385416666666668  30 13.54861111111111  30 13.729166666666668  L 30 18.354166666666664  C 30 18.520833333333336  29.947916666666664 18.680555555555557  29.84375 18.833333333333336  C 29.739583333333336 18.986111111111107  29.609375 19.076388888888886  29.453125 19.104166666666664  L 25.83984375 19.6875  C 25.59244791666667 20.4375  25.33854166666667 21.069444444444443  25.078125 21.583333333333336  C 25.53385416666667 22.27777777777778  26.23046875 23.236111111111107  27.16796875 24.458333333333332  C 27.298177083333336 24.625  27.36328125 24.79861111111111  27.36328125 24.979166666666668  C 27.36328125 25.159722222222225  27.3046875 25.319444444444443  27.1875 25.458333333333332  C 26.8359375 25.972222222222225  26.19140625 26.722222222222225  25.25390625 27.708333333333332  C 24.31640625 28.694444444444443  23.704427083333336 29.1875  23.41796875 29.1875  C 23.26171875 29.1875  23.092447916666668 29.125  22.91015625 29  L 20.21484375 26.75  C 19.641927083333332 27.069444444444443  19.049479166666668 27.333333333333332  18.4375 27.541666666666668  C 18.229166666666668 29.430555555555557  18.040364583333336 30.722222222222225  17.87109375 31.416666666666668  C 17.779947916666668 31.805555555555557  17.545572916666668 32  17.16796875 32  L 12.83203125 32  C 12.649739583333336 32  12.490234375 31.940972222222225  12.353515625 31.822916666666668  C 12.216796875 31.70486111111111  12.141927083333336 31.555555555555557  12.12890625 31.375  L 11.58203125 27.541666666666668  C 10.944010416666668 27.319444444444443  10.358072916666668 27.0625  9.82421875 26.770833333333332  L 7.0703125 29  C 6.940104166666668 29.125  6.77734375 29.1875  6.58203125 29.1875  C 6.399739583333334 29.1875  6.236979166666668 29.11111111111111  6.09375 28.958333333333332  C 4.453125 27.375  3.37890625 26.208333333333332  2.87109375 25.458333333333332  C 2.779947916666667 25.319444444444443  2.734375 25.159722222222225  2.734375 24.979166666666668  C 2.734375 24.8125  2.786458333333334 24.652777777777775  2.890625 24.5  C 3.0859375 24.208333333333332  3.41796875 23.74652777777778  3.8867187499999996 23.114583333333336  C 4.35546875 22.482638888888886  4.70703125 21.99305555555555  4.94140625 21.645833333333336  C 4.58984375 20.951388888888886  4.322916666666667 20.263888888888886  4.140625 19.583333333333336  L 0.56640625 19.020833333333336  C 0.39713541666666674 18.993055555555557  0.2604166666666667 18.90625  0.15625 18.760416666666664  C 0.05208333333333333 18.614583333333336  0 18.451388888888886  0 18.270833333333336  L 0 13.645833333333332  C 0 13.479166666666668  0.05208333333333333 13.319444444444443  0.15625 13.166666666666668  C 0.2604166666666667 13.01388888888889  0.38411458333333337 12.92361111111111  0.52734375 12.895833333333332  L 4.16015625 12.3125  C 4.342447916666667 11.67361111111111  4.596354166666667 11.034722222222221  4.921875 10.395833333333332  C 4.401041666666667 9.604166666666668  3.704427083333334 8.645833333333332  2.83203125 7.520833333333332  C 2.701822916666667 7.354166666666668  2.63671875 7.1875  2.63671875 7.020833333333332  C 2.63671875 6.881944444444443  2.6953125 6.722222222222218  2.8125 6.541666666666668  C 3.1510416666666665 6.041666666666668  3.792317708333334 5.295138888888886  4.736328125 4.302083333333332  C 5.680338541666668 3.309027777777775  6.295572916666668 2.8125  6.58203125 2.8125  C 6.751302083333334 2.8125  6.920572916666668 2.881944444444443  7.08984375 3.020833333333332  L 9.78515625 5.25  C 10.358072916666668 4.930555555555554  10.950520833333336 4.666666666666668  11.5625 4.458333333333332  C 11.770833333333336 2.569444444444443  11.959635416666666 1.277777777777775  12.12890625 0.5833333333333321  C 12.220052083333334 0.19444444444444287  12.454427083333334 0  12.83203125 0  L 17.16796875 0  C 17.350260416666668 0  17.509765625 0.059027777777775015  17.646484375 0.17708333333333215  C 17.783203125 0.29513888888888573  17.858072916666668 0.44444444444444287  17.87109375 0.625  L 18.41796875 4.458333333333332  C 19.055989583333332 4.680555555555554  19.641927083333332 4.9375  20.17578125 5.229166666666668  L 22.94921875 3  C 23.06640625 2.875  23.22265625 2.8125  23.41796875 2.8125  C 23.587239583333336 2.8125  23.75 2.881944444444443  23.90625 3.020833333333332  C 25.5859375 4.673611111111111  26.66015625 5.854166666666668  27.12890625 6.5625  C 27.220052083333336 6.673611111111111  27.265625 6.826388888888886  27.265625 7.020833333333332  C 27.265625 7.1875  27.21354166666667 7.347222222222218  27.109375 7.5  C 26.9140625 7.791666666666668  26.58203125 8.253472222222218  26.11328125 8.885416666666668  C 25.64453125 9.51736111111111  25.29296875 10.006944444444443  25.05859375 10.354166666666668  C 25.39713541666667 11.04861111111111  25.6640625 11.729166666666664  25.859375 12.395833333333332  L 29.43359375 12.979166666666668  C 29.602864583333332 13.006944444444443  29.739583333333336 13.093749999999996  29.84375 13.239583333333332  Z " stroke-width="4" stroke="#000000" fill="none" transform="matrix(1 0 0 1 17 6 )" mask="url(#clip59)" />
  </g>
</svg>