<?xml version="1.0" encoding="utf-8"?>
<svg version="1.1" xmlns:xlink="http://www.w3.org/1999/xlink" width="32px" height="26px" xmlns="http://www.w3.org/2000/svg">
  <defs>
    <mask fill="white" id="clip60">
      <path d="M 5.407260726072607 23.803300330033004  L 7.667326732673267 23.803300330033004  L 9.58943894389439 22.24158415841584  L 4.625742574257425 18.20858085808581  L 2.7036303630363037 19.77029702970297  L 2.7036303630363037 21.606600660066007  L 5.407260726072607 21.606600660066007  L 5.407260726072607 23.803300330033004  Z M 18.566336633663365 8.168976897689769  C 18.664906490649066 8.088888888888889  18.714191419141915 7.991639163916391  18.714191419141915 7.877227722772279  C 18.714191419141915 7.625522552255225  18.55929592959296 7.499669966996699  18.249504950495048 7.499669966996699  C 18.10869086908691 7.499669966996699  17.988998899889992 7.539713971397139  17.89042904290429 7.619801980198021  L 6.442244224422442 16.921452145214523  C 6.343674367436744 17.001540154015398  6.294389438943894 17.098789878987894  6.294389438943894 17.213201320132015  C 6.294389438943894 17.46490649064906  6.44928492849285 17.59075907590759  6.759075907590759 17.59075907590759  C 6.8998899889989005 17.59075907590759  7.01958195819582 17.55071507150715  7.118151815181518 17.47062706270627  L 18.566336633663365 8.168976897689769  Z M 0 18.860726072607264  L 17.573597359735974 4.582178217821784  L 26.36039603960396 11.72145214521452  L 8.786798679867987 26  L 0 26  L 0 18.860726072607264  Z M 31.21848184818482 4.667986798679867  C 31.73949394939494 5.114191419141915  32 5.634763476347635  32 6.22970297029703  C 32 6.836083608360836  31.73949394939494 7.3509350935093485  31.21848184818482 7.774257425742576  L 27.71221122112211 10.623102310231022  L 18.925412541254126 3.483828382838285  L 22.43168316831683 0.6521452145214508  C 22.938613861386138 0.217381738173815  23.572277227722772 0  24.332673267326733 0  C 25.078987898789883 0  25.719691969196923 0.217381738173815  26.254785478547856 0.6521452145214508  L 31.21848184818482 4.667986798679867  Z " fill-rule="evenodd" />
    </mask>
  </defs>
  <g transform="matrix(1 0 0 1 -18 -9 )">
    <path d="M 5.407260726072607 23.803300330033004  L 7.667326732673267 23.803300330033004  L 9.58943894389439 22.24158415841584  L 4.625742574257425 18.20858085808581  L 2.7036303630363037 19.77029702970297  L 2.7036303630363037 21.606600660066007  L 5.407260726072607 21.606600660066007  L 5.407260726072607 23.803300330033004  Z M 18.566336633663365 8.168976897689769  C 18.664906490649066 8.088888888888889  18.714191419141915 7.991639163916391  18.714191419141915 7.877227722772279  C 18.714191419141915 7.625522552255225  18.55929592959296 7.499669966996699  18.249504950495048 7.499669966996699  C 18.10869086908691 7.499669966996699  17.988998899889992 7.539713971397139  17.89042904290429 7.619801980198021  L 6.442244224422442 16.921452145214523  C 6.343674367436744 17.001540154015398  6.294389438943894 17.098789878987894  6.294389438943894 17.213201320132015  C 6.294389438943894 17.46490649064906  6.44928492849285 17.59075907590759  6.759075907590759 17.59075907590759  C 6.8998899889989005 17.59075907590759  7.01958195819582 17.55071507150715  7.118151815181518 17.47062706270627  L 18.566336633663365 8.168976897689769  Z M 0 18.860726072607264  L 17.573597359735974 4.582178217821784  L 26.36039603960396 11.72145214521452  L 8.786798679867987 26  L 0 26  L 0 18.860726072607264  Z M 31.21848184818482 4.667986798679867  C 31.73949394939494 5.114191419141915  32 5.634763476347635  32 6.22970297029703  C 32 6.836083608360836  31.73949394939494 7.3509350935093485  31.21848184818482 7.774257425742576  L 27.71221122112211 10.623102310231022  L 18.925412541254126 3.483828382838285  L 22.43168316831683 0.6521452145214508  C 22.938613861386138 0.217381738173815  23.572277227722772 0  24.332673267326733 0  C 25.078987898789883 0  25.719691969196923 0.217381738173815  26.254785478547856 0.6521452145214508  L 31.21848184818482 4.667986798679867  Z " fill-rule="nonzero" fill="#ffffff" stroke="none" transform="matrix(1 0 0 1 18 9 )" />
    <path d="M 5.407260726072607 23.803300330033004  L 7.667326732673267 23.803300330033004  L 9.58943894389439 22.24158415841584  L 4.625742574257425 18.20858085808581  L 2.7036303630363037 19.77029702970297  L 2.7036303630363037 21.606600660066007  L 5.407260726072607 21.606600660066007  L 5.407260726072607 23.803300330033004  Z " stroke-width="2" stroke="#000000" fill="none" transform="matrix(1 0 0 1 18 9 )" mask="url(#clip60)" />
    <path d="M 18.566336633663365 8.168976897689769  C 18.664906490649066 8.088888888888889  18.714191419141915 7.991639163916391  18.714191419141915 7.877227722772279  C 18.714191419141915 7.625522552255225  18.55929592959296 7.499669966996699  18.249504950495048 7.499669966996699  C 18.10869086908691 7.499669966996699  17.988998899889992 7.539713971397139  17.89042904290429 7.619801980198021  L 6.442244224422442 16.921452145214523  C 6.343674367436744 17.001540154015398  6.294389438943894 17.098789878987894  6.294389438943894 17.213201320132015  C 6.294389438943894 17.46490649064906  6.44928492849285 17.59075907590759  6.759075907590759 17.59075907590759  C 6.8998899889989005 17.59075907590759  7.01958195819582 17.55071507150715  7.118151815181518 17.47062706270627  L 18.566336633663365 8.168976897689769  Z " stroke-width="2" stroke="#000000" fill="none" transform="matrix(1 0 0 1 18 9 )" mask="url(#clip60)" />
    <path d="M 0 18.860726072607264  L 17.573597359735974 4.582178217821784  L 26.36039603960396 11.72145214521452  L 8.786798679867987 26  L 0 26  L 0 18.860726072607264  Z " stroke-width="2" stroke="#000000" fill="none" transform="matrix(1 0 0 1 18 9 )" mask="url(#clip60)" />
    <path d="M 31.21848184818482 4.667986798679867  C 31.73949394939494 5.114191419141915  32 5.634763476347635  32 6.22970297029703  C 32 6.836083608360836  31.73949394939494 7.3509350935093485  31.21848184818482 7.774257425742576  L 27.71221122112211 10.623102310231022  L 18.925412541254126 3.483828382838285  L 22.43168316831683 0.6521452145214508  C 22.938613861386138 0.217381738173815  23.572277227722772 0  24.332673267326733 0  C 25.078987898789883 0  25.719691969196923 0.217381738173815  26.254785478547856 0.6521452145214508  L 31.21848184818482 4.667986798679867  Z " stroke-width="2" stroke="#000000" fill="none" transform="matrix(1 0 0 1 18 9 )" mask="url(#clip60)" />
  </g>
</svg>