<?xml version="1.0" encoding="utf-8"?>
<svg version="1.1" xmlns:xlink="http://www.w3.org/1999/xlink" width="101px" height="91px" xmlns="http://www.w3.org/2000/svg">
  <g transform="matrix(1 0 0 1 -148 -14 )">
    <path d="M 57.16397550111359 76.48046875  C 57.52013734224202 76.13411458333333  57.69821826280623 75.70572916666666  57 75.1953125  L 57 64.8046875  C 57.69821826280623 64.29427083333333  57.52013734224202 63.865885416666664  57.16397550111359 63.51953124999999  C 56.80781365998516 63.173177083333336  56.38604305864885 63  55.89866369710468 63  L 45.10133630289533 63  C 44.613956941351155 63  44.19218634001485 63.173177083333336  43.83602449888642 63.51953124999999  C 43.47986265775798 63.865885416666664  43.301781737193764 64.29427083333333  44 64.8046875  L 44 75.1953125  C 43.301781737193764 75.70572916666666  43.47986265775798 76.13411458333333  43.83602449888642 76.48046875  C 44.19218634001485 76.82682291666666  44.613956941351155 77  45.10133630289533 77  L 55.89866369710468 77  C 56.38604305864885 77  56.80781365998516 76.82682291666666  57.16397550111359 76.48046875  Z M 56.99526726057906 55.64453125  C 57.3514291017075 55.40755208333333  57.54825538233111 55.10677083333333  57.58574610244989 54.7421875  L 58.59799554565702 29.640625  C 58.59799554565702 29.203125000000004  58.4105419450631 28.856770833333325  58.03563474387528 28.601562499999996  C 57.54825538233112 28.200520833333325  57.098366740905725 28  56.68596881959911 28  L 44.31403118040089 28  C 43.90163325909429 28  43.4517446176689 28.200520833333325  42.96436525612472 28.601562499999996  C 42.5894580549369 28.856770833333325  42.40200445434298 29.23958333333332  42.40200445434298 29.749999999999996  L 43.35801781737194 54.7421875  C 43.35801781737194 55.10677083333333  43.54547141796586 55.40755208333333  43.920378619153674 55.64453125  C 44.295285820341505 55.88151041666666  44.745174461766894 56  45.27004454342984 56  L 55.67371937639198 56  C 56.19858945805494 56  56.63910541945063 55.88151041666666  56.99526726057906 55.64453125  Z M 54.15534521158129 0.9843750000000016  C 55.28006681514477 1.6406249999999991  56.161098737936165 2.5338541666666603  56.79844097995546 3.6640625000000044  L 99.98775055679288 80.6640625  C 101.29992576095027 82.9609375  101.26243504083148 85.2578125  99.87527839643653 87.5546875  C 99.23793615441723 88.61197916666666  98.36627691165555 89.45052083333334  97.26030066815144 90.0703125  C 96.15432442464737 90.69010416666666  94.96399406087603 91  93.68930957683742 91  L 7.310690423162584 91  C 6.03600593912398 91  4.845675575352636 90.69010416666666  3.7396993318485525 90.0703125  C 2.6337230883444693 89.45052083333334  1.7620638455827766 88.61197916666666  1.1247216035634744 87.5546875  C -0.2624350408314774 85.2578125  -0.2999257609502599 82.9609375  1.012249443207127 80.6640625  L 44.20155902004454 3.6640625000000044  C 44.83890126206386 2.5338541666666603  45.71993318485524 1.6406249999999991  46.84465478841871 0.9843750000000016  C 47.96937639198219 0.3281250000000039  49.187824795842616 0  50.5 0  C 51.81217520415739 0  53.03062360801782 0.3281250000000039  54.15534521158129 0.9843750000000016  Z " fill-rule="nonzero" fill="#f59a23" stroke="none" transform="matrix(1 0 0 1 148 14 )" />
  </g>
</svg>