<?xml version="1.0" encoding="utf-8"?>
<svg version="1.1" xmlns:xlink="http://www.w3.org/1999/xlink" width="99px" height="184px" xmlns="http://www.w3.org/2000/svg">
  <g transform="matrix(1 0 0 1 -39 -234 )">
    <path d="M 93.5859375 56.03636363636364  C 97.1953125 59.93939393939392  99 64.67878787878787  99 70.25454545454545  L 99 113.74545454545455  C 99 116.53333333333333  98.09765625000001 118.9030303030303  96.29296875 120.85454545454544  C 94.48828125 122.8060606060606  92.29687500000001 123.78181818181818  89.71875 123.78181818181818  C 87.14062500000001 123.78181818181818  84.94921875000001 122.8060606060606  83.14453125 120.85454545454544  C 81.33984375 118.9030303030303  80.4375 116.53333333333333  80 113.74545454545455  L 80 76.94545454545455  L 74 76.94545454545455  L 74 172.2909090909091  C 74.25 175.4969696969697  73.1865234375 178.25  71.0595703125 180.54999999999998  C 68.9326171875 182.85  66.38671875000001 184  63.421875 184  C 60.45703125000001 184  57.9111328125 182.85  55.7841796875 180.54999999999998  C 53.6572265625 178.25  52.59375 175.4969696969697  52 172.2909090909091  L 52 123.78181818181818  L 47 123.78181818181818  L 47 172.2909090909091  C 46.40625000000001 175.4969696969697  45.34277343750001 178.25  43.2158203125 180.54999999999998  C 41.08886718750001 182.85  38.54296875000001 184  35.578125 184  C 32.61328125000001 184  30.0673828125 182.85  27.9404296875 180.54999999999998  C 25.8134765625 178.25  24.75 175.4969696969697  25 172.2909090909091  L 25 76.94545454545455  L 19 76.94545454545455  L 19 113.74545454545455  C 18.5625 116.53333333333333  17.66015625 118.9030303030303  15.85546875 120.85454545454544  C 14.050781250000002 122.8060606060606  11.859375 123.78181818181818  9.28125 123.78181818181818  C 6.703125000000001 123.78181818181818  4.511718750000001 122.8060606060606  2.70703125 120.85454545454544  C 0.9023437499999999 118.9030303030303  0 116.53333333333333  0 113.74545454545455  L 0 70.25454545454545  C 0 64.67878787878787  1.8046874999999998 59.93939393939392  5.4140625 56.03636363636364  C 9.023437500000002 52.13333333333331  13.406250000000002 50.18181818181818  18.5625 51  L 80.4375 51  C 85.59375000000001 50.18181818181818  89.97656250000001 52.13333333333331  93.5859375 56.03636363636364  Z M 64.82373046875 6.847727272727275  C 69.04541015625001 11.412878787878764  71.15625 16.936363636363637  71.15625 23.418181818181825  C 71.15625 29.899999999999995  69.04541015625001 35.42348484848485  64.82373046875 39.98863636363636  C 60.60205078125001 44.553787878787865  55.494140625 46.83636363636363  49.5 46.83636363636363  C 43.505859375 46.83636363636363  38.39794921875 44.553787878787865  34.17626953125 39.98863636363636  C 29.954589843750004 35.42348484848485  27.84375 29.899999999999995  27.84375 23.418181818181825  C 27.84375 16.936363636363637  29.954589843750004 11.412878787878764  34.17626953125 6.847727272727275  C 38.39794921875 2.282575757575745  43.505859375 0  49.5 0  C 55.494140625 0  60.60205078125001 2.282575757575745  64.82373046875 6.847727272727275  Z " fill-rule="nonzero" fill="#000000" stroke="none" transform="matrix(1 0 0 1 39 234 )" />
  </g>
</svg>