<?xml version="1.0" encoding="utf-8"?>
<svg version="1.1" xmlns:xlink="http://www.w3.org/1999/xlink" width="10px" height="11px" xmlns="http://www.w3.org/2000/svg">
  <g transform="matrix(1 0 0 1 -300 -22 )">
    <path d="M 9.828178694158074 5.246492985971944  C 9.942726231386027 5.319973279893119  10 5.404475617902471  10 5.5  C 10 5.595524382097528  9.942726231386027 5.68002672010688  9.828178694158074 5.753507014028056  L 1.8213058419243986 10.889779559118237  C 1.7067583046964492 10.963259853039412  1.575028636884307 11  1.4261168384879723 11  C 1.2772050400916382 11  1.1454753722794961 10.963259853039412  1.0309278350515463 10.889779559118237  L 0.1718213058419244 10.33867735470942  C 0.05727376861397484 10.265197060788243  0 10.180694722778892  0 10.085170340681362  C 0 9.989645958583834  0.05727376861397484 9.905143620574483  0.1718213058419244 9.831663326653306  L 6.9243986254295535 5.5  L 0.1718213058419244 1.1683366733466933  C 0.05727376861397484 1.0948563794255173  0 1.0103540414161651  0 0.9148296593186376  C 0 0.8193052772211075  0.05727376861397484 0.7348029392117555  0.1718213058419244 0.6613226452905806  L 1.0309278350515463 0.11022044088176364  C 1.1454753722794961 0.03674014696058747  1.2772050400916382 0  1.4261168384879723 0  C 1.575028636884307 0  1.7067583046964492 0.03674014696058747  1.8213058419243986 0.11022044088176364  L 9.828178694158074 5.246492985971944  Z " fill-rule="nonzero" fill="#8c8c8c" stroke="none" transform="matrix(1 0 0 1 300 22 )" />
  </g>
</svg>