<?xml version="1.0" encoding="utf-8"?>
<svg version="1.1" xmlns:xlink="http://www.w3.org/1999/xlink" width="10px" height="11px" xmlns="http://www.w3.org/2000/svg">
  <g transform="matrix(1 0 0 1 -15 -22 )">
    <path d="M 9.828178694158074 0.6613226452905806  C 9.942726231386027 0.7348029392117555  10 0.8193052772211075  10 0.9148296593186376  C 10 1.0103540414161651  9.942726231386027 1.0948563794255173  9.828178694158074 1.1683366733466933  L 3.075601374570447 5.5  L 9.828178694158074 9.831663326653306  C 9.942726231386027 9.905143620574483  10 9.989645958583834  10 10.085170340681362  C 10 10.180694722778892  9.942726231386027 10.265197060788243  9.828178694158074 10.33867735470942  L 8.969072164948454 10.889779559118237  C 8.854524627720505 10.963259853039412  8.722794959908363 11  8.573883161512027 11  C 8.424971363115695 11  8.293241695303553 10.963259853039412  8.1786941580756 10.889779559118237  L 0.1718213058419244 5.753507014028056  C 0.05727376861397484 5.68002672010688  0 5.595524382097528  0 5.5  C 0 5.404475617902471  0.05727376861397484 5.319973279893119  0.1718213058419244 5.246492985971944  L 8.1786941580756 0.11022044088176364  C 8.293241695303553 0.03674014696058747  8.424971363115695 0  8.573883161512027 0  C 8.722794959908363 0  8.854524627720505 0.03674014696058747  8.969072164948454 0.11022044088176364  L 9.828178694158074 0.6613226452905806  Z " fill-rule="nonzero" fill="#000000" stroke="none" transform="matrix(1 0 0 1 15 22 )" />
  </g>
</svg>