<?xml version="1.0" encoding="utf-8"?>
<svg version="1.1" xmlns:xlink="http://www.w3.org/1999/xlink" width="272px" height="276px" xmlns="http://www.w3.org/2000/svg">
  <g transform="matrix(1 0 0 1 -60 -111 )">
    <path d="M 82.73333333333332 56.0625  C 88.02222222222223 62.77083333333331  90.66666666666666 70.91666666666663  90.66666666666666 80.49999999999999  C 90.66666666666666 90.08333333333331  88.02222222222223 98.22916666666667  82.73333333333332 104.93750000000001  C 77.44444444444446 111.64583333333336  71.02222222222223 114.99999999999999  63.46666666666667 114.99999999999999  C 55.91111111111112 114.99999999999999  49.488888888888894 111.64583333333336  44.2 104.93750000000001  C 38.91111111111112 98.22916666666667  36.266666666666666 90.08333333333331  36.266666666666666 80.49999999999999  C 36.266666666666666 70.91666666666663  38.91111111111112 62.77083333333331  44.2 56.0625  C 49.488888888888894 49.35416666666663  55.91111111111112 45.99999999999999  63.46666666666667 45.99999999999999  C 71.02222222222223 45.99999999999999  77.44444444444446 49.35416666666663  82.73333333333332 56.0625  Z M 176.8 74.75000000000001  L 235 149.50000000000003  L 235 230  L 37 230  L 37 195.49999999999997  L 81.6 138  L 104.26666666666668 166.75000000000003  L 176.8 74.75000000000001  Z M 252.52083333333331 24.70703124999999  C 251.62361111111113 23.56901041666664  250.56111111111113 23.00000000000001  249.33333333333331 23  L 22.666666666666664 23  C 21.438888888888894 23.00000000000001  20.376388888888894 23.56901041666664  19.479166666666664 24.70703124999999  C 18.581944444444446 25.84505208333331  18.133333333333333 27.19270833333331  19 28.74999999999999  L 19 247.25  C 18.133333333333333 248.80729166666669  18.581944444444446 250.15494791666669  19.479166666666664 251.29296875  C 20.376388888888894 252.43098958333334  21.438888888888894 253  22.666666666666664 253  L 249.33333333333331 253  C 250.56111111111113 253  251.62361111111113 252.43098958333334  252.52083333333331 251.29296875  C 253.41805555555555 250.15494791666669  253.86666666666667 248.80729166666669  253 247.25  L 253 28.74999999999999  C 253.86666666666667 27.19270833333331  253.41805555555555 25.84505208333331  252.52083333333331 24.70703124999999  Z M 265.34166666666664 8.44531250000001  C 269.78055555555557 14.07552083333332  272.00000000000006 20.84375000000001  272 28.74999999999999  L 272 247.25  C 272.00000000000006 255.15625  269.78055555555557 261.9244791666667  265.34166666666664 267.5546875  C 260.90277777777777 273.1848958333333  255.56666666666666 276  249.33333333333331 276  L 22.666666666666664 276  C 16.433333333333334 276  11.097222222222225 273.1848958333333  6.658333333333333 267.5546875  C 2.2194444444444446 261.9244791666667  0 255.15625  0 247.25  L 0 28.74999999999999  C 0 20.84375000000001  2.2194444444444446 14.07552083333332  6.658333333333333 8.44531250000001  C 11.097222222222225 2.8151041666666394  16.433333333333334 0  22.666666666666664 0  L 249.33333333333331 0  C 255.56666666666666 0  260.90277777777777 2.8151041666666394  265.34166666666664 8.44531250000001  Z " fill-rule="nonzero" fill="#0d0b64" stroke="none" fill-opacity="0.9921568627450981" transform="matrix(1 0 0 1 60 111 )" />
  </g>
</svg>