<?xml version="1.0" encoding="utf-8"?>
<svg version="1.1" xmlns:xlink="http://www.w3.org/1999/xlink" width="35px" height="32px" xmlns="http://www.w3.org/2000/svg">
  <g transform="matrix(1 0 0 1 -8 -5 )">
    <path d="M 34.36774193548387 4.417508417508419  C 34.789247311827964 4.920314253647586  35.00000000000001 5.530864197530864  35 6.249158249158249  C 35.00000000000001 6.967452300785631  34.789247311827964 7.578002244668909  34.36774193548387 8.08080808080808  L 18.019354838709678 27.58249158249158  L 14.948387096774194 31.245791245791246  C 14.52688172043011 31.748597081930416  14.015053763440863 32  13.412903225806453 32  C 12.810752688172043 32  12.298924731182797 31.748597081930416  11.87741935483871 31.245791245791246  L 8.806451612903224 27.58249158249158  L 0.6322580645161291 17.831649831649834  C 0.21075268817204323 17.32884399551066  0 16.71829405162738  0 16  C 0 15.281705948372615  0.21075268817204323 14.671156004489337  0.6322580645161291 14.16835016835017  L 3.703225806451613 10.505050505050505  C 4.124731182795699 10.002244668911334  4.636559139784947 9.750841750841747  5.238709677419355 9.75084175084175  C 5.840860215053765 9.750841750841747  6.3526881720430115 10.002244668911334  6.774193548387097 10.505050505050505  L 13.412903225806453 18.45117845117845  L 28.2258064516129 0.7542087542087543  C 28.647311827956994 0.2514029180695836  29.15913978494624 0  29.761290322580646 0  C 30.363440860215054 0  30.875268817204304 0.2514029180695836  31.296774193548387 0.7542087542087543  L 34.36774193548387 4.417508417508419  Z " fill-rule="nonzero" fill="#000000" stroke="none" transform="matrix(1 0 0 1 8 5 )" />
  </g>
</svg>