<?xml version="1.0" encoding="utf-8"?>
<svg version="1.1" xmlns:xlink="http://www.w3.org/1999/xlink" width="31px" height="32px" xmlns="http://www.w3.org/2000/svg">
  <g transform="matrix(1 0 0 1 -10 -5 )">
    <path d="M 30.26936026936027 23.919191919191917  C 30.756453423120092 24.421997755331084  31 25.032547699214362  31 25.75084175084175  C 31 26.46913580246914  30.756453423120092 27.07968574635241  30.26936026936027 27.58249158249158  L 26.72053872053872 31.245791245791246  C 26.233445566778904 31.748597081930416  25.641975308641975 32  24.946127946127945 32  C 24.25028058361392 32  23.658810325476995 31.748597081930416  23.171717171717173 31.245791245791246  L 15.5 23.32659932659933  L 7.828282828282829 31.245791245791246  C 7.341189674523009 31.748597081930416  6.749719416386084 32  6.053872053872054 32  C 5.358024691358025 32  4.766554433221101 31.748597081930416  4.279461279461279 31.245791245791246  L 0.7306397306397306 27.58249158249158  C 0.24354657687991044 27.07968574635241  0 26.46913580246914  0 25.75084175084175  C 0 25.032547699214362  0.24354657687991044 24.421997755331084  0.7306397306397306 23.919191919191917  L 8.402356902356901 16  L 0.7306397306397306 8.08080808080808  C 0.24354657687991044 7.578002244668909  0 6.967452300785634  0 6.249158249158249  C 0 5.530864197530864  0.24354657687991044 4.920314253647582  0.7306397306397306 4.417508417508419  L 4.279461279461279 0.7542087542087543  C 4.766554433221101 0.2514029180695836  5.358024691358025 0  6.053872053872054 0  C 6.749719416386084 0  7.341189674523009 0.2514029180695836  7.828282828282829 0.7542087542087543  L 15.5 8.673400673400675  L 23.171717171717173 0.7542087542087543  C 23.658810325476995 0.2514029180695836  24.25028058361392 0  24.946127946127945 0  C 25.641975308641975 0  26.233445566778904 0.2514029180695836  26.72053872053872 0.7542087542087543  L 30.26936026936027 4.417508417508419  C 30.756453423120092 4.920314253647582  31 5.530864197530864  31 6.249158249158249  C 31 6.967452300785634  30.756453423120092 7.578002244668909  30.26936026936027 8.08080808080808  L 22.597643097643097 16  L 30.26936026936027 23.919191919191917  Z " fill-rule="nonzero" fill="#000000" stroke="none" transform="matrix(1 0 0 1 10 5 )" />
  </g>
</svg>