<?xml version="1.0" encoding="utf-8"?>
<svg version="1.1" xmlns:xlink="http://www.w3.org/1999/xlink" width="70px" height="61px" xmlns="http://www.w3.org/2000/svg">
  <g transform="matrix(1 0 0 1 -40 -45 )">
    <path d="M 66.9921875 0.20401337792642127  C 67.72135416666667 -0.09067261241174429  68.40494791666667 -0.022668153102932687  69.04296875 0.40802675585284254  C 69.68098958333334 0.8613898179115572  70 1.4620958751393547  70 2.210144927536235  L 70 50.085284280936456  C 70 50.53864734299516  69.87467447916667 50.94667409884801  69.6240234375 51.30936454849498  C 69.37337239583334 51.67205499814196  69.04296875 51.932738758825714  68.6328125 52.09141583054626  L 46.7578125 60.79598662207358  C 46.2109375 61.045336306205876  45.6640625 61.045336306205876  45.1171875 60.79598662207358  L 24.0625 52.4314381270903  L 3.0078125 60.79598662207358  C 2.779947916666667 60.909327387588256  2.506510416666667 60.965997770345595  2.1875 60.965997770345595  C 1.7545572916666667 60.965997770345595  1.3444010416666667 60.841322928279446  0.95703125 60.591973244147155  C 0.31901041666666663 60.13861018208844  0 59.537904124860646  0 58.789855072463766  L 0 10.914715719063544  C 0 10.461352657004824  0.12532552083333331 10.05332590115198  0.3759765625 9.690635451505017  C 0.6266276041666667 9.32794500185804  0.95703125 9.06726124117428  1.3671875 8.908584169453738  L 23.2421875 0.20401337792642127  C 23.7890625 -0.04533630620587892  24.3359375 -0.04533630620587892  24.8828125 0.20401337792642127  L 45.9375 8.5685618729097  L 66.9921875 0.20401337792642127  Z M 44 12.818840579710148  L 26 4.998327759197321  L 26 48.18115942028985  L 44 56.00167224080267  L 44 12.818840579710148  Z M 23 4.998327759197321  L 5 12.376811594202898  L 5 55.559643255295434  L 23 48.18115942028985  L 23 4.998327759197321  Z M 47 56.00167224080267  L 65 48.6231884057971  L 65 5.4403567447045695  L 47 12.818840579710148  L 47 56.00167224080267  Z " fill-rule="nonzero" fill="#ffffff" stroke="none" transform="matrix(1 0 0 1 40 45 )" />
  </g>
</svg>