<?xml version="1.0" encoding="utf-8"?>
<svg version="1.1" xmlns:xlink="http://www.w3.org/1999/xlink" width="70px" height="70px" xmlns="http://www.w3.org/2000/svg">
  <g transform="matrix(1 0 0 1 -40 -35 )">
    <path d="M 16.534124629080118 40.296735905044514  L 40.296735905044514 16.534124629080118  L 53.424332344213646 29.661721068249253  L 29.66172106824926 53.42433234421365  L 16.534124629080118 40.296735905044514  Z M 29.66172106824926 57.95252225519288  C 30.409495548961427 57.95252225519288  31.032640949554903 57.70326409495549  31.531157270029674 57.20474777448071  L 57.20474777448071 31.531157270029674  C 57.73095944609298 31.004945598417407  57.99406528189911 30.381800197823935  57.99406528189911 29.661721068249253  C 57.99406528189911 28.941641938674582  57.73095944609298 28.318496538081103  57.20474777448071 27.792284866468844  L 42.16617210682493 12.753709198813057  C 41.667655786350146 12.255192878338283  41.04451038575667 12.00593471810089  40.296735905044514 12.00593471810089  C 39.54896142433235 12.00593471810089  38.925816023738875 12.255192878338283  38.42729970326409 12.753709198813057  L 12.753709198813057 38.42729970326409  C 12.227497527200793 38.953511374876356  11.964391691394658 39.57665677546983  11.964391691394658 40.296735905044514  C 11.964391691394658 41.016815034619185  12.227497527200793 41.639960435212664  12.753709198813057 42.16617210682493  L 27.79228486646884 57.20474777448071  C 28.290801186943618 57.70326409495549  28.913946587537094 57.95252225519288  29.66172106824926 57.95252225519288  Z M 70 26.982195845697326  C 70 28.463897131552915  69.48763600395648 29.71711177052423  68.46290801186943 30.741839762611274  L 30.783382789317507 68.46290801186943  C 29.758654797230466 69.48763600395648  28.50544015825915 70  27.023738872403563 70  C 25.542037586547973 70  24.28882294757666 69.48763600395648  23.264094955489615 68.46290801186943  L 18.02967359050445 63.22848664688428  C 19.58061325420376 61.67754698318497  20.356083086053413 59.79426310583581  20.356083086053413 57.5786350148368  C 20.356083086053413 55.36300692383778  19.58061325420376 53.47972304648862  18.02967359050445 51.92878338278932  C 16.478733926805145 50.37784371909001  14.595450049455986 49.602373887240354  12.379821958456974 49.602373887240354  C 10.164193867457964 49.602373887240354  8.280909990108803 50.37784371909001  6.729970326409496 51.92878338278932  L 1.5370919881305638 46.69436201780415  C 0.5123639960435217 45.66963402571711  0 44.41641938674579  0 42.9347181008902  C 0 41.453016815034616  0.5123639960435217 40.1998021760633  1.5370919881305638 39.175074183976264  L 39.21661721068249 1.5370919881305656  C 40.241345202769544 0.5123639960435167  41.49455984174086 0  42.97626112759644 0  C 44.45796241345204 0  45.71117705242335 0.5123639960435167  46.73590504451038 1.5370919881305656  L 51.92878338278931 6.729970326409498  C 50.377843719090016 8.280909990108798  49.602373887240354 10.164193867457957  49.602373887240354 12.37982195845697  C 49.602373887240354 14.595450049455982  50.377843719090016 16.478733926805134  51.92878338278931 18.02967359050445  C 53.47972304648863 19.580613254203758  55.363006923837794 20.356083086053417  57.5786350148368 20.356083086053417  C 59.79426310583582 20.356083086053417  61.67754698318497 19.580613254203758  63.22848664688428 18.02967359050445  L 68.46290801186943 23.222551928783382  C 69.48763600395648 24.247279920870415  70 25.500494559841737  70 26.982195845697326  Z " fill-rule="nonzero" fill="#ffffff" stroke="none" transform="matrix(1 0 0 1 40 35 )" />
  </g>
</svg>