<?xml version="1.0" encoding="utf-8"?>
<svg version="1.1" xmlns:xlink="http://www.w3.org/1999/xlink" width="75px" height="68px" xmlns="http://www.w3.org/2000/svg">
  <g transform="matrix(1 0 0 1 -38 -34 )">
    <path d="M 20 24.28571428571428  C 20 27.802083333333332  21.054687499999996 31.040178571428573  23.1640625 34  C 18.9453125 34.126488095238095  15.494791666666668 35.74553571428571  12.8125 38.857142857142854  L 7.578125 38.857142857142854  C 5.442708333333333 38.857142857142854  3.645833333333334 38.34486607142857  2.1875 37.3203125  C 0.7291666666666665 36.29575892857143  0 34.796875  0 32.823660714285715  C 0 23.893601190476186  1.614583333333333 19.428571428571427  4.843750000000001 19.428571428571427  C 5 19.428571428571427  5.56640625 19.694196428571427  6.54296875 20.225446428571427  C 7.51953125 20.756696428571427  8.7890625 21.294270833333332  10.3515625 21.838169642857146  C 11.9140625 22.382068452380953  13.463541666666666 22.654017857142854  15 22.654017857142854  C 16.744791666666668 22.654017857142854  18.4765625 22.363095238095234  20.1953125 21.78125  C 20.065104166666668 22.717261904761894  20 23.552083333333332  20 24.28571428571428  Z M 64.86328125 54.244419642857146  C 64.95442708333334 55.521949404761905  65 56.83110119047619  65 58.171875  C 65 61.207589285714285  64.04947916666667 63.60453869047619  62.1484375 65.36272321428572  C 60.24739583333334 67.12090773809524  57.72135416666667 68  54.57031250000001 68  L 20.4296875 68  C 17.278645833333336 68  14.75260416666667 67.12090773809524  12.8515625 65.36272321428572  C 10.950520833333334 63.60453869047619  10 61.207589285714285  10 58.171875  C 10 56.83110119047619  10.045572916666668 55.521949404761905  10.13671875 54.244419642857146  C 10.227864583333336 52.96688988095238  10.41015625 51.588169642857146  10.68359375 50.10825892857143  C 10.95703125 48.62834821428571  11.302083333333336 47.25595238095238  11.71875 45.99107142857143  C 12.135416666666668 44.72619047619047  12.6953125 43.492931547619044  13.3984375 42.291294642857146  C 14.1015625 41.089657738095234  14.908854166666668 40.065104166666664  15.8203125 39.21763392857143  C 16.731770833333336 38.37016369047619  17.845052083333336 37.69345238095238  19.16015625 37.1875  C 20.47526041666667 36.68154761904761  21.927083333333336 36.42857142857143  23.515625 36.42857142857143  C 23.77604166666667 36.42857142857143  24.3359375 36.70052083333333  25.1953125 37.244419642857146  C 26.0546875 37.78831845238095  27.005208333333332 38.39546130952381  28.046875 39.06584821428571  C 29.08854166666667 39.73623511904761  30.481770833333336 40.34337797619047  32.2265625 40.88727678571429  C 33.97135416666667 41.431175595238095  35.72916666666667 41.703125  37.5 41.703125  C 39.270833333333336 41.703125  41.028645833333336 41.431175595238095  42.7734375 40.88727678571429  C 44.51822916666667 40.34337797619047  45.91145833333334 39.73623511904761  46.95312500000001 39.06584821428571  C 47.994791666666664 38.39546130952381  48.9453125 37.78831845238095  49.8046875 37.244419642857146  C 50.6640625 36.70052083333333  51.223958333333336 36.42857142857143  51.48437499999999 36.42857142857143  C 53.07291666666667 36.42857142857143  54.52473958333334 36.68154761904761  55.83984375 37.1875  C 57.15494791666667 37.69345238095238  58.268229166666664 38.37016369047619  59.1796875 39.21763392857143  C 60.09114583333334 40.065104166666664  60.8984375 41.089657738095234  61.60156250000001 42.291294642857146  C 62.3046875 43.492931547619044  62.86458333333334 44.72619047619047  63.28125 45.99107142857143  C 63.69791666666667 47.25595238095238  64.04296875 48.62834821428571  64.31640625 50.10825892857143  C 64.58984375 51.588169642857146  64.77213541666667 52.96688988095238  64.86328125 54.244419642857146  Z M 22.0703125 2.845982142857145  C 24.0234375 4.743303571428573  25 7.03273809523809  25 9.714285714285717  C 25 12.39583333333333  24.0234375 14.685267857142854  22.0703125 16.58258928571428  C 20.1171875 18.47991071428572  17.760416666666668 19.428571428571427  15 19.428571428571427  C 12.239583333333336 19.428571428571427  9.8828125 18.47991071428572  7.9296875 16.58258928571428  C 5.9765625 14.685267857142854  5 12.39583333333333  5 9.714285714285717  C 5 7.03273809523809  5.9765625 4.743303571428573  7.9296875 2.845982142857145  C 9.8828125 0.9486607142857175  12.239583333333336 0  15 0  C 17.760416666666668 0  20.1171875 0.9486607142857175  22.0703125 2.845982142857145  Z M 48.10546875 13.983258928571427  C 51.03515625 16.829241071428573  52.5 20.263392857142854  52.5 24.28571428571428  C 52.5 28.30803571428572  51.03515625 31.7421875  48.10546875 34.588169642857146  C 45.17578125 37.43415178571429  41.640625 38.857142857142854  37.5 38.857142857142854  C 33.35937500000001 38.857142857142854  29.824218750000004 37.43415178571429  26.89453125 34.588169642857146  C 23.96484375 31.7421875  22.5 28.30803571428572  22.5 24.28571428571428  C 22.5 20.263392857142854  23.96484375 16.829241071428573  26.89453125 13.983258928571427  C 29.824218750000004 11.137276785714283  33.35937500000001 9.714285714285717  37.5 9.714285714285717  C 41.640625 9.714285714285717  45.17578125 11.137276785714283  48.10546875 13.983258928571427  Z M 70.15625 19.428571428571427  C 73.38541666666669 19.428571428571427  75.00000000000001 23.893601190476186  75 32.823660714285715  C 75.00000000000001 34.796875  74.27083333333334 36.29575892857143  72.8125 37.3203125  C 71.35416666666667 38.34486607142857  69.55729166666667 38.857142857142854  67.421875 38.857142857142854  L 62.18750000000001 38.857142857142854  C 59.50520833333334 35.74553571428571  56.0546875 34.126488095238095  51.8359375 34  C 53.9453125 31.040178571428573  54.99999999999999 27.802083333333332  54.99999999999999 24.28571428571428  C 54.99999999999999 23.552083333333332  54.934895833333336 22.717261904761894  54.8046875 21.78125  C 56.5234375 22.363095238095234  58.255208333333336 22.654017857142854  60 22.654017857142854  C 61.536458333333336 22.654017857142854  63.0859375 22.382068452380953  64.6484375 21.838169642857146  C 66.2109375 21.294270833333332  67.48046875 20.756696428571427  68.45703125 20.225446428571427  C 69.43359375 19.694196428571427  70 19.428571428571427  70.15625 19.428571428571427  Z M 67.0703125 2.845982142857145  C 69.0234375 4.743303571428573  70 7.03273809523809  70 9.714285714285717  C 70 12.39583333333333  69.0234375 14.685267857142854  67.0703125 16.58258928571428  C 65.1171875 18.47991071428572  62.76041666666667 19.428571428571427  60 19.428571428571427  C 57.239583333333336 19.428571428571427  54.8828125 18.47991071428572  52.9296875 16.58258928571428  C 50.9765625 14.685267857142854  50 12.39583333333333  50 9.714285714285717  C 50 7.03273809523809  50.9765625 4.743303571428573  52.9296875 2.845982142857145  C 54.8828125 0.9486607142857175  57.239583333333336 0  60 0  C 62.76041666666667 0  65.1171875 0.9486607142857175  67.0703125 2.845982142857145  Z " fill-rule="nonzero" fill="#ffffff" stroke="none" transform="matrix(1 0 0 1 38 34 )" />
  </g>
</svg>