<?xml version="1.0" encoding="utf-8"?>
<svg version="1.1" xmlns:xlink="http://www.w3.org/1999/xlink" width="65px" height="58px" xmlns="http://www.w3.org/2000/svg">
  <g transform="matrix(1 0 0 1 -43 -43 )">
    <path d="M 0 12.428571428571429  L 32.5 0  L 65 12.428571428571429  L 65 16.57142857142857  L 60.666666666666664 16.57142857142857  C 60.666666666666664 17.132440476190478  60.435329861111114 17.617931547619047  59.97265625 18.02790178571429  C 59.50998263888889 18.43787202380952  58.962673611111114 18.642857142857142  58.330729166666664 19  L 6.669270833333333 19  C 6.037326388888889 18.642857142857142  5.490017361111112 18.43787202380952  5.02734375 18.02790178571429  C 4.564670138888889 17.617931547619047  4.333333333333333 17.132440476190478  4.333333333333333 16.57142857142857  L 0 16.57142857142857  L 0 12.428571428571429  Z M 9 45.57142857142857  L 9 20.71428571428571  L 18 20.71428571428571  L 18 45.57142857142857  L 22 45.57142857142857  L 22 20.71428571428571  L 31 20.71428571428571  L 31 45.57142857142857  L 34 45.57142857142857  L 34 20.71428571428571  L 43 20.71428571428571  L 43 45.57142857142857  L 47 45.57142857142857  L 47 20.71428571428571  L 56 20.71428571428571  L 56 45.57142857142857  L 58.330729166666664 45.57142857142857  C 58.962673611111114 45.57142857142857  59.50998263888889 45.77641369047619  59.97265625 46.18638392857143  C 60.435329861111114 46.59635416666667  60.666666666666664 47.08184523809524  60.666666666666664 47.64285714285714  L 60.666666666666664 49  L 4.333333333333333 49  L 4.333333333333333 47.64285714285714  C 4.333333333333333 47.08184523809524  4.564670138888889 46.59635416666667  5.02734375 46.18638392857143  C 5.490017361111112 45.77641369047619  6.037326388888889 45.57142857142857  6.669270833333333 45.57142857142857  L 9 45.57142857142857  Z M 2.3359375 51  L 62.6640625 51  C 63.29600694444444 51.78571428571429  63.84331597222223 51.9906994047619  64.30598958333334 52.40066964285714  C 64.76866319444446 52.81063988095238  65.00000000000001 53.296130952380956  65 53.85714285714286  L 65 58  L 0 58  L 0 53.85714285714286  C 0 53.296130952380956  0.23133680555555555 52.81063988095238  0.6940104166666666 52.40066964285714  C 1.156684027777778 51.9906994047619  1.7039930555555556 51.78571428571429  2.3359375 51  Z " fill-rule="nonzero" fill="#ffffff" stroke="none" transform="matrix(1 0 0 1 43 43 )" />
  </g>
</svg>