<?xml version="1.0" encoding="utf-8"?>
<svg version="1.1" xmlns:xlink="http://www.w3.org/1999/xlink" width="59px" height="51px" xmlns="http://www.w3.org/2000/svg">
  <g transform="matrix(1 0 0 1 -46 -50 )">
    <path d="M 48.595982142857146 27.359374999999996  C 52.72247023809524 23.197916666666664  54.785714285714285 19.257812499999996  54.785714285714285 15.5390625  C 54.785714285714285 13.74609375  54.54975818452381 12.16341145833333  54.077845982142854 10.791015624999998  C 53.605933779761905 9.418619791666659  53.00232514880953 8.32845052083333  52.267020089285715 7.5205078125  C 51.53171502976191 6.712565104166663  50.63727678571429 6.054036458333333  49.583705357142854 5.544921875000002  C 48.53013392857143 5.03580729166666  47.498511904761905 4.69270833333333  46.488839285714285 4.515624999999998  C 45.47916666666667 4.33854166666666  44.403645833333336 4.250000000000002  43.262276785714285 4.250000000000002  C 42.12090773809524 4.250000000000002  40.89174107142857 4.5322265625  39.574776785714285 5.096679687500002  C 38.2578125 5.661132812499998  37.04510788690476 6.369466145833329  35.93666294642857 7.2216796875  C 34.82821800595239 8.073893229166659  33.87890625 8.870768229166659  33.08872767857143 9.6123046875  C 32.29854910714286 10.353841145833329  31.64006696428572 11.034505208333332  31.11328125 11.654296875  C 30.71819196428572 12.141276041666664  30.18043154761905 12.384765624999998  29.5 12.384765624999998  C 28.819568452380953 12.384765624999998  28.281808035714285 12.141276041666664  27.88671875 11.654296875  C 27.359933035714285 11.034505208333332  26.701450892857142 10.353841145833329  25.911272321428573 9.6123046875  C 25.12109375 8.870768229166659  24.17178199404762 8.073893229166659  23.063337053571427 7.2216796875  C 21.95489211309524 6.369466145833329  20.7421875 5.661132812499998  19.425223214285715 5.096679687500002  C 18.108258928571427 4.5322265625  16.879092261904766 4.250000000000002  15.737723214285715 4.250000000000002  C 14.596354166666668 4.250000000000002  13.520833333333336 4.33854166666666  12.511160714285714 4.515624999999998  C 11.501488095238097 4.69270833333333  10.469866071428571 5.03580729166666  9.416294642857142 5.544921875000002  C 8.362723214285714 6.054036458333333  7.468284970238095 6.712565104166663  6.732979910714286 7.5205078125  C 5.997674851190476 8.32845052083333  5.394066220238095 9.418619791666659  4.922154017857143 10.791015624999998  C 4.450241815476192 12.16341145833333  4.214285714285714 13.74609375  4.214285714285714 15.5390625  C 4.214285714285714 19.257812499999996  6.26655505952381 23.186848958333332  10.37109375 27.326171875000004  L 29.5 45.919921875  L 48.595982142857146 27.359374999999996  Z M 54.818638392857146 4.117187499999998  C 57.60621279761905 6.861979166666663  59 10.66927083333333  59 15.5390625  C 59 20.430989583333332  56.486793154761905 25.411458333333332  51.460379464285715 30.48046875  L 30.94866071428571 50.40234375  C 30.55357142857143 50.80078125  30.070684523809526 51  29.5 51  C 28.929315476190478 51  28.446428571428577 50.80078125  28.051339285714285 50.40234375  L 7.506696428571428 30.414062500000004  C 7.287202380952381 30.236979166666664  6.985398065476192 29.949218749999996  6.601283482142857 29.550781249999996  C 6.217168898809525 29.152343749999996  5.608072916666667 28.427408854166668  4.773995535714286 27.375976562500004  C 3.9399181547619047 26.32454427083333  3.193638392857143 25.24544270833333  2.53515625 24.138671874999996  C 1.876674107142857 23.031901041666668  1.2895275297619049 21.692708333333332  0.7737165178571429 20.12109375  C 0.25790550595238093 18.54947916666666  0 17.022135416666664  0 15.5390625  C 0 10.66927083333333  1.393787202380952 6.861979166666663  4.181361607142857 4.117187499999998  C 6.968936011904763 1.3723958333333326  10.821056547619047 0  15.737723214285715 0  C 17.09858630952381 0  18.486886160714285 0.23795572916666352  19.902622767857142 0.7138671875000019  C 21.318359375 1.189778645833329  22.635323660714285 1.8317057291666634  23.853515625 2.6396484375  C 25.07170758928572 3.447591145833331  26.11979166666667 4.205729166666662  26.997767857142858 4.914062499999998  C 27.87574404761905 5.622395833333329  28.709821428571427 6.375  29.5 7.171875  C 30.29017857142857 6.375  31.124255952380956 5.622395833333329  32.002232142857146 4.914062499999998  C 32.880208333333336 4.205729166666662  33.928292410714285 3.447591145833331  35.146484375 2.6396484375  C 36.364676339285715 1.8317057291666634  37.681640625 1.189778645833329  39.097377232142854 0.7138671875000019  C 40.513113839285715 0.23795572916666352  41.9014136904762 0  43.262276785714285 0  C 48.178943452380956 0  52.03106398809524 1.3723958333333326  54.818638392857146 4.117187499999998  Z " fill-rule="nonzero" fill="#ffffff" stroke="none" transform="matrix(1 0 0 1 46 50 )" />
  </g>
</svg>