<?xml version="1.0" encoding="utf-8"?>
<svg version="1.1" xmlns:xlink="http://www.w3.org/1999/xlink" width="87px" height="88px" xmlns="http://www.w3.org/2000/svg">
  <g transform="matrix(1 0 0 1 -153 -21 )">
    <path d="M 67.798828125 50.24479166666667  C 68.51627604166667 49.519097222222214  68.875 48.659722222222214  68.875 47.66666666666667  L 68.875 40.333333333333336  C 68.875 39.34027777777777  68.51627604166667 38.48090277777777  67.798828125 37.755208333333336  C 67.08138020833334 37.02951388888889  66.23177083333334 36.666666666666664  65.25 37  L 21.75 37  C 20.768229166666668 36.666666666666664  19.918619791666668 37.02951388888889  19.201171875 37.755208333333336  C 18.483723958333336 38.48090277777777  18.125 39.34027777777777  18.125 40.333333333333336  L 18.125 47.66666666666667  C 18.125 48.659722222222214  18.483723958333336 49.519097222222214  19.201171875 50.24479166666667  C 19.918619791666668 50.97048611111111  20.768229166666668 51.33333333333333  21.75 51  L 65.25 51  C 66.23177083333334 51.33333333333333  67.08138020833334 50.97048611111111  67.798828125 50.24479166666667  Z M 81.166015625 21.9140625  C 85.05533854166666 28.655381944444436  87 36.0173611111111  87 44  C 87 51.98263888888889  85.05533854166666 59.34461805555554  81.166015625 66.0859375  C 77.27669270833334 72.82725694444444  71.99967447916667 78.16493055555556  65.3349609375 82.09895833333334  C 58.67024739583334 86.03298611111111  51.391927083333336 88  43.5 88  C 35.60807291666667 88  28.329752604166668 86.03298611111111  21.6650390625 82.09895833333334  C 15.000325520833334 78.16493055555556  9.723307291666668 72.82725694444444  5.833984375 66.0859375  C 1.944661458333333 59.34461805555554  0 51.98263888888889  0 44  C 0 36.0173611111111  1.944661458333333 28.655381944444436  5.833984375 21.9140625  C 9.723307291666668 15.172743055555554  15.000325520833334 9.835069444444436  21.6650390625 5.901041666666663  C 28.329752604166668 1.9670138888888813  35.60807291666667 0  43.5 0  C 51.391927083333336 0  58.67024739583334 1.9670138888888813  65.3349609375 5.901041666666663  C 71.99967447916667 9.835069444444436  77.27669270833334 15.172743055555554  81.166015625 21.9140625  Z " fill-rule="nonzero" fill="#d9001b" stroke="none" transform="matrix(1 0 0 1 153 21 )" />
  </g>
</svg>