<?xml version="1.0" encoding="utf-8"?>
<svg version="1.1" xmlns:xlink="http://www.w3.org/1999/xlink" width="39px" height="30px" xmlns="http://www.w3.org/2000/svg">
  <g transform="matrix(1 0 0 1 -31 -31 )">
    <path d="M 33.78879310344828 11.079545454545453  C 34.57327586206897 10.284090909090905  34.96551724137931 9.318181818181817  34.96551724137931 8.181818181818182  C 34.96551724137931 7.045454545454542  34.57327586206897 6.079545454545454  33.78879310344828 5.284090909090909  C 33.00431034482759 4.4886363636363615  32.05172413793104 4.090909090909091  30.931034482758623 4.090909090909091  L 29.586206896551722 4.090909090909091  L 29.586206896551722 12.272727272727272  L 30.931034482758623 12.272727272727272  C 32.05172413793104 12.272727272727272  33.00431034482759 11.874999999999998  33.78879310344828 11.079545454545453  Z M 1.5759698275862069 28.401988636363637  C 0.525323275862069 27.336647727272727  0 26.051136363636363  0 24  L 37.6551724137931 24  C 37.6551724137931 26.051136363636363  37.12984913793103 27.336647727272727  36.0792025862069 28.401988636363637  C 35.02855603448276 29.467329545454547  33.76077586206897 30  32.275862068965516 30  L 5.379310344827586 30  C 3.8943965517241383 30  2.626616379310345 29.467329545454547  1.5759698275862069 28.401988636363637  Z M 36.63604525862069 2.3970170454545467  C 38.2120150862069 3.995028409090909  39 5.923295454545453  39 8.181818181818182  C 39 10.44034090909091  38.2120150862069 12.368607954545453  36.63604525862069 13.966619318181818  C 35.060075431034484 15.564630681818182  33.158405172413794 16.363636363636363  30.931034482758623 16.363636363636363  L 29.586206896551722 16.363636363636363  L 29.586206896551722 17.045454545454543  C 29.586206896551722 18.352272727272727  29.123922413793107 19.47443181818182  28.19935344827586 20.41193181818182  C 27.274784482758623 21.34943181818182  26.168103448275865 21.81818181818182  24.879310344827587 21.81818181818182  L 10.086206896551724 21.81818181818182  C 8.797413793103448 21.81818181818182  7.69073275862069 21.34943181818182  6.766163793103448 20.41193181818182  C 5.841594827586207 19.47443181818182  5.379310344827586 18.352272727272727  6 17.045454545454543  L 6 1.3636363636363624  C 5.379310344827586 0.9943181818181801  5.512392241379311 0.674715909090905  5.778556034482758 0.40482954545454697  C 6.044719827586207 0.134943181818179  6.359913793103449 0  6.724137931034483 0  L 30.931034482758623 0  C 33.158405172413794 0  35.060075431034484 0.7990056818181812  36.63604525862069 2.3970170454545467  Z " fill-rule="nonzero" fill="#000000" stroke="none" transform="matrix(1 0 0 1 31 31 )" />
  </g>
</svg>