<?xml version="1.0" encoding="utf-8"?>
<svg version="1.1" xmlns:xlink="http://www.w3.org/1999/xlink" width="21px" height="38px" xmlns="http://www.w3.org/2000/svg">
  <g transform="matrix(1 0 0 1 -283 -270 )">
    <path d="M 20.7375 20.96477272727273  C 20.9125 21.31022727272727  21 21.691666666666666  21 22.10909090909091  C 21 22.684848484848484  20.846875 23.174242424242426  20.540625000000002 23.577272727272728  C 20.234375 23.98030303030303  19.8625 24.18181818181818  19.425 24.18181818181818  C 18.8671875 24.18181818181818  18.4296875 23.872348484848487  18.1125 23.25340909090909  L 14.38828125 15.890909090909092  L 13.65 15.890909090909092  L 13.65 18.740909090909092  L 17.70234375 27.614772727272726  C 17.80078125 27.83068181818182  17.849999999999998 28.06818181818182  17.849999999999998 28.327272727272728  C 17.849999999999998 28.70151515151515  17.74609375 29.025378787878786  17.53828125 29.298863636363635  C 17.330468750000005 29.57234848484849  17.084375000000005 29.70909090909091  16.8 29.70909090909091  L 13.65 29.70909090909091  L 13.65 35.581818181818186  C 13.65 36.2439393939394  13.46953125 36.8125  13.10859375 37.2875  C 12.74765625 37.7625  12.315625000000002 38  11.8125 38  L 9.1875 38  C 8.684375000000001 38  8.25234375 37.7625  7.89140625 37.2875  C 7.53046875 36.8125  7.35 36.2439393939394  7.35 35.581818181818186  L 7.35 29.70909090909091  L 4.2 29.70909090909091  C 3.915625 29.70909090909091  3.66953125 29.57234848484849  3.46171875 29.298863636363635  C 3.25390625 29.025378787878786  3.15 28.70151515151515  3.15 28.327272727272728  C 3.15 28.06818181818182  3.19921875 27.83068181818182  3.29765625 27.614772727272726  L 7.35 18.740909090909092  L 7.35 15.890909090909092  L 6.61171875 15.890909090909092  L 2.8875 23.25340909090909  C 2.5703125 23.872348484848487  2.1328125 24.18181818181818  1.575 24.18181818181818  C 1.1375000000000002 24.18181818181818  0.765625 23.98030303030303  0.459375 23.577272727272728  C 0.15312499999999998 23.174242424242426  0 22.684848484848484  0 22.10909090909091  C 0 21.691666666666666  0.0875 21.31022727272727  0.2625 20.96477272727273  L 4.4624999999999995 12.673863636363635  C 5.260937500000001 11.133712121212117  6.223437500000001 10.363636363636363  7.35 10.363636363636363  L 13.65 10.363636363636363  C 14.776562500000002 10.363636363636363  15.739062500000001 11.133712121212117  16.537499999999998 12.673863636363635  L 20.7375 20.96477272727273  Z M 13.100390625 1.414204545454546  C 13.816796875 2.357007575757571  14.175 3.4977272727272726  14.175 4.836363636363638  C 14.175 6.174999999999999  13.816796875 7.315719696969697  13.100390625 8.258522727272727  C 12.383984375 9.201325757575756  11.5171875 9.672727272727272  10.5 9.672727272727272  C 9.4828125 9.672727272727272  8.616015625000001 9.201325757575756  7.899609375 8.258522727272727  C 7.183203125000001 7.315719696969697  6.825 6.174999999999999  6.825 4.836363636363638  C 6.825 3.4977272727272726  7.183203125000001 2.357007575757571  7.899609375 1.414204545454546  C 8.616015625000001 0.4714015151515125  9.4828125 0  10.5 0  C 11.5171875 0  12.383984375 0.4714015151515125  13.100390625 1.414204545454546  Z " fill-rule="nonzero" fill="#000000" stroke="none" transform="matrix(1 0 0 1 283 270 )" />
  </g>
</svg>