<?xml version="1.0" encoding="utf-8"?>
<svg version="1.1" xmlns:xlink="http://www.w3.org/1999/xlink" width="17px" height="38px" xmlns="http://www.w3.org/2000/svg">
  <g transform="matrix(1 0 0 1 -265 -270 )">
    <path d="M 16.0703125 11.572727272727274  C 16.690104166666668 12.378787878787875  17 13.357575757575756  17 14.50909090909091  L 17 23.490909090909092  C 17 24.066666666666666  16.845052083333336 24.55606060606061  16.53515625 24.959090909090907  C 16.225260416666668 25.36212121212121  15.848958333333334 25.563636363636363  15.40625 25.563636363636363  C 14.96354166666667 25.563636363636363  14.587239583333334 25.36212121212121  14.27734375 24.959090909090907  C 13.967447916666668 24.55606060606061  13.8125 24.066666666666666  13.8125 23.490909090909092  L 13.8125 15.890909090909092  L 12.75 15.890909090909092  L 12.75 35.581818181818186  C 12.75 36.2439393939394  12.5673828125 36.8125  12.2021484375 37.2875  C 11.8369140625 37.7625  11.399739583333334 38  10.890625 38  C 10.381510416666668 38  9.9443359375 37.7625  9.5791015625 37.2875  C 9.2138671875 36.8125  9.03125 36.2439393939394  9 35.581818181818186  L 9 25.563636363636363  L 8 25.563636363636363  L 8 35.581818181818186  C 7.968750000000001 36.2439393939394  7.786132812500001 36.8125  7.4208984375 37.2875  C 7.055664062500001 37.7625  6.618489583333335 38  6.109375 38  C 5.600260416666667 38  5.1630859375 37.7625  4.7978515625 37.2875  C 4.4326171875 36.8125  4.25 36.2439393939394  4.25 35.581818181818186  L 4.25 15.890909090909092  L 3.1875 15.890909090909092  L 3.1875 23.490909090909092  C 3.1875 24.066666666666666  3.032552083333333 24.55606060606061  2.72265625 24.959090909090907  C 2.412760416666667 25.36212121212121  2.0364583333333335 25.563636363636363  1.59375 25.563636363636363  C 1.1510416666666667 25.563636363636363  0.7747395833333334 25.36212121212121  0.46484375 24.959090909090907  C 0.15494791666666666 24.55606060606061  0 24.066666666666666  0 23.490909090909092  L 0 14.50909090909091  C 0 13.357575757575756  0.3098958333333333 12.378787878787875  0.9296875 11.572727272727274  C 1.5494791666666667 10.766666666666662  2.3020833333333335 10.363636363636363  3.1875 11  L 13.8125 11  C 14.69791666666667 10.363636363636363  15.450520833333334 10.766666666666662  16.0703125 11.572727272727274  Z M 11.13134765625 1.414204545454546  C 11.856282552083334 2.357007575757571  12.21875 3.4977272727272726  12.21875 4.836363636363638  C 12.21875 6.174999999999999  11.856282552083334 7.315719696969697  11.13134765625 8.258522727272727  C 10.406412760416668 9.201325757575756  9.529296875 9.672727272727272  8.5 9.672727272727272  C 7.470703125 9.672727272727272  6.593587239583334 9.201325757575756  5.86865234375 8.258522727272727  C 5.143717447916667 7.315719696969697  4.78125 6.174999999999999  4.78125 4.836363636363638  C 4.78125 3.4977272727272726  5.143717447916667 2.357007575757571  5.86865234375 1.414204545454546  C 6.593587239583334 0.4714015151515125  7.470703125 0  8.5 0  C 9.529296875 0  10.406412760416668 0.4714015151515125  11.13134765625 1.414204545454546  Z " fill-rule="nonzero" fill="#000000" stroke="none" transform="matrix(1 0 0 1 265 270 )" />
  </g>
</svg>