<?xml version="1.0" encoding="utf-8"?>
<svg version="1.1" xmlns:xlink="http://www.w3.org/1999/xlink" width="39px" height="32px" xmlns="http://www.w3.org/2000/svg">
  <g transform="matrix(1 0 0 1 -154 -325 )">
    <path d="M 15.868622448979593 29.2625  C 15.85204081632653 29.354166666666668  15.868622448979593 29.46666666666667  15.918367346938776 29.6  C 15.918367346938776 29.666666666666668  15.926658163265307 29.833333333333332  15.943239795918366 30.1  C 15.95982142857143 30.366666666666667  15.963966836734695 30.5875  15.955676020408164 30.7625  C 15.947385204081636 30.9375  15.922512755102042 31.133333333333333  15.881058673469388 31.35  C 15.839604591836736 31.56666666666667  15.756696428571429 31.729166666666668  15.63233418367347 31.8375  C 15.50797193877551 31.945833333333333  15.338010204081636 32  15.122448979591836 32  L 7.163265306122449 32  C 5.1900510204081645 32  3.502869897959184 31.29583333333333  2.10172193877551 29.8875  C 0.7005739795918366 28.479166666666668  0 26.78333333333333  0 24.8  L 0 7.199999999999999  C 0 5.2166666666666615  0.7005739795918366 3.520833333333332  2.10172193877551 2.1125000000000007  C 3.502869897959184 0.7041666666666622  5.1900510204081645 0  7.163265306122449 0  L 15.122448979591836 0  C 15.338010204081636 0  15.524553571428573 0.07916666666666217  15.682079081632653 0.2375000000000007  C 15.839604591836736 0.39583333333333215  15.918367346938776 0.5833333333333321  15.918367346938776 0.8000000000000007  C 15.918367346938776 0.8666666666666636  15.926658163265307 1.0333333333333314  15.943239795918366 1.3000000000000007  C 15.95982142857143 1.5666666666666629  15.963966836734695 1.7875000000000014  15.955676020408164 1.9624999999999986  C 15.947385204081636 2.1374999999999993  15.922512755102042 2.333333333333332  15.881058673469388 2.5500000000000007  C 15.839604591836736 2.766666666666662  15.756696428571429 2.9291666666666636  15.63233418367347 3.0375000000000014  C 15.50797193877551 3.145833333333332  15.338010204081636 3.1999999999999993  15.122448979591836 3.1999999999999993  L 7.163265306122449 3.1999999999999993  C 6.0688775510204085 3.1999999999999993  5.13201530612245 3.5916666666666615  4.352678571428572 4.375  C 3.5733418367346945 5.158333333333331  3.1836734693877546 6.100000000000001  3.1836734693877546 7.199999999999999  L 3.1836734693877546 24.8  C 3.1836734693877546 25.9  3.5733418367346945 26.84166666666666  4.352678571428572 27.625  C 5.13201530612245 28.40833333333333  6.0688775510204085 28.8  7.163265306122449 28.8  L 14.326530612244898 28.8  L 14.600127551020407 28.8  L 14.923469387755102 28.8  C 14.923469387755102 28.8  15.018813775510205 28.80833333333333  15.209502551020407 28.825  C 15.400191326530614 28.84166666666667  15.495535714285714 28.866666666666667  15.495535714285714 28.9  C 15.495535714285714 28.93333333333333  15.561862244897961 28.979166666666668  15.694515306122447 29.0375  C 15.82716836734694 29.09583333333333  15.885204081632654 29.17083333333333  15.868622448979593 29.2625  Z M 38.527423469387756 14.875  C 38.84247448979592 15.191666666666666  39 15.566666666666666  39 16  C 39 16.43333333333333  38.84247448979592 16.80833333333333  38.527423469387756 17.125  L 24.996811224489797 30.725  C 24.681760204081634 31.041666666666668  24.308673469387756 31.2  23.877551020408163 31.2  C 23.446428571428577 31.2  23.073341836734695 31.041666666666668  22.75829081632653 30.725  C 22.44323979591837 30.40833333333333  22.285714285714285 30.03333333333333  22.285714285714285 29.6  L 22.285714285714285 22  L 11.142857142857142 22  C 10.71173469387755 22.4  10.338647959183675 22.241666666666667  10.02359693877551 21.925  C 9.708545918367347 21.60833333333333  9.551020408163264 21.23333333333333  9.551020408163264 20.8  L 9.551020408163264 11.2  C 9.551020408163264 10.766666666666662  9.708545918367347 10.391666666666662  10.02359693877551 10.075  C 10.338647959183675 9.758333333333333  10.71173469387755 9.600000000000001  11.142857142857142 10  L 22.285714285714285 10  L 22.285714285714285 2.3999999999999986  C 22.285714285714285 1.9666666666666615  22.44323979591837 1.5916666666666615  22.75829081632653 1.2749999999999986  C 23.073341836734695 0.9583333333333321  23.446428571428577 0.8000000000000007  23.877551020408163 0.8000000000000007  C 24.308673469387756 0.8000000000000007  24.681760204081634 0.9583333333333321  24.996811224489797 1.2749999999999986  L 38.527423469387756 14.875  Z " fill-rule="nonzero" fill="#000000" stroke="none" transform="matrix(1 0 0 1 154 325 )" />
  </g>
</svg>