<?xml version="1.0" encoding="utf-8"?>
<svg version="1.1" xmlns:xlink="http://www.w3.org/1999/xlink" width="11px" height="11px" xmlns="http://www.w3.org/2000/svg">
  <g transform="matrix(1 0 0 1 -41 -157 )">
    <path d="M 10.738767650834403 5.141304347826087  C 10.912922550278138 5.335597826086956  11.000000000000002 5.562273550724637  11 5.821331521739131  C 11.000000000000002 6.075407608695652  10.912922550278138 6.299592391304348  10.738767650834403 6.493885869565217  L 10.209242618741976 7.054347826086956  C 10.030380830124091 7.243659420289854  9.816217372700045 7.338315217391305  9.566752246469832 7.338315217391305  C 9.312580231065468 7.338315217391305  9.100770218228497 7.243659420289854  8.931322207958921 7.054347826086956  L 6.855584082156611 4.864809782608695  L 6.855584082156611 10.125679347826086  C 6.855584082156611 10.38473731884058  6.767329910141207 10.595221920289855  6.590821566110398 10.757133152173914  C 6.414313222079588 10.919044384057973  6.201326486949081 11  5.951861360718871 11  L 5.048138639281129 11  C 4.798673513050921 11  4.585686777920411 10.919044384057973  4.409178433889602 10.757133152173914  C 4.232670089858793 10.595221920289855  4.144415917843388 10.38473731884058  4.144415917843388 10.125679347826086  L 4.144415917843388 4.864809782608695  L 2.068677792041078 7.054347826086956  C 1.8992297817715018 7.243659420289854  1.6874197689345314 7.338315217391305  1.4332477535301669 7.338315217391305  C 1.1790757381258024 7.338315217391305  0.9672657252888318 7.243659420289854  0.7978177150192555 7.054347826086956  L 0.2682926829268293 6.493885869565217  C 0.08943089430894312 6.304574275362318  0 6.080389492753623  0 5.821331521739131  C 0 5.557291666666666  0.08943089430894312 5.330615942028985  0.2682926829268293 5.141304347826087  L 4.864569961489089 0.27649456521739146  C 5.0293110825845115 0.09216485507246341  5.241121095421481 0  5.5 0  C 5.754172015404364 0  5.9683354728284135 0.09216485507246341  6.142490372272144 0.27649456521739146  L 10.738767650834403 5.141304347826087  Z " fill-rule="nonzero" fill="#000000" stroke="none" transform="matrix(1 0 0 1 41 157 )" />
  </g>
</svg>