<?xml version="1.0" encoding="utf-8"?>
<svg version="1.1" xmlns:xlink="http://www.w3.org/1999/xlink" width="39px" height="39px" xmlns="http://www.w3.org/2000/svg">
  <g transform="matrix(1 0 0 1 -93 -226 )">
    <path d="M 38.958481192334986 1.4818892045454533  C 39.02306600425834 1.8604403409090875  38.96309439318666 2.2251420454545436  38.77856635911994 2.575994318181818  L 21.063875088715402 38.03053977272727  C 20.75017743080199 38.67684659090909  20.224272533711854 39  19.486160397444994 39  C 19.393896380411643 39  19.255500354861606 38.98153409090909  19.07097232079489 38.94460227272727  C 18.66501064584812 38.85227272727273  18.337473385379703 38.64453125  18.088360539389637 38.321377840909086  C 17.839247693399575 37.99822443181818  17.71469127040454 37.63352272727273  18 37.22727272727273  L 18 21  L 1.7714691270404543 21  C 1.3655074520936836 21.27272727272727  1.0010645848119235 21.148082386363637  0.678140525195174 20.898792613636363  C 0.35521646557842435 20.649502840909093  0.1476224272533712 20.321732954545453  0.0553584102200142 19.915482954545457  C -0.0369056068133428 19.509232954545453  0 19.12144886363636  0.1660752306600426 18.752130681818183  C 0.33215046132008524 18.3828125  0.5997161107168205 18.105823863636363  0.9687721788502485 17.92116477272727  L 36.39815471965934 0.19389204545454664  C 36.63804116394606 0.06463068181817933  36.9056068133428 0  37.200851667849534 0  C 37.699077359829666 0  38.11426543647977 0.1754261363636327  38.44641589779986 0.5262784090909111  C 38.72320794889993 0.7848011363636327  38.89389638041164 1.1033380681818148  38.958481192334986 1.4818892045454533  Z " fill-rule="nonzero" fill="#000000" stroke="none" transform="matrix(1 0 0 1 93 226 )" />
  </g>
</svg>