<?xml version="1.0" encoding="utf-8"?>
<svg version="1.1" xmlns:xlink="http://www.w3.org/1999/xlink" width="39px" height="39px" xmlns="http://www.w3.org/2000/svg">
  <g transform="matrix(1 0 0 1 -265 -139 )">
    <path d="M 25.771484375 32.271484375  C 25.923828125 32.119140625  26 31.924479166666664  26 31.6875  L 26 27.624999999999996  C 26 27.388020833333332  25.923828125 27.193359375  25.771484375 27.041015625  C 25.619140625 26.888671875  25.424479166666668 26.8125  25.1875 26.8125  L 22 26.8125  L 22 13.812499999999998  C 22.75 13.575520833333334  22.673828125 13.380859375000002  22.521484375 13.228515625000002  C 22.369140625 13.076171875000002  22.174479166666668 13.000000000000002  21.9375 13.000000000000002  L 13.8125 13.000000000000002  C 13.575520833333336 13.000000000000002  13.380859375 13.076171875000002  13.228515625 13.228515625000002  C 13.076171875 13.380859375000002  13 13.575520833333334  13 13.812499999999998  L 13 17.875  C 13 18.111979166666668  13.076171875 18.306640625  13.228515625 18.458984375  C 13.380859375 18.611328125  13.575520833333336 18.6875  13.8125 18.6875  L 16.25 18.6875  L 16.25 26.8125  L 13.8125 26.8125  C 13.575520833333336 26.8125  13.380859375 26.888671875  13.228515625 27.041015625  C 13.076171875 27.193359375  13 27.388020833333332  13 27.624999999999996  L 13 31.6875  C 13 31.924479166666664  13.076171875 32.119140625  13.228515625 32.271484375  C 13.380859375 32.423828125  13.575520833333336 32.5  13.8125 32  L 25.1875 32  C 25.424479166666668 32.5  25.619140625 32.423828125  25.771484375 32.271484375  Z M 22.521484375 9.521484375  C 22.673828125 9.369140625  22.75 9.174479166666663  22.75 8.937499999999998  L 22.75 4.875  C 22.75 4.638020833333331  22.673828125 4.443359374999998  22.521484375 4.291015624999998  C 22.369140625 4.138671874999998  22.174479166666668 4.062499999999998  21.9375 4.062499999999998  L 17.0625 4.062499999999998  C 16.825520833333336 4.062499999999998  16.630859375 4.138671874999998  16.478515625 4.291015624999998  C 16.326171875 4.443359374999998  16.25 4.638020833333331  16.25 4.875  L 16.25 8.937499999999998  C 16.25 9.174479166666663  16.326171875 9.369140625  16.478515625 9.521484375  C 16.630859375 9.673828125  16.825520833333336 9.75  17.0625 9.75  L 21.9375 9.75  C 22.174479166666668 9.75  22.369140625 9.673828125  22.521484375 9.521484375  Z M 36.384765625 9.7119140625  C 38.12825520833333 12.699544270833329  39 15.962239583333329  39 19.5  C 39 23.037760416666668  38.12825520833333 26.30045572916666  36.384765625 29.2880859375  C 34.64127604166667 32.275716145833336  32.275716145833336 34.641276041666664  29.2880859375 36.384765625  C 26.30045572916667 38.128255208333336  23.037760416666668 39  19.5 39  C 15.962239583333334 39  12.699544270833334 38.128255208333336  9.7119140625 36.384765625  C 6.724283854166667 34.641276041666664  4.358723958333334 32.275716145833336  2.615234375 29.2880859375  C 0.8717447916666665 26.30045572916666  0 23.037760416666668  0 19.5  C 0 15.962239583333329  0.8717447916666665 12.699544270833329  2.615234375 9.7119140625  C 4.358723958333334 6.724283854166666  6.724283854166667 4.3587239583333295  9.7119140625 2.6152343749999987  C 12.699544270833334 0.8717447916666633  15.962239583333334 0  19.5 0  C 23.037760416666668 0  26.30045572916667 0.8717447916666633  29.2880859375 2.6152343749999987  C 32.275716145833336 4.3587239583333295  34.64127604166667 6.724283854166666  36.384765625 9.7119140625  Z " fill-rule="nonzero" fill="#000000" stroke="none" transform="matrix(1 0 0 1 265 139 )" />
  </g>
</svg>