<?xml version="1.0" encoding="utf-8"?>
<svg version="1.1" xmlns:xlink="http://www.w3.org/1999/xlink" width="39px" height="33px" xmlns="http://www.w3.org/2000/svg">
  <g transform="matrix(1 0 0 1 -8 -12 )">
    <path d="M 14.109375 27.890625  C 14.703125000000002 28.484374999999996  15 29.187499999999996  15 30  C 15 30.812500000000004  14.703125000000002 31.515625  14.109375 32.109375  C 13.515625000000002 32.703125  12.812500000000002 33  12 33  C 11.187500000000002 33  10.484375000000002 32.703125  9.890625 32.109375  C 9.296875 31.515625  9 30.812500000000004  9 30  C 9 29.187499999999996  9.296875 28.484374999999996  9.890625 27.890625  C 10.484375000000002 27.296875000000004  11.187500000000002 26.999999999999996  12 26.999999999999996  C 12.812500000000002 26.999999999999996  13.515625000000002 27.296875000000004  14.109375 27.890625  Z M 35.109375 27.890625  C 35.703125 28.484374999999996  36 29.187499999999996  36 30  C 36 30.812500000000004  35.703125 31.515625  35.109375 32.109375  C 34.515625 32.703125  33.8125 33  33 33  C 32.1875 33  31.484375000000004 32.703125  30.890625 32.109375  C 30.296875000000004 31.515625  30 30.812500000000004  30 30  C 30 29.187499999999996  30.296875000000004 28.484374999999996  30.890625 27.890625  C 31.484375000000004 27.296875000000004  32.1875 26.999999999999996  33 26.999999999999996  C 33.8125 26.999999999999996  34.515625 27.296875000000004  35.109375 27.890625  Z M 38.5546875 3.445312499999999  C 38.85156250000001 3.7421874999999964  39 4.093749999999996  39 4.5  L 39 16.5  C 39 16.875  38.87109375 17.20703125  38.61328125 17.496093750000004  C 38.35546875 17.785156249999996  38.0390625 17.953124999999996  37.6640625 18  L 13.1953125 20.859375  C 13.398437500000002 21.796875  13.5 22.343749999999996  13.5 22.500000000000004  C 13.5 22.749999999999993  13.3125 23.25  12.9375 24  L 34.5 24  C 34.90625 24  35.2578125 24.148437499999996  35.5546875 24.4453125  C 35.8515625 24.7421875  36 25.093750000000004  36 25.5  C 36 25.906249999999996  35.8515625 26.2578125  35.5546875 26.5546875  C 35.2578125 26.8515625  34.90625 26.999999999999996  34.5 27  L 10.5 27  C 10.093750000000002 26.999999999999996  9.7421875 26.8515625  9.4453125 26.5546875  C 9.1484375 26.2578125  9 25.906249999999996  9 25.5  C 9 25.328125  9.0625 25.082031250000004  9.1875 24.76171875  C 9.3125 24.44140625  9.4375 24.160156249999996  9.5625 23.917968750000004  C 9.687500000000002 23.675781249999996  9.85546875 23.36328125  10.06640625 22.980468749999996  C 10.27734375 22.597656249999993  10.398437500000002 22.3671875  10.4296875 22.2890625  L 6.28125 3.000000000000001  L 1.5 3.000000000000001  C 1.0937500000000002 3.000000000000001  0.7421875000000001 2.851562499999997  0.4453125 2.554687499999999  C 0.1484375 2.2578124999999982  0 1.9062499999999991  0 1.4999999999999987  C 0 1.0937499999999982  0.1484375 0.7421874999999954  0.4453125 0.44531250000000167  C 0.7421875000000001 0.1484374999999969  1.0937500000000002 0  1.5 0  L 7.5 0  C 7.750000000000001 0  7.97265625 0.05078124999999778  8.16796875 0.15234375000000067  C 8.363281250000002 0.2539062499999999  8.515625000000002 0.37499999999999967  8.625 0.515625  C 8.734375 0.6562500000000003  8.8359375 0.8476562499999948  8.9296875 1.0898437500000018  C 9.023437500000002 1.3320312499999976  9.085937500000002 1.5351562499999996  9.1171875 1.6992187500000007  C 9.148437500000002 1.8632812500000018  9.19140625 2.0937499999999973  9.24609375 2.3906249999999982  C 9.300781250000002 2.6874999999999956  9.3359375 2.890624999999998  9.3515625 3  L 37.5 3  C 37.90625000000001 3.000000000000001  38.2578125 3.148437499999998  38.5546875 3.445312499999999  Z " fill-rule="nonzero" fill="#000000" stroke="none" transform="matrix(1 0 0 1 8 12 )" />
  </g>
</svg>