<?xml version="1.0" encoding="utf-8"?>
<svg version="1.1" xmlns:xlink="http://www.w3.org/1999/xlink" width="39px" height="38px" xmlns="http://www.w3.org/2000/svg">
  <g transform="matrix(1 0 0 1 -11 -9 )">
    <path d="M 38.2890625 0.6394230769230789  C 38.76302083333333 1.0657051282051244  39 1.583333333333332  39 2.192307692307693  L 39 27.769230769230774  C 39 28.530448717948715  38.71223958333333 29.207932692307693  38.13671875 29.801682692307693  C 37.56119791666667 30.395432692307693  36.833333333333336 30.855969551282055  35.953125 31.183293269230774  C 35.07291666666667 31.510616987179485  34.19694010416667 31.754206730769226  33.3251953125 31.9140625  C 32.453450520833336 32.073918269230774  31.63671875 32.15384615384615  30.875 32.15384615384615  C 30.11328125 32.15384615384615  29.296549479166668 32.073918269230774  28.4248046875 31.9140625  C 27.553059895833332 31.754206730769226  26.677083333333332 31.510616987179485  25.796875 31.183293269230774  C 24.916666666666668 30.855969551282055  24.188802083333336 30.395432692307693  23.61328125 29.801682692307693  C 23.037760416666668 29.207932692307693  22.75 28.530448717948715  22.75 27.769230769230774  C 22.75 27.00801282051282  23.037760416666668 26.330528846153847  23.61328125 25.736778846153847  C 24.188802083333336 25.143028846153847  24.916666666666668 24.682491987179485  25.796875 24.355168269230774  C 26.677083333333332 24.02784455128205  27.553059895833332 23.784254807692307  28.4248046875 23.62439903846154  C 29.296549479166668 23.464543269230774  30.11328125 23.384615384615387  30.875 23.384615384615387  C 32.65234375 23.384615384615387  34.27734375 23.681490384615387  35 24.275240384615387  L 35 12.012019230769232  L 17 17.424278846153847  L 17 33.61538461538461  C 16.25 34.37660256410256  15.962239583333334 35.05408653846154  15.38671875 35.64783653846154  C 14.811197916666668 36.24158653846154  14.083333333333336 36.7021233974359  13.203125 37.02944711538461  C 12.322916666666668 37.35677083333333  11.446940104166668 37.60036057692308  10.5751953125 37.76021634615385  C 9.703450520833334 37.92007211538461  8.88671875 38  8.125 38  C 7.36328125 38  6.546549479166668 37.92007211538461  5.6748046875 37.76021634615385  C 4.803059895833334 37.60036057692308  3.927083333333334 37.35677083333333  3.046875 37.02944711538461  C 2.166666666666667 36.7021233974359  1.4388020833333333 36.24158653846154  0.86328125 35.64783653846154  C 0.28776041666666663 35.05408653846154  0 34.37660256410256  0 33.61538461538461  C 0 32.85416666666667  0.28776041666666663 32.17668269230769  0.86328125 31.582932692307693  C 1.4388020833333333 30.989182692307693  2.166666666666667 30.528645833333332  3.046875 30.201322115384613  C 3.927083333333334 29.8739983974359  4.803059895833334 29.630408653846153  5.6748046875 29.470552884615387  C 6.546549479166668 29.310697115384613  7.36328125 29.230769230769226  8.125 29.230769230769226  C 9.90234375 29.230769230769226  11.52734375 29.527644230769226  13 30.121394230769226  L 13 8.03846153846154  C 13 7.566506410256407  13.160807291666668 7.136418269230767  13.482421875 6.748197115384614  C 13.804036458333336 6.359975961538461  14.21875 6.089743589743585  14.7265625 5.9375  L 35.8515625 0.09134615384615352  C 36.0546875 0.03044871794871784  36.29166666666667 0  36.5625 0  C 37.239583333333336 0  37.81510416666667 0.21314102564102488  38.2890625 0.6394230769230789  Z " fill-rule="nonzero" fill="#000000" stroke="none" transform="matrix(1 0 0 1 11 9 )" />
  </g>
</svg>