<?xml version="1.0" encoding="utf-8"?>
<svg version="1.1" xmlns:xlink="http://www.w3.org/1999/xlink" width="46px" height="33px" xmlns="http://www.w3.org/2000/svg">
  <g transform="matrix(1 0 0 1 -2 -13 )">
    <path d="M 3.833333333333333 0  L 42.166666666666664 0  C 43.22083333333333 0  44.12326388888889 0.3365885416666634  44.873958333333334 1.0097656250000013  C 45.62465277777778 1.6829427083333317  46.00000000000001 2.4921875000000013  46 3.4374999999999987  L 46 29.5625  C 46.00000000000001 30.5078125  45.62465277777778 31.317057291666668  44.873958333333334 31.990234375  C 44.12326388888889 32.663411458333336  43.22083333333333 33  42.166666666666664 33  L 3.833333333333333 33  C 2.779166666666667 33  1.8767361111111114 32.663411458333336  1.1260416666666666 31.990234375  C 0.3753472222222222 31.317057291666668  0 30.5078125  0 29.5625  L 0 3.4374999999999987  C 0 2.4921875000000013  0.3753472222222222 1.6829427083333317  1.1260416666666666 1.0097656250000013  C 1.8767361111111114 0.3365885416666634  2.779166666666667 0  3.833333333333333 0  Z M 42.166666666666664 3  L 3.833333333333333 3  C 3.625694444444445 2.7500000000000013  3.446006944444445 2.8180338541666634  3.294270833333333 2.9541015624999987  C 3.1425347222222224 3.0901692708333304  3.0666666666666664 3.2513020833333304  3.0666666666666664 3.4374999999999987  L 3.0666666666666664 8.25  L 42.93333333333334 8.25  L 42.93333333333334 3.4374999999999987  C 42.93333333333334 3.2513020833333304  42.85746527777778 3.0901692708333304  42.705729166666664 2.9541015624999987  C 42.55399305555556 2.8180338541666634  42.37430555555556 2.7500000000000013  42.166666666666664 3  Z M 3.833333333333333 30  L 42.166666666666664 30  C 42.37430555555556 30.25  42.55399305555556 30.181966145833332  42.705729166666664 30.0458984375  C 42.85746527777778 29.909830729166668  42.93333333333334 29.748697916666668  43 29.5625  L 43 16  L 3 16  L 3 29.5625  C 3.0666666666666664 29.748697916666668  3.1425347222222224 29.909830729166668  3.294270833333333 30.0458984375  C 3.446006944444445 30.181966145833332  3.625694444444445 30.25  3.833333333333333 30  Z M 12.266666666666666 27.5  L 6.133333333333333 27.5  L 6.133333333333333 24.75  L 12.266666666666666 24.75  L 12.266666666666666 27.5  Z M 24.53333333333333 27.5  L 15.333333333333332 27.5  L 15.333333333333332 24.75  L 24.53333333333333 24.75  L 24.53333333333333 27.5  Z " fill-rule="nonzero" fill="#000000" stroke="none" transform="matrix(1 0 0 1 2 13 )" />
  </g>
</svg>