<?xml version="1.0" encoding="utf-8"?>
<svg version="1.1" xmlns:xlink="http://www.w3.org/1999/xlink" width="46px" height="50px" xmlns="http://www.w3.org/2000/svg">
  <g>
    <path d="M 16.433238636363637 41.37369791666667  C 16.629261363636363 41.17838541666667  16.727272727272727 40.92881944444444  17 40.625  L 17 17.708333333333332  C 16.727272727272727 17.40451388888889  16.629261363636363 17.154947916666668  16.433238636363637 16.959635416666668  C 16.23721590909091 16.764322916666668  15.986742424242427 16.666666666666668  15.68181818181818 16.666666666666668  L 13.590909090909092 16.666666666666668  C 13.285984848484851 16.666666666666668  13.035511363636367 16.764322916666668  12.839488636363637 16.959635416666668  C 12.643465909090908 17.154947916666668  12.545454545454545 17.40451388888889  13 17.708333333333332  L 13 40.625  C 12.545454545454545 40.92881944444444  12.643465909090908 41.17838541666667  12.839488636363637 41.37369791666667  C 13.035511363636367 41.56901041666667  13.285984848484851 41.66666666666667  13.590909090909092 41.66666666666667  L 15.68181818181818 41.66666666666667  C 15.986742424242427 41.66666666666667  16.23721590909091 41.56901041666667  16.433238636363637 41.37369791666667  Z M 24.796875 41.37369791666667  C 24.992897727272727 41.17838541666667  25.09090909090909 40.92881944444444  25 40.625  L 25 17.708333333333332  C 25.09090909090909 17.40451388888889  24.992897727272727 17.154947916666668  24.796875 16.959635416666668  C 24.600852272727273 16.764322916666668  24.35037878787879 16.666666666666668  24.045454545454543 16.666666666666668  L 21.954545454545457 16.666666666666668  C 21.649621212121215 16.666666666666668  21.399147727272727 16.764322916666668  21.203125 16.959635416666668  C 21.007102272727273 17.154947916666668  20.90909090909091 17.40451388888889  21 17.708333333333332  L 21 40.625  C 20.90909090909091 40.92881944444444  21.007102272727273 41.17838541666667  21.203125 41.37369791666667  C 21.399147727272727 41.56901041666667  21.649621212121215 41.66666666666667  21.954545454545457 41.66666666666667  L 24.045454545454543 41.66666666666667  C 24.35037878787879 41.66666666666667  24.600852272727273 41.56901041666667  24.796875 41.37369791666667  Z M 33.16051136363636 41.37369791666667  C 33.356534090909086 41.17838541666667  33.45454545454545 40.92881944444444  33 40.625  L 33 17.708333333333332  C 33.45454545454545 17.40451388888889  33.356534090909086 17.154947916666668  33.16051136363636 16.959635416666668  C 32.96448863636364 16.764322916666668  32.71401515151515 16.666666666666668  32.409090909090914 16.666666666666668  L 30.318181818181817 16.666666666666668  C 30.013257575757574 16.666666666666668  29.76278409090909 16.764322916666668  29.56676136363636 16.959635416666668  C 29.37073863636364 17.154947916666668  29.272727272727273 17.40451388888889  29 17.708333333333332  L 29 40.625  C 29.272727272727273 40.92881944444444  29.37073863636364 41.17838541666667  29.56676136363636 41.37369791666667  C 29.76278409090909 41.56901041666667  30.013257575757574 41.66666666666667  30.318181818181817 41.66666666666667  L 32.409090909090914 41.66666666666667  C 32.71401515151515 41.66666666666667  32.96448863636364 41.56901041666667  33.16051136363636 41.37369791666667  Z M 17.282670454545457 4.524739583333331  L 15.68181818181818 9  L 30.318181818181817 9  L 28.75 4.524739583333331  C 28.597537878787886 4.329427083333331  28.412405303030305 4.210069444444442  28.194602272727273 5  L 17.83806818181818 5  C 17.620265151515152 4.210069444444442  17.435132575757578 4.329427083333331  17.282670454545457 4.524739583333331  Z M 45.705965909090914 8.626302083333332  C 45.90198863636364 8.821614583333332  46 9.071180555555552  46 9.375  L 46 11.458333333333332  C 46 11.762152777777773  45.90198863636364 12.01171875  45.705965909090914 12.20703125  C 45.50994318181818 12.40234375  45.2594696969697 12.5  44.95454545454545 12.5  L 41 12.5  L 41 43.359375  C 41.81818181818182 45.16059027777777  41.3063446969697 46.71766493055556  40.28267045454545 48.03059895833333  C 39.25899621212122 49.34353298611111  38.028409090909086 50  36.590909090909086 50  L 9.40909090909091 50  C 7.97159090909091 50  6.741003787878789 49.365234375  5.717329545454545 48.095703125  C 4.693655303030304 46.826171875  4.181818181818182 45.29079861111111  5 43.48958333333333  L 5 12.5  L 1.0454545454545454 12.5  C 0.740530303030303 12.5  0.49005681818181823 12.40234375  0.29403409090909094 12.20703125  C 0.09801136363636363 12.01171875  0 11.762152777777773  0 11.458333333333332  L 0 9.375  C 0 9.071180555555552  0.09801136363636363 8.821614583333332  0.29403409090909094 8.626302083333332  C 0.49005681818181823 8.430989583333332  0.740530303030303 8.333333333333332  1.0454545454545454 9  L 11.140625 9  L 13.42755681818182 2.8971354166666687  C 13.754261363636367 2.0941840277777732  14.342329545454547 1.4105902777777735  15.191761363636363 0.8463541666666685  C 16.041193181818183 0.28211805555555247  16.901515151515152 0  17.772727272727273 0  L 28.227272727272727 0  C 29.098484848484855 0  29.958806818181817 0.28211805555555247  30.80823863636364 0.8463541666666685  C 31.657670454545457 1.4105902777777735  32.24573863636364 2.0941840277777732  32.57244318181818 2.8971354166666687  L 34.859375 9  L 44.95454545454545 9  C 45.2594696969697 8.333333333333332  45.50994318181818 8.430989583333332  45.705965909090914 8.626302083333332  Z " fill-rule="nonzero" fill="#7f7f7f" stroke="none" fill-opacity="0.9921568627450981" />
  </g>
</svg>