<?xml version="1.0" encoding="utf-8"?>
<svg version="1.1" xmlns:xlink="http://www.w3.org/1999/xlink" width="321px" height="68px" xmlns="http://www.w3.org/2000/svg">
  <defs>
    <mask fill="white" id="clip65">
      <path d="M 89.3235294117647 0.488139825218476  C 89.3235294117647 0.488139825218476  -118.51685393258427 0.488139825218476  100.58426966292134 0.488139825218476  C 319.685393258427 0.488139825218476  320.8089887640449 0.488139825218476  320.8089887640449 0.488139825218476  L 321 67.34207240948813  L 121 67.34207240948813  L 121 37.180555555555536  L 100.58426966292134 6.972222222222216  L 89.3235294117647 0.488139825218476  Z " fill-rule="evenodd" />
    </mask>
  </defs>
  <g transform="matrix(1 0 0 1 -92 -18 )">
    <path d="M 89.3235294117647 0.488139825218476  C 89.3235294117647 0.488139825218476  -118.51685393258427 0.488139825218476  100.58426966292134 0.488139825218476  C 319.685393258427 0.488139825218476  320.8089887640449 0.488139825218476  320.8089887640449 0.488139825218476  L 321 67.34207240948813  L 121 67.34207240948813  L 121 37.180555555555536  L 100.58426966292134 6.972222222222216  L 89.3235294117647 0.488139825218476  Z " fill-rule="nonzero" fill="#c280ff" stroke="none" transform="matrix(1 0 0 1 92 18 )" />
    <path d="M 89.3235294117647 0.488139825218476  C 89.3235294117647 0.488139825218476  -118.51685393258427 0.488139825218476  100.58426966292134 0.488139825218476  C 319.685393258427 0.488139825218476  320.8089887640449 0.488139825218476  320.8089887640449 0.488139825218476  L 321 67.34207240948813  L 121 67.34207240948813  L 121 37.180555555555536  L 100.58426966292134 6.972222222222216  L 89.3235294117647 0.488139825218476  Z " stroke-width="2" stroke="#797979" fill="none" transform="matrix(1 0 0 1 92 18 )" mask="url(#clip65)" />
  </g>
</svg>