<?xml version="1.0" encoding="utf-8"?>
<svg version="1.1" xmlns:xlink="http://www.w3.org/1999/xlink" width="42px" height="40px" xmlns="http://www.w3.org/2000/svg">
  <g transform="matrix(1 0 0 1 -112 -14 )">
    <path d="M 41.72109375 28.91927083333333  C 41.90703125 30.230034722222218  42 31.62326388888889  42 33.098958333333336  C 42 34.99131944444444  41.31640625 36.614583333333336  39.94921875 37.96875  C 38.58203125 39.322916666666664  36.9359375 40  35.010937500000004 40  L 6.9890625 40  C 5.0640625 40  3.4179687500000004 39.322916666666664  2.0507812500000004 37.96875  C 0.6835937500000002 36.614583333333336  0 34.99131944444444  0 33.098958333333336  C 0 31.62326388888889  0.09296875000000021 30.230034722222218  0.27890625000000024 28.91927083333333  C 0.4648437500000002 27.608506944444436  0.8093750000000002 26.2890625  1.3125000000000002 24.9609375  C 1.8156250000000005 23.6328125  2.4554687500000005 22.49565972222222  3.23203125 21.54947916666667  C 4.008593750000001 20.603298611111107  5.0367187499999995 19.830729166666664  6.31640625 19.231770833333336  C 7.59609375 18.6328125  9.067187500000001 18.333333333333336  10.7296875 18.333333333333336  C 13.595312500000002 20.555555555555554  17.018750000000004 21.66666666666667  21 21.66666666666667  C 24.981250000000006 21.66666666666667  28.404687500000005 20.555555555555554  31.2703125 18.333333333333336  C 32.932812500000004 18.333333333333336  34.40390625 18.6328125  35.68359375 19.231770833333336  C 36.96328125 19.830729166666664  37.991406250000004 20.603298611111107  38.76796875 21.54947916666667  C 39.544531250000006 22.49565972222222  40.184375 23.6328125  40.6875 24.9609375  C 41.190625000000004 26.2890625  41.53515625 27.608506944444436  41.72109375 28.91927083333333  Z M 29.90859375 2.9296875  C 32.36953125 4.8828125  33.6 7.239583333333335  33.6 10  C 33.6 12.760416666666664  32.36953125 15.1171875  29.90859375 17.0703125  C 27.44765625 19.0234375  24.478125 20  21 20  C 17.521874999999998 20  14.55234375 19.0234375  12.09140625 17.0703125  C 9.63046875 15.1171875  8.4 12.760416666666664  8.4 10  C 8.4 7.239583333333335  9.63046875 4.8828125  12.09140625 2.9296875  C 14.55234375 0.9765625  17.521874999999998 0  21 0  C 24.478125 0  27.44765625 0.9765625  29.90859375 2.9296875  Z " fill-rule="nonzero" fill="#000000" stroke="none" transform="matrix(1 0 0 1 112 14 )" />
  </g>
</svg>