<?xml version="1.0" encoding="utf-8"?>
<svg version="1.1" xmlns:xlink="http://www.w3.org/1999/xlink" width="64px" height="61px" xmlns="http://www.w3.org/2000/svg">
  <g transform="matrix(1 0 0 1 -118 -30 )">
    <path d="M 150 30  C 167.92000000000002 30  182 43.42  182 60.5  C 182 77.58  167.92000000000002 91  150 91  C 132.07999999999998 91  118 77.58  118 60.5  C 118 43.42  132.07999999999998 30  150 30  Z " fill-rule="nonzero" fill="#ffffff" stroke="none" />
    <path d="M 150 30.5  C 167.64 30.5  181.5 43.7  181.5 60.5  C 181.5 77.30000000000001  167.64 90.5  150 90.5  C 132.35999999999999 90.5  118.5 77.30000000000001  118.5 60.5  C 118.5 43.7  132.35999999999999 30.5  150 30.5  Z " stroke-width="1" stroke="#797979" fill="none" />
  </g>
</svg>