<?xml version="1.0" encoding="utf-8"?>
<svg version="1.1" xmlns:xlink="http://www.w3.org/1999/xlink" width="47px" height="39px" xmlns="http://www.w3.org/2000/svg">
  <g transform="matrix(1 0 0 1 -127 -41 )">
    <path d="M 12.533333333333333 13.928571428571427  C 12.533333333333333 15.945312499999998  13.194270833333333 17.802455357142858  14.516145833333333 19.5  C 11.872395833333334 19.572544642857142  9.710069444444445 20.50111607142857  8.029166666666667 22.285714285714285  L 4.748958333333333 22.285714285714285  C 3.4107638888888885 22.285714285714285  2.2847222222222228 21.991908482142858  1.3708333333333333 21.404296875  C 0.4569444444444444 20.816685267857142  0 19.95703125  0 18.825334821428573  C 0 13.703683035714283  1.0118055555555554 11.142857142857142  3.035416666666667 11.142857142857142  C 3.1333333333333333 11.142857142857142  3.48828125 11.295200892857142  4.100260416666666 11.599888392857142  C 4.712239583333334 11.904575892857142  5.5078125 12.212890624999998  6.486979166666667 12.524832589285715  C 7.466145833333333 12.836774553571429  8.437152777777778 12.992745535714285  9.4 12.992745535714285  C 10.493402777777778 12.992745535714285  11.578645833333335 12.825892857142854  12.655729166666667 12.4921875  C 12.574131944444446 13.029017857142852  12.533333333333333 13.507812499999998  12.533333333333333 13.928571428571427  Z M 40.647656250000004 31.110770089285715  C 40.70477430555556 31.843470982142858  40.733333333333334 32.594308035714285  40.733333333333334 33.36328125  C 40.733333333333334 35.10435267857142  40.13767361111111 36.479073660714285  38.946354166666666 37.48744419642858  C 37.75503472222223 38.495814732142854  36.172048611111116 39  34.19739583333334 39  L 12.802604166666667 39  C 10.82795138888889 39  9.24496527777778 38.495814732142854  8.053645833333334 37.48744419642858  C 6.8623263888888895 36.479073660714285  6.266666666666667 35.10435267857142  6.266666666666667 33.36328125  C 6.266666666666667 32.594308035714285  6.295225694444445 31.843470982142858  6.35234375 31.110770089285715  C 6.409461805555557 30.37806919642857  6.523697916666666 29.587332589285715  6.695052083333334 28.738560267857142  C 6.86640625 27.88978794642857  7.08263888888889 27.10267857142857  7.34375 26.377232142857142  C 7.604861111111111 25.651785714285708  7.955729166666667 24.944475446428566  8.396354166666667 24.255301339285715  C 8.836979166666666 23.566127232142854  9.342881944444445 22.978515624999996  9.9140625 22.492466517857142  C 10.485243055555555 22.00641741071429  11.182899305555557 21.61830357142857  12.00703125 21.328125  C 12.831163194444446 21.037946428571423  13.740972222222222 20.892857142857142  14.736458333333333 20.892857142857142  C 14.89965277777778 20.892857142857142  15.250520833333333 21.048828125  15.7890625 21.360770089285715  C 16.327604166666667 21.672712053571427  16.92326388888889 22.02092633928571  17.57604166666667 22.40541294642857  C 18.228819444444447 22.789899553571423  19.101909722222224 23.138113839285708  20.1953125 23.45005580357143  C 21.28871527777778 23.761997767857142  22.39027777777778 23.91796875  23.5 23.91796875  C 24.609722222222224 23.91796875  25.711284722222224 23.761997767857142  26.8046875 23.45005580357143  C 27.898090277777783 23.138113839285708  28.77118055555556 22.789899553571423  29.423958333333335 22.40541294642857  C 30.07673611111111 22.02092633928571  30.672395833333333 21.672712053571427  31.2109375 21.360770089285715  C 31.749479166666667 21.048828125  32.100347222222226 20.892857142857142  32.26354166666666 20.892857142857142  C 33.25902777777778 20.892857142857142  34.168836805555564 21.037946428571423  34.992968749999996 21.328125  C 35.81710069444445 21.61830357142857  36.51475694444444 22.00641741071429  37.0859375 22.492466517857142  C 37.657118055555564 22.978515624999996  38.163020833333334 23.566127232142854  38.60364583333334 24.255301339285715  C 39.04427083333333 24.944475446428566  39.395138888888894 25.651785714285708  39.65625 26.377232142857142  C 39.91736111111111 27.10267857142857  40.133593749999996 27.88978794642857  40.30494791666666 28.738560267857142  C 40.47630208333334 29.587332589285715  40.59053819444445 30.37806919642857  40.647656250000004 31.110770089285715  Z M 13.830729166666666 1.6322544642857155  C 15.0546875 2.7204241071428577  15.666666666666666 4.03348214285714  15.666666666666666 5.571428571428573  C 15.666666666666666 7.109374999999998  15.0546875 8.422433035714285  13.830729166666666 9.510602678571427  C 12.606770833333334 10.598772321428573  11.129861111111111 11.142857142857142  9.4 11.142857142857142  C 7.67013888888889 11.142857142857142  6.193229166666667 10.598772321428573  4.969270833333333 9.510602678571427  C 3.7453125 8.422433035714285  3.1333333333333333 7.109374999999998  3.1333333333333333 5.571428571428573  C 3.1333333333333333 4.03348214285714  3.7453125 2.7204241071428577  4.969270833333333 1.6322544642857155  C 6.193229166666667 0.5440848214285733  7.67013888888889 0  9.4 0  C 11.129861111111111 0  12.606770833333334 0.5440848214285733  13.830729166666666 1.6322544642857155  Z M 30.14609375 8.019810267857142  C 31.98203125 9.652064732142858  32.9 11.621651785714285  32.9 13.928571428571427  C 32.9 16.235491071428573  31.98203125 18.205078125  30.14609375 19.837332589285715  C 28.31015625 21.46958705357143  26.094791666666666 22.285714285714285  23.5 22.285714285714285  C 20.905208333333338 22.285714285714285  18.68984375 21.46958705357143  16.853906249999998 19.837332589285715  C 15.01796875 18.205078125  14.1 16.235491071428573  14.1 13.928571428571427  C 14.1 11.621651785714285  15.01796875 9.652064732142858  16.853906249999998 8.019810267857142  C 18.68984375 6.387555803571427  20.905208333333338 5.571428571428573  23.5 5.571428571428573  C 26.094791666666666 5.571428571428573  28.31015625 6.387555803571427  30.14609375 8.019810267857142  Z M 43.96458333333334 11.142857142857142  C 45.98819444444445 11.142857142857142  47.00000000000001 13.703683035714283  47 18.825334821428573  C 47.00000000000001 19.95703125  46.543055555555554 20.816685267857142  45.62916666666666 21.404296875  C 44.71527777777778 21.991908482142858  43.58923611111111 22.285714285714285  42.251041666666666 22.285714285714285  L 38.97083333333334 22.285714285714285  C 37.289930555555564 20.50111607142857  35.12760416666667 19.572544642857142  32.48385416666667 19.5  C 33.805729166666666 17.802455357142858  34.46666666666666 15.945312499999998  34.46666666666666 13.928571428571427  C 34.46666666666666 13.507812499999998  34.425868055555554 13.029017857142852  34.34427083333333 12.4921875  C 35.42135416666667 12.825892857142854  36.506597222222226 12.992745535714285  37.6 12.992745535714285  C 38.562847222222224 12.992745535714285  39.53385416666667 12.836774553571429  40.51302083333333 12.524832589285715  C 41.4921875 12.212890624999998  42.28776041666667 11.904575892857142  42.89973958333333 11.599888392857142  C 43.51171875 11.295200892857142  43.86666666666667 11.142857142857142  43.96458333333334 11.142857142857142  Z M 42.03072916666667 1.6322544642857155  C 43.254687499999996 2.7204241071428577  43.86666666666667 4.03348214285714  43.86666666666667 5.571428571428573  C 43.86666666666667 7.109374999999998  43.254687499999996 8.422433035714285  42.03072916666667 9.510602678571427  C 40.80677083333334 10.598772321428573  39.329861111111114 11.142857142857142  37.6 11.142857142857142  C 35.87013888888889 11.142857142857142  34.39322916666667 10.598772321428573  33.16927083333333 9.510602678571427  C 31.9453125 8.422433035714285  31.333333333333332 7.109374999999998  31.333333333333332 5.571428571428573  C 31.333333333333332 4.03348214285714  31.9453125 2.7204241071428577  33.16927083333333 1.6322544642857155  C 34.39322916666667 0.5440848214285733  35.87013888888889 0  37.6 0  C 39.329861111111114 0  40.80677083333334 0.5440848214285733  42.03072916666667 1.6322544642857155  Z " fill-rule="nonzero" fill="#000000" stroke="none" transform="matrix(1 0 0 1 127 41 )" />
  </g>
</svg>