<?xml version="1.0" encoding="utf-8"?>
<svg version="1.1" xmlns:xlink="http://www.w3.org/1999/xlink" width="34px" height="38px" xmlns="http://www.w3.org/2000/svg">
  <g transform="matrix(1 0 0 1 -9 -7 )">
    <path d="M 20.8515625 23.3046875  C 22.64282852564103 21.302684294871792  23.538461538461537 18.893429487179485  23.538461538461537 16.07692307692308  C 23.538461538461537 13.260416666666664  22.64282852564103 10.851161858974358  20.8515625 8.849158653846153  C 19.060296474358974 6.847155448717946  16.904647435897438 5.846153846153847  14.384615384615385 5.846153846153847  C 11.864583333333334 5.846153846153847  9.708934294871797 6.847155448717946  7.917668269230769 8.849158653846153  C 6.126402243589744 10.851161858974358  5.230769230769231 13.260416666666664  5.230769230769231 16.07692307692308  C 5.230769230769231 18.893429487179485  6.126402243589744 21.302684294871792  7.917668269230769 23.3046875  C 9.708934294871797 25.306690705128197  11.864583333333334 26.307692307692307  14.384615384615385 26.307692307692307  C 16.904647435897438 26.307692307692307  19.060296474358974 25.306690705128197  20.8515625 23.3046875  Z M 33.24399038461539 33.02163461538461  C 33.747996794871796 33.5849358974359  34 34.27003205128205  34 35.07692307692308  C 34 35.868589743589745  33.7411858974359 36.5536858974359  33.22355769230769 37.13221153846154  C 32.70592948717949 37.710737179487175  32.09294871794872 38  31.384615384615387 38  C 30.649038461538463 38  30.036057692307693 37.710737179487175  29.545673076923077 37.13221153846154  L 22.537259615384613 29.322115384615387  C 20.098958333333336 31.2099358974359  17.38141025641026 32.15384615384615  14.384615384615385 32.15384615384615  C 12.436698717948719 32.15384615384615  10.573918269230768 31.731370192307693  8.796274038461538 30.886418269230774  C 7.0186298076923075 30.041466346153847  5.486177884615384 28.89963942307692  4.198918269230769 27.4609375  C 2.9116586538461537 26.02223557692308  1.8900240384615388 24.309495192307693  1.1340144230769231 22.322716346153847  C 0.3780048076923077 20.3359375  0 18.254006410256405  0 16.07692307692308  C 0 13.89983974358974  0.3780048076923077 11.817908653846153  1.1340144230769231 9.831129807692307  C 1.8900240384615388 7.844350961538461  2.9116586538461537 6.131610576923078  4.198918269230769 4.692908653846153  C 5.486177884615384 3.2542067307692326  7.0186298076923075 2.112379807692307  8.796274038461538 1.267427884615386  C 10.573918269230768 0.42247596153846056  12.436698717948719 0  14.384615384615385 0  C 16.33253205128205 0  18.1953125 0.42247596153846056  19.97295673076923 1.267427884615386  C 21.750600961538463 2.112379807692307  23.283052884615387 3.2542067307692326  24.5703125 4.692908653846153  C 25.857572115384613 6.131610576923078  26.87920673076923 7.844350961538461  27.635216346153843 9.831129807692307  C 28.391225961538463 11.817908653846153  28.76923076923077 13.89983974358974  28.76923076923077 16.07692307692308  C 28.76923076923077 19.42628205128205  27.92467948717949 22.463541666666664  26.235576923076923 25.18870192307692  L 33.24399038461539 33.02163461538461  Z " fill-rule="nonzero" fill="#000000" stroke="none" transform="matrix(1 0 0 1 9 7 )" />
  </g>
</svg>