<?xml version="1.0" encoding="utf-8"?>
<svg version="1.1" xmlns:xlink="http://www.w3.org/1999/xlink" width="325px" height="52px" xmlns="http://www.w3.org/2000/svg">
  <g>
    <path d="M 3 10.000000000000002  A 7 7 0 0 1 9.999999999999998 3 L 315 3  A 7 7 0 0 1 322 10 L 322 42  A 7 7 0 0 1 315 49 L 10 49  A 7 7 0 0 1 3 42 L 3 10  Z " fill-rule="nonzero" fill="#ffffff" stroke="none" />
    <path d="M 1.5 10.000000000000002  A 8.5 8.5 0 0 1 9.999999999999998 1.5 L 315 1.5  A 8.5 8.5 0 0 1 323.5 10 L 323.5 42  A 8.5 8.5 0 0 1 315 50.5 L 10 50.5  A 8.5 8.5 0 0 1 1.5 42 L 1.5 10  Z " stroke-width="3" stroke="#5800aa" fill="none" stroke-opacity="0.6588235294117647" />
  </g>
</svg>