<?xml version="1.0" encoding="utf-8"?>
<svg version="1.1" xmlns:xlink="http://www.w3.org/1999/xlink" width="80px" height="76px" xmlns="http://www.w3.org/2000/svg">
  <g transform="matrix(1 0 0 1 -280 -722 )">
    <path d="M 65.89285714285714 40.77083333333333  C 71.48809523809524 34.56944444444444  74.28571428571429 28.697916666666664  74.28571428571429 23.15625  C 74.28571428571429 20.484375  73.96577380952381 18.12586805555555  73.32589285714286 16.080729166666664  C 72.68601190476191 14.035590277777768  71.86755952380953 12.411024305555552  70.87053571428571 11.20703125  C 69.87351190476191 10.00303819444444  68.66071428571429 9.021701388888888  67.23214285714286 8.263020833333336  C 65.80357142857143 7.504340277777768  64.40476190476191 6.993055555555552  63.03571428571429 6.729166666666664  C 61.66666666666667 6.465277777777768  60.20833333333334 6.333333333333336  58.66071428571429 6.333333333333336  C 57.11309523809525 6.333333333333336  55.44642857142857 6.75390625  53.66071428571429 7.595052083333336  C 51.875 8.436197916666664  50.23065476190476 9.491753472222216  48.72767857142857 10.76171875  C 47.224702380952394 12.031684027777768  45.9375 13.219184027777768  44.86607142857143 14.32421875  C 43.79464285714286 15.429253472222216  42.90178571428572 16.44357638888889  42.1875 17.3671875  C 41.65178571428572 18.09288194444444  40.92261904761905 18.455729166666664  40 18.455729166666664  C 39.077380952380956 18.455729166666664  38.348214285714285 18.09288194444444  37.8125 17.3671875  C 37.098214285714285 16.44357638888889  36.205357142857146 15.429253472222216  35.13392857142857 14.32421875  C 34.0625 13.219184027777768  32.77529761904762 12.031684027777768  31.272321428571427 10.76171875  C 29.76934523809524 9.491753472222216  28.125 8.436197916666664  26.339285714285715 7.595052083333336  C 24.553571428571427 6.75390625  22.886904761904766 6.333333333333336  21.339285714285715 6.333333333333336  C 19.791666666666668 6.333333333333336  18.333333333333336 6.465277777777768  16.964285714285715 6.729166666666664  C 15.595238095238098 6.993055555555552  14.196428571428573 7.504340277777768  12.767857142857142 8.263020833333336  C 11.339285714285714 9.021701388888888  10.126488095238095 10.00303819444444  9.129464285714286 11.20703125  C 8.132440476190476 12.411024305555552  7.313988095238095 14.035590277777768  6.674107142857143 16.080729166666664  C 6.034226190476192 18.12586805555555  5.7142857142857135 20.484375  5.7142857142857135 23.15625  C 5.7142857142857135 28.697916666666664  8.49702380952381 34.552951388888886  14.0625 40.72135416666667  L 40 68.4296875  L 65.89285714285714 40.77083333333333  Z M 74.33035714285714 6.135416666666664  C 78.11011904761905 10.22569444444444  80 15.899305555555552  80 23.15625  C 80 30.44618055555555  76.59226190476191 37.86805555555555  69.77678571428571 45.421875  L 41.96428571428571 75.109375  C 41.42857142857143 75.703125  40.773809523809526 76  40 76  C 39.22619047619048 76  38.57142857142858 75.703125  38.035714285714285 75.109375  L 10.178571428571427 45.32291666666667  C 9.880952380952381 45.05902777777778  9.471726190476192 44.63020833333333  8.950892857142858 44.03645833333333  C 8.430059523809524 43.44270833333333  7.604166666666668 42.36241319444445  6.4732142857142865 40.79557291666667  C 5.342261904761905 39.22873263888888  4.330357142857143 37.620659722222214  3.4375 35.971354166666664  C 2.5446428571428568 34.322048611111114  1.7485119047619049 32.326388888888886  1.0491071428571428 29.984375  C 0.34970238095238093 27.642361111111104  0 25.36631944444444  0 23.15625  C 0 15.899305555555552  1.889880952380952 10.22569444444444  5.669642857142857 6.135416666666664  C 9.449404761904763 2.045138888888888  14.672619047619047 0  21.339285714285715 0  C 23.18452380952381 0  25.066964285714285 0.35460069444443976  26.986607142857146 1.0638020833333361  C 28.90625 1.7730034722222157  30.691964285714285 2.7296006944444398  32.34375 3.93359375  C 33.99553571428572 5.137586805555552  35.41666666666667 6.267361111111104  36.607142857142854 7.322916666666664  C 37.79761904761905 8.378472222222216  38.92857142857143 9.5  40 10.6875  C 41.07142857142857 9.5  42.202380952380956 8.378472222222216  43.392857142857146 7.322916666666664  C 44.58333333333334 6.267361111111104  46.00446428571429 5.137586805555552  47.65625 3.93359375  C 49.30803571428571 2.7296006944444398  51.09375 1.7730034722222157  53.013392857142854 1.0638020833333361  C 54.93303571428571 0.35460069444443976  56.8154761904762 0  58.66071428571429 0  C 65.32738095238096 0  70.55059523809524 2.045138888888888  74.33035714285714 6.135416666666664  Z " fill-rule="nonzero" fill="#0502a4" stroke="none" transform="matrix(1 0 0 1 280 722 )" />
  </g>
</svg>