<?xml version="1.0" encoding="utf-8"?>
<svg version="1.1" xmlns:xlink="http://www.w3.org/1999/xlink" width="67px" height="39px" xmlns="http://www.w3.org/2000/svg">
  <g transform="matrix(1 0 0 1 -20 -15 )">
    <path d="M 28.719270833333333 22.8134765625  C 28.928645833333334 22.5849609375  29.033333333333335 22.292968749999996  29.033333333333335 21.9375  L 29.033333333333335 17.0625  C 29.033333333333335 16.70703125  28.928645833333334 16.4150390625  28.719270833333333 16.1865234375  C 28.509895833333335 15.9580078125  28.242361111111112 15.84375  27.916666666666668 15.84375  L 21.216666666666665 15.84375  L 21.216666666666665 8.53125  C 21.216666666666665 8.175781249999998  21.111979166666668 7.8837890625  20.902604166666666 7.6552734375  C 20.693229166666665 7.4267578125  20.425694444444446 7.3125  20.099999999999998 7.3125  L 15.633333333333333 7.3125  C 15.30763888888889 7.3125  15.040104166666667 7.4267578125  14.830729166666666 7.6552734375  C 14.621354166666666 7.8837890625  14.516666666666667 8.175781249999998  14.516666666666667 8.53125  L 14.516666666666667 15.84375  L 7.816666666666666 15.84375  C 7.490972222222222 15.84375  7.223437500000001 15.9580078125  7.0140625000000005 16.1865234375  C 6.8046875 16.4150390625  6.7 16.70703125  6.7 17.0625  L 6.7 21.9375  C 6.7 22.292968749999996  6.8046875 22.5849609375  7.0140625000000005 22.8134765625  C 7.223437500000001 23.0419921875  7.490972222222222 23.15625  7.816666666666666 23.15625  L 14.516666666666667 23.15625  L 14.516666666666667 30.46875  C 14.516666666666667 30.824218749999996  14.621354166666666 31.1162109375  14.830729166666666 31.3447265625  C 15.040104166666667 31.5732421875  15.30763888888889 31.6875  15.633333333333333 31.6875  L 20.099999999999998 31.6875  C 20.425694444444446 31.6875  20.693229166666665 31.5732421875  20.902604166666666 31.3447265625  C 21.111979166666668 31.1162109375  21.216666666666665 30.824218749999996  21.216666666666665 30.46875  L 21.216666666666665 23.15625  L 27.916666666666668 23.15625  C 28.242361111111112 23.15625  28.509895833333335 23.0419921875  28.719270833333333 22.8134765625  Z M 47.82473958333333 27.82177734375  C 48.69713541666667 26.86962890625  49.13333333333333 25.720703124999996  49.13333333333333 24.375  C 49.13333333333333 23.029296874999993  48.69713541666667 21.88037109375  47.82473958333333 20.92822265625  C 46.952343750000004 19.97607421875  45.89965277777778 19.5  44.666666666666664 19.5  C 43.43368055555556 19.5  42.38098958333333 19.97607421875  41.508593749999996 20.92822265625  C 40.63619791666667 21.88037109375  40.199999999999996 23.029296874999993  40.199999999999996 24.375  C 40.199999999999996 25.720703124999996  40.63619791666667 26.86962890625  41.508593749999996 27.82177734375  C 42.38098958333333 28.77392578125  43.43368055555556 29.25  44.666666666666664 29.25  C 45.89965277777778 29.25  46.952343750000004 28.77392578125  47.82473958333333 27.82177734375  Z M 56.75807291666667 18.07177734375  C 57.63046875 17.11962890625  58.06666666666667 15.970703124999996  58.06666666666667 14.625  C 58.06666666666667 13.279296874999998  57.63046875 12.13037109375  56.75807291666667 11.17822265625  C 55.885677083333334 10.22607421875  54.83298611111111 9.75  53.6 9.75  C 52.36701388888889 9.75  51.31432291666667 10.22607421875  50.44192708333333 11.17822265625  C 49.569531250000004 12.13037109375  49.13333333333333 13.279296874999998  49.13333333333333 14.625  C 49.13333333333333 15.970703124999996  49.569531250000004 17.11962890625  50.44192708333333 18.07177734375  C 51.31432291666667 19.02392578125  52.36701388888889 19.5  53.6 19.5  C 54.83298611111111 19.5  55.885677083333334 19.02392578125  56.75807291666667 18.07177734375  Z M 61.765625 5.712890625  C 65.25520833333334 9.521484375  67.00000000000001 14.117187499999998  67 19.5  C 67.00000000000001 24.882812499999996  65.25520833333334 29.478515625  61.765625 33.287109375  C 58.27604166666667 37.095703125  54.06527777777779 39  49.13333333333333 39  C 44.666666666666664 39  40.735069444444456 37.375  37.338541666666664 34.125  L 29.661458333333332 34.125  C 26.26493055555556 37.375  22.333333333333332 39  17.866666666666667 39  C 12.934722222222224 39  8.723958333333334 37.095703125  5.234375 33.287109375  C 1.7447916666666667 29.478515625  0 24.882812499999996  0 19.5  C 0 14.117187499999998  1.7447916666666667 9.521484375  5.234375 5.712890625  C 8.723958333333334 1.904296875  12.934722222222224 0  17.866666666666667 0  L 49.13333333333333 0  C 54.06527777777779 0  58.27604166666667 1.904296875  61.765625 5.712890625  Z " fill-rule="nonzero" fill="#000000" stroke="none" transform="matrix(1 0 0 1 20 15 )" />
  </g>
</svg>