<?xml version="1.0" encoding="utf-8"?>
<svg version="1.1" xmlns:xlink="http://www.w3.org/1999/xlink" width="70px" height="81px" xmlns="http://www.w3.org/2000/svg">
  <g transform="matrix(1 0 0 1 -20 -17 )">
    <path d="M 25.007102272727273 67.025390625  C 25.305397727272727 66.708984375  25.454545454545457 66.3046875  26 65.8125  L 26 28.687499999999996  C 25.454545454545457 28.1953125  25.305397727272727 27.791015625000004  25.007102272727273 27.474609375000004  C 24.708806818181817 27.158203125000004  24.32765151515152 27.000000000000004  23.863636363636363 27.000000000000004  L 20.681818181818183 27.000000000000004  C 20.217803030303035 27.000000000000004  19.83664772727273 27.158203125000004  19.538352272727273 27.474609375000004  C 19.240056818181817 27.791015625000004  19.09090909090909 28.1953125  19 28.687499999999996  L 19 65.8125  C 19.09090909090909 66.3046875  19.240056818181817 66.708984375  19.538352272727273 67.025390625  C 19.83664772727273 67.341796875  20.217803030303035 67.5  20.681818181818183 67.5  L 23.863636363636363 67.5  C 24.32765151515152 67.5  24.708806818181817 67.341796875  25.007102272727273 67.025390625  Z M 37.734375 67.025390625  C 38.03267045454545 66.708984375  38.18181818181818 66.3046875  38 65.8125  L 38 28.687499999999996  C 38.18181818181818 28.1953125  38.03267045454545 27.791015625000004  37.734375 27.474609375000004  C 37.43607954545455 27.158203125000004  37.05492424242425 27.000000000000004  36.590909090909086 27.000000000000004  L 33.409090909090914 27.000000000000004  C 32.945075757575765 27.000000000000004  32.56392045454545 27.158203125000004  32.265625 27.474609375000004  C 31.967329545454543 27.791015625000004  31.818181818181817 28.1953125  32 28.687499999999996  L 32 65.8125  C 31.818181818181817 66.3046875  31.967329545454543 66.708984375  32.265625 67.025390625  C 32.56392045454545 67.341796875  32.945075757575765 67.5  33.409090909090914 67.5  L 36.590909090909086 67.5  C 37.05492424242425 67.5  37.43607954545455 67.341796875  37.734375 67.025390625  Z M 50.46164772727273 67.025390625  C 50.75994318181818 66.708984375  50.909090909090914 66.3046875  51 65.8125  L 51 28.687499999999996  C 50.909090909090914 28.1953125  50.75994318181818 27.791015625000004  50.46164772727273 27.474609375000004  C 50.16335227272727 27.158203125000004  49.78219696969697 27.000000000000004  49.31818181818182 27.000000000000004  L 46.13636363636363 27.000000000000004  C 45.672348484848484 27.000000000000004  45.29119318181818 27.158203125000004  44.99289772727273 27.474609375000004  C 44.69460227272727 27.791015625000004  44.54545454545455 28.1953125  44 28.687499999999996  L 44 65.8125  C 44.54545454545455 66.3046875  44.69460227272727 66.708984375  44.99289772727273 67.025390625  C 45.29119318181818 67.341796875  45.672348484848484 67.5  46.13636363636363 67.5  L 49.31818181818182 67.5  C 49.78219696969697 67.5  50.16335227272727 67.341796875  50.46164772727273 67.025390625  Z M 26.29971590909091 7.330078124999997  L 23.863636363636363 14  L 46.13636363636363 14  L 43.75 7.330078124999997  C 43.517992424242436 7.013671874999997  43.23626893939394 6.8203124999999964  42.90482954545455 7  L 27.144886363636363 7  C 26.81344696969697 6.8203124999999964  26.531723484848488 7.013671874999997  26.29971590909091 7.330078124999997  Z M 69.55255681818183 13.974609374999996  C 69.85085227272728 14.291015624999996  70 14.695312499999995  70 15.1875  L 70 18.562499999999996  C 70 19.054687499999993  69.85085227272728 19.458984375  69.55255681818183 19.775390625  C 69.25426136363636 20.091796875  68.87310606060606 20.25  68.4090909090909 20.25  L 63 20.25  L 63 70.2421875  C 63.63636363636363 73.16015625  62.85748106060607 75.6826171875  61.299715909090914 77.8095703125  C 59.741950757575765 79.9365234375  57.86931818181818 81  55.68181818181818 81  L 14.318181818181818 81  C 12.130681818181818 81  10.258049242424244 79.9716796875  8.70028409090909 77.9150390625  C 7.14251893939394 75.8583984375  6.363636363636364 73.37109375  7 70.453125  L 7 20.25  L 1.590909090909091 20.25  C 1.1268939393939394 20.25  0.7457386363636365 20.091796875  0.4474431818181818 19.775390625  C 0.14914772727272727 19.458984375  0 19.054687499999993  0 18.562499999999996  L 0 15.1875  C 0 14.695312499999995  0.14914772727272727 14.291015624999996  0.4474431818181818 13.974609374999996  C 0.7457386363636365 13.658203124999996  1.1268939393939394 13.499999999999996  1.590909090909091 14  L 16.953125 14  L 20.433238636363637 4.693359375000003  C 20.93039772727273 3.392578124999993  21.825284090909093 2.285156249999993  23.117897727272727 1.371093750000003  C 24.410511363636367 0.457031249999995  25.71969696969697 0  27.045454545454543 0  L 42.95454545454545 0  C 44.28030303030304 0  45.58948863636363 0.457031249999995  46.88210227272727 1.371093750000003  C 48.174715909090914 2.285156249999993  49.06960227272727 3.392578124999993  49.56676136363637 4.693359375000003  L 53.046875 14  L 68.4090909090909 14  C 68.87310606060606 13.499999999999996  69.25426136363636 13.658203124999996  69.55255681818183 13.974609374999996  Z " fill-rule="nonzero" fill="#000000" stroke="none" transform="matrix(1 0 0 1 20 17 )" />
  </g>
</svg>