<?xml version="1.0" encoding="utf-8"?>
<svg version="1.1" xmlns:xlink="http://www.w3.org/1999/xlink" width="56px" height="42px" xmlns="http://www.w3.org/2000/svg">
  <g transform="matrix(1 0 0 1 -29 -16 )">
    <path d="M 54.78125 1.214062500000001  C 55.59375 1.5859374999999984  56 2.2312499999999993  56 3.149999999999998  L 56 38.85  C 56 39.768750000000004  55.59375 40.4140625  54.78125 40.785937499999996  C 54.51041666666667 40.895312499999996  54.25000000000001 40.949999999999996  54 40.949999999999996  C 53.43750000000001 40.949999999999996  52.96875000000001 40.7421875  52.59375 40.3265625  L 40 27.103125  L 40 32.550000000000004  C 40 35.153124999999996  39.11979166666667 37.37890625  37.359375 39.227343749999996  C 35.598958333333336 41.07578125  33.47916666666667 42  31 42  L 9 42  C 6.520833333333334 42  4.401041666666667 41.07578125  2.640625 39.227343749999996  C 0.8802083333333333 37.37890625  0 35.153124999999996  0 32.550000000000004  L 0 9.45  C 0 6.846874999999994  0.8802083333333333 4.621093749999998  2.640625 2.7726562500000007  C 4.401041666666667 0.9242187499999941  6.520833333333334 0  9 0  L 31 0  C 33.47916666666667 0  35.598958333333336 0.9242187499999941  37.359375 2.7726562500000007  C 39.11979166666667 4.621093749999998  40 6.846874999999994  40 9.45  L 40 14.8640625  L 52.59375 1.6734374999999981  C 52.96875000000001 1.2578124999999984  53.43750000000001 1.050000000000001  54 1.050000000000001  C 54.25000000000001 1.050000000000001  54.51041666666667 1.1046874999999932  54.78125 1.214062500000001  Z " fill-rule="nonzero" fill="#000000" stroke="none" transform="matrix(1 0 0 1 29 16 )" />
  </g>
</svg>