<?xml version="1.0" encoding="utf-8"?>
<svg version="1.1" xmlns:xlink="http://www.w3.org/1999/xlink" width="48px" height="50px" xmlns="http://www.w3.org/2000/svg">
  <g transform="matrix(1 0 0 1 -29 -18 )">
    <path d="M 43.781140861466824 4.352678571428569  L 47.72060535506402 8.286830357142854  C 47.90686845168801 8.472842261904756  48.000000000000014 8.686755952380947  48 8.92857142857143  C 48.000000000000014 9.170386904761902  47.90686845168801 9.384300595238093  47.72060535506402 9.5703125  L 43.781140861466824 13.504464285714285  C 43.259604190919674 14.025297619047617  42.626309662398135 14.285714285714285  41.881257275902215 15  L 4.330616996507567 15  C 3.8463329452852157 14.285714285714285  3.427240977881258 14.109002976190471  3.073341094295693 13.755580357142854  C 2.7194412107101282 13.402157738095239  2.542491268917346 12.983630952380947  2.542491268917346 12.5  L 2.542491268917346 5.357142857142855  C 2.542491268917346 4.8735119047619015  2.7194412107101282 4.454985119047617  3.073341094295693 4.1015625  C 3.427240977881258 3.748139880952378  3.8463329452852157 3.57142857142857  4.330616996507567 4  L 20.423748544819556 4  L 20.423748544819556 1.785714285714285  C 20.423748544819556 1.3020833333333315  20.600698486612337 0.883556547619041  20.954598370197907 0.5301339285714302  C 21.30849825378347 0.17671130952381375  21.72759022118743 0  22.21187427240978 0  L 25.78812572759022 0  C 26.272409778812573 0  26.69150174621653 0.17671130952381375  27.045401629802093 0.5301339285714302  C 27.399301513387663 0.883556547619041  27.576251455180444 1.3020833333333315  27.576251455180444 1.785714285714285  L 27.576251455180444 4  L 41.881257275902215 4  C 42.626309662398135 3.57142857142857  43.259604190919674 3.831845238095238  43.781140861466824 4.352678571428569  Z M 21 48.214285714285715  L 21 33.92857142857143  L 27 33.92857142857143  L 27 48.214285714285715  C 27.576251455180444 48.697916666666664  27.399301513387663 49.11644345238095  27.045401629802093 49.46986607142857  C 26.69150174621653 49.82328869047619  26.272409778812573 50  25.78812572759022 50  L 22.21187427240978 50  C 21.72759022118743 50  21.30849825378347 49.82328869047619  20.954598370197907 49.46986607142857  C 20.600698486612337 49.11644345238095  20.423748544819556 48.697916666666664  21 48.214285714285715  Z M 27.576251455180444 22  L 43.669383003492435 22  C 44.15366705471479 21.42857142857143  44.572759022118746 21.605282738095237  44.92665890570431 21.958705357142854  C 45.28055878928988 22.312127976190478  45.457508731082655 22.730654761904763  45.457508731082655 23.214285714285715  L 45.457508731082655 30.35714285714286  C 45.457508731082655 30.840773809523807  45.28055878928988 31.259300595238095  44.92665890570431 31.612723214285715  C 44.572759022118746 31.966145833333336  44.15366705471479 32.14285714285714  43.669383003492435 32  L 6.118742724097789 32  C 5.373690337601864 32.14285714285714  4.740395809080326 31.882440476190478  4.218859138533178 31.36160714285714  L 0.2793946449359721 27.42745535714286  C 0.09313154831199075 27.241443452380953  0 27.027529761904763  0 26.785714285714285  C 0 26.543898809523807  0.09313154831199075 26.329985119047617  0.2793946449359721 26.143973214285715  L 4.218859138533178 22.20982142857143  C 4.740395809080326 21.6889880952381  5.373690337601864 21.42857142857143  6.118742724097789 22  L 20.423748544819556 22  L 20.423748544819556 16.07142857142857  L 27.576251455180444 16.07142857142857  L 27.576251455180444 22  Z " fill-rule="nonzero" fill="#000000" stroke="none" transform="matrix(1 0 0 1 29 18 )" />
  </g>
</svg>