<?xml version="1.0" encoding="utf-8"?>
<svg version="1.1" xmlns:xlink="http://www.w3.org/1999/xlink" width="244px" height="253px" xmlns="http://www.w3.org/2000/svg">
  <g transform="matrix(1 0 0 1 -74 -136 )">
    <path d="M 148.2109375 147.1747416020672  C 152.34114583333334 141.89028854435833  155.0946180555556 139.24806201550388  156.47135416666666 139.24806201550388  C 157.84809027777777 139.24806201550388  163.01085069444446 141.64513350559864  171.95963541666666 146.43927648578813  C 180.9084201388889 151.2334194659776  185.64756944444446 154.12080103359173  186.17708333333334 155.1014211886305  C 186.3888888888889 155.646210163652  186.49479166666666 156.4633936261843  186.49479166666666 157.5529715762274  C 186.49479166666666 161.1485788113695  185.5946180555556 165.28897502153313  183.79427083333334 169.97416020671835  C 182.0998263888889 174.22351421188628  178.34027777777777 177.79188199827735  172.515625 180.67926356589146  C 166.69097222222226 183.56664513350557  161.28993055555557 185.01033591731266  156.3125 185.01033591731266  C 150.27604166666669 185.01033591731266  140.21527777777777 181.63264427217914  126.13020833333334 174.87726098191214  C 115.75173611111113 169.97416020671835  106.75 163.5456503014642  99.125 155.59173126614988  C 91.5 147.6378122308355  83.66319444444446 137.5592161929371  75.61458333333333 125.35594315245478  C 67.98958333333333 113.69745908699394  64.23003472222223 103.12855297157623  64.3359375 93.64922480620154  L 64.3359375 92.34173126614985  C 64.65364583333334 82.42657192075794  68.57204861111113 73.81890611541772  76.09114583333333 66.51873385012918  C 78.6328125 64.12166236003443  81.38628472222223 62.92312661498707  84.3515625 62.92312661498707  C 84.98697916666667 62.92312661498707  85.94010416666667 63.00484496124031  87.2109375 63.16828165374676  C 88.48177083333333 63.33171834625324  89.48784722222223 63.41343669250645  90.22916666666667 63.41343669250645  C 92.24131944444446 63.41343669250645  93.64453125 63.76754952627044  94.43880208333333 64.47577519379846  C 95.23307291666667 65.18400086132644  96.05381944444446 66.68217054263566  96.90104166666667 68.97028423772609  C 97.74826388888889 71.14944013781222  99.49565972222223 75.9435831180017  102.14322916666667 83.35271317829458  C 104.79079861111113 90.76184323858742  106.11458333333333 94.84776055124891  106.11458333333333 95.61046511627907  C 106.11458333333333 97.89857881136949  104.28776041666667 101.03111541774332  100.63411458333333 105.00807493540051  C 96.98046875 108.98503445305768  95.15364583333333 111.51830318690783  95.15364583333333 112.60788113695092  C 95.15364583333333 113.37058570198104  95.4184027777778 114.18776916451333  95.94791666666667 115.05943152454779  C 99.54861111111113 123.01335055986219  104.9496527777778 130.47695951765718  112.15104166666667 137.4502583979328  C 118.08159722222223 143.22502153316105  126.07725694444447 148.72739018087856  136.13802083333334 153.95736434108525  C 137.40885416666666 154.7200689061154  138.57378472222223 155.1014211886305  139.6328125 155.1014211886305  C 141.22135416666669 155.1014211886305  144.08072916666669 152.45919465977605  148.2109375 147.1747416020672  Z M 69.41927083333333 208.87209302325581  C 86.15190972222223 220.2037037037037  104.42013888888887 225.86950904392765  124.22395833333334 225.86950904392765  C 137.67361111111111 225.86950904392765  150.5672743055556 223.14556416881996  162.90494791666666 217.69767441860463  C 175.24262152777777 212.24978466838934  185.859375 204.9496124031008  194.75520833333334 195.797157622739  C 203.65104166666666 186.64470284237726  210.74652777777777 175.7216838931955  216.04166666666666 163.02810077519382  C 221.3368055555556 150.33451765719207  223.984375 137.06890611541772  223.984375 123.23126614987082  C 223.984375 109.39362618432385  221.3368055555556 96.12801464254952  216.04166666666666 83.43443152454779  C 210.74652777777777 70.74084840654608  203.65104166666666 59.81782945736433  194.75520833333334 50.66537467700258  C 185.859375 41.512919896640824  175.24262152777777 34.212747631352265  162.90494791666666 28.764857881136955  C 150.5672743055556 23.316968130921587  137.67361111111111 20.59302325581396  124.22395833333334 20.59302325581396  C 110.77430555555556 20.59302325581396  97.88064236111113 23.316968130921587  85.54296875 28.764857881136955  C 73.20529513888889 34.212747631352265  62.58854166666667 41.512919896640824  53.692708333333336 50.66537467700258  C 44.796875 59.81782945736433  37.70138888888889 70.74084840654608  32.40625 83.43443152454779  C 27.111111111111114 96.12801464254952  24.463541666666668 109.39362618432385  24.463541666666668 123.23126614987082  C 24.463541666666668 145.34969853574503  30.817708333333336 165.39793281653746  43.526041666666664 183.37596899224806  L 30.9765625 221.45671834625324  L 69.41927083333333 208.87209302325581  Z M 77.75911458333333 9.806201550387586  C 92.53255208333333 3.268733850129186  108.02083333333333 0  124.22395833333334 0  C 140.42708333333334 0  155.91536458333334 3.268733850129186  170.68880208333334 9.806201550387586  C 185.46223958333334 16.343669250645988  198.19704861111111 25.11477174849266  208.89322916666666 36.119509043927636  C 219.58940972222226 47.124246339362614  228.11458333333334 60.2264211886305  234.46875 75.42603359173128  C 240.82291666666666 90.62564599483203  244 106.56072351421187  244 123.23126614987082  C 244 139.9018087855297  240.82291666666666 155.83688630490957  234.46875 171.03649870801033  C 228.11458333333334 186.23611111111111  219.58940972222226 199.33828596037895  208.89322916666666 210.34302325581396  C 198.19704861111111 221.3477605512489  185.46223958333334 230.1188630490956  170.68880208333334 236.65633074935403  C 155.91536458333334 243.19379844961242  140.42708333333334 246.4625322997416  124.22395833333334 246.4625322997416  C 103.57291666666667 246.4625322997416  84.24565972222223 241.3415159345392  66.2421875 231.09948320413437  L 0 253  L 21.604166666666668 186.8081395348837  C 10.166666666666666 167.41365202411714  4.447916666666667 146.2213608957795  4.447916666666667 123.23126614987082  C 4.447916666666667 106.56072351421187  7.625 90.62564599483203  13.979166666666666 75.42603359173128  C 20.333333333333332 60.2264211886305  28.85850694444445 47.124246339362614  39.5546875 36.119509043927636  C 50.250868055555564 25.11477174849266  62.98567708333333 16.343669250645988  77.75911458333333 9.806201550387586  Z " fill-rule="nonzero" fill="#03a113" stroke="none" transform="matrix(1 0 0 1 74 136 )" />
  </g>
</svg>