<?xml version="1.0" encoding="utf-8"?>
<svg version="1.1" xmlns:xlink="http://www.w3.org/1999/xlink" width="150px" height="150px" xmlns="http://www.w3.org/2000/svg">
  <g transform="matrix(1 0 0 1 -86 -49 )">
    <path d="M 123.6328125 63.57421875  C 124.8046875 62.40234375  125.390625 60.9375  125.390625 59.1796875  C 125.390625 57.35677083333333  124.8046875 55.85937500000001  123.6328125 54.68750000000001  L 114.74609375 45.89843750000001  C 113.50911458333336 44.66145833333332  112.04427083333336 44.04296874999999  110.3515625 44.04296874999999  C 108.65885416666667 44.04296874999999  107.19401041666667 44.66145833333332  105.95703125 45.89843750000001  L 66.11328125 85.64453125000001  L 44.04296875 63.57421875  C 42.805989583333336 62.33723958333333  41.341145833333336 61.71875000000001  39.6484375 61.71875000000001  C 37.95572916666667 61.71875000000001  36.490885416666664 62.33723958333333  35.25390625 63.57421875  L 26.3671875 72.36328125  C 25.1953125 73.53515625  24.609375000000004 75.03255208333333  24.609375 76.85546875000001  C 24.609375000000004 78.61328125000001  25.1953125 80.07812500000001  26.3671875 81.25000000000001  L 61.71875 116.6015625  C 62.95572916666667 117.83854166666666  64.42057291666667 118.45703125  66.11328125 118.45703125  C 67.87109375 118.45703125  69.36848958333334 117.83854166666666  70.60546875 116.6015625  L 123.6328125 63.57421875  Z M 139.94140625 37.353515625  C 146.64713541666666 48.84440104166665  150 61.39322916666664  150 75  C 150 88.60677083333334  146.64713541666666 101.15559895833331  139.94140625 112.646484375  C 133.23567708333334 124.13736979166667  124.13736979166667 133.23567708333334  112.646484375 139.94140625  C 101.15559895833334 146.64713541666669  88.60677083333334 150  75 150  C 61.39322916666667 150  48.84440104166667 146.64713541666669  37.353515625 139.94140625  C 25.862630208333336 133.23567708333334  16.764322916666668 124.13736979166667  10.05859375 112.646484375  C 3.352864583333333 101.15559895833331  0 88.60677083333334  0 75  C 0 61.39322916666664  3.352864583333333 48.84440104166665  10.05859375 37.353515625  C 16.764322916666668 25.862630208333332  25.862630208333336 16.76432291666665  37.353515625 10.058593749999995  C 48.84440104166667 3.3528645833333206  61.39322916666667 0  75 0  C 88.60677083333334 0  101.15559895833334 3.3528645833333206  112.646484375 10.058593749999995  C 124.13736979166667 16.76432291666665  133.23567708333334 25.862630208333332  139.94140625 37.353515625  Z " fill-rule="nonzero" fill="#63a103" stroke="none" fill-opacity="0.6588235294117647" transform="matrix(1 0 0 1 86 49 )" />
  </g>
</svg>