<?xml version="1.0" encoding="utf-8"?>
<svg version="1.1" xmlns:xlink="http://www.w3.org/1999/xlink" width="327px" height="627px" xmlns="http://www.w3.org/2000/svg">
  <defs>
    <mask fill="white" id="clip72">
      <path d="M 0 627  L 0 0  L 136.03199999999998 0  C 136.03199999999998 0  149.112 35.75  167.424 35.75  C 185.736 35.75  198.816 0  198.816 0  L 327 0  L 327 627  L 198.816 627  C 198.816 627  198.816 572  167.424 572  C 136.03199999999998 572  136.03199999999998 627  136.03199999999998 627  L 0 627  Z " fill-rule="evenodd" />
    </mask>
  </defs>
  <g>
    <path d="M 0 627  L 0 0  L 136.03199999999998 0  C 136.03199999999998 0  149.112 35.75  167.424 35.75  C 185.736 35.75  198.816 0  198.816 0  L 327 0  L 327 627  L 198.816 627  C 198.816 627  198.816 572  167.424 572  C 136.03199999999998 572  136.03199999999998 627  136.03199999999998 627  L 0 627  Z " fill-rule="nonzero" fill="#ffffff" stroke="none" />
    <path d="M 0 627  L 0 0  L 136.03199999999998 0  C 136.03199999999998 0  149.112 35.75  167.424 35.75  C 185.736 35.75  198.816 0  198.816 0  L 327 0  L 327 627  L 198.816 627  C 198.816 627  198.816 572  167.424 572  C 136.03199999999998 572  136.03199999999998 627  136.03199999999998 627  L 0 627  Z " stroke-width="8" stroke="#000000" fill="none" mask="url(#clip72)" />
  </g>
</svg>