<?xml version="1.0" encoding="utf-8"?>
<svg version="1.1" xmlns:xlink="http://www.w3.org/1999/xlink" width="327px" height="668px" xmlns="http://www.w3.org/2000/svg">
  <defs>
    <mask fill="white" id="clip73">
      <path d="M 0 668  L 0 0  L 136.03199999999998 0  C 136.03199999999998 0  149.112 38.08771929824561  167.424 38.08771929824561  C 185.736 38.08771929824561  198.816 0  198.816 0  L 327 0  L 327 668  L 198.816 668  C 198.816 668  198.816 609.4035087719298  167.424 609.4035087719298  C 136.03199999999998 609.4035087719298  136.03199999999998 668  136.03199999999998 668  L 0 668  Z " fill-rule="evenodd" />
    </mask>
  </defs>
  <g>
    <path d="M 0 668  L 0 0  L 136.03199999999998 0  C 136.03199999999998 0  149.112 38.08771929824561  167.424 38.08771929824561  C 185.736 38.08771929824561  198.816 0  198.816 0  L 327 0  L 327 668  L 198.816 668  C 198.816 668  198.816 609.4035087719298  167.424 609.4035087719298  C 136.03199999999998 609.4035087719298  136.03199999999998 668  136.03199999999998 668  L 0 668  Z " fill-rule="nonzero" fill="#ffffff" stroke="none" />
    <path d="M 0 668  L 0 0  L 136.03199999999998 0  C 136.03199999999998 0  149.112 38.08771929824561  167.424 38.08771929824561  C 185.736 38.08771929824561  198.816 0  198.816 0  L 327 0  L 327 668  L 198.816 668  C 198.816 668  198.816 609.4035087719298  167.424 609.4035087719298  C 136.03199999999998 609.4035087719298  136.03199999999998 668  136.03199999999998 668  L 0 668  Z " stroke-width="8" stroke="#000000" fill="none" mask="url(#clip73)" />
  </g>
</svg>