<?xml version="1.0" encoding="utf-8"?>
<svg version="1.1" xmlns:xlink="http://www.w3.org/1999/xlink" width="327px" height="666px" xmlns="http://www.w3.org/2000/svg">
  <defs>
    <mask fill="white" id="clip74">
      <path d="M 0 666  L 0 0  L 136.03199999999998 0  C 136.03199999999998 0  149.112 37.973684210526315  167.424 37.973684210526315  C 185.736 37.973684210526315  198.816 0  198.816 0  L 327 0  L 327 666  L 198.816 666  C 198.816 666  198.816 607.578947368421  167.424 607.578947368421  C 136.03199999999998 607.578947368421  136.03199999999998 666  136.03199999999998 666  L 0 666  Z " fill-rule="evenodd" />
    </mask>
  </defs>
  <g>
    <path d="M 0 666  L 0 0  L 136.03199999999998 0  C 136.03199999999998 0  149.112 37.973684210526315  167.424 37.973684210526315  C 185.736 37.973684210526315  198.816 0  198.816 0  L 327 0  L 327 666  L 198.816 666  C 198.816 666  198.816 607.578947368421  167.424 607.578947368421  C 136.03199999999998 607.578947368421  136.03199999999998 666  136.03199999999998 666  L 0 666  Z " fill-rule="nonzero" fill="#ffffff" stroke="none" />
    <path d="M 0 666  L 0 0  L 136.03199999999998 0  C 136.03199999999998 0  149.112 37.973684210526315  167.424 37.973684210526315  C 185.736 37.973684210526315  198.816 0  198.816 0  L 327 0  L 327 666  L 198.816 666  C 198.816 666  198.816 607.578947368421  167.424 607.578947368421  C 136.03199999999998 607.578947368421  136.03199999999998 666  136.03199999999998 666  L 0 666  Z " stroke-width="8" stroke="#000000" fill="none" mask="url(#clip74)" />
  </g>
</svg>